SplineFontDB: 3.2
FontName: SeriousSansBoldItalic
FullName: Serious Sans Bold Italic
FamilyName: Serious Sans Bold Italic
Weight: Bold
Copyright: https://github.com/kaBeech/serious-sans/blob/main/LICENSE
Version: 0.2.0
ItalicAngle: 0
UnderlinePosition: 0
UnderlineWidth: 0
Ascent: 1638
Descent: 410
InvalidEm: 0
LayerCount: 2
Layer: 0 1 "Back" 1
Layer: 1 1 "Fore" 0
XUID: [1021 107 -322497659 2235226]
StyleMap: 0x0040
FSType: 4
OS2Version: 3
OS2_WeightWidthSlopeOnly: 0
OS2_UseTypoMetrics: 0
CreationTime: 1532631502
ModificationTime: 1679202154
PfmFamily: 81
TTFWeight: 400
TTFWidth: 5
LineGap: 0
VLineGap: 0
Panose: 0 0 0 0 0 0 0 0 0 0
OS2TypoAscent: 1255
OS2TypoAOffset: 0
OS2TypoDescent: -386
OS2TypoDOffset: 0
OS2TypoLinegap: 200
OS2WinAscent: 1594
OS2WinAOffset: 0
OS2WinDescent: 631
OS2WinDOffset: 0
HheadAscent: 1630
HheadAOffset: 0
HheadDescent: -650
HheadDOffset: 0
OS2SubXSize: 650
OS2SubYSize: 600
OS2SubXOff: 0
OS2SubYOff: 75
OS2SupXSize: 650
OS2SupYSize: 600
OS2SupXOff: 0
OS2SupYOff: 350
OS2StrikeYSize: 0
OS2StrikeYPos: 270
OS2CapHeight: 1180
OS2XHeight: 993
OS2Vendor: 'NONE'
OS2CodePages: 00000001.00000000
OS2UnicodeRanges: 00000001.00000000.00000000.00000000
MarkAttachClasses: 1
DEI: 91125
TtTable: prep
PUSHW_1
 511
SCANCTRL
PUSHB_1
 1
SCANTYPE
SVTCA[y-axis]
MPPEM
PUSHB_1
 8
LT
IF
PUSHB_2
 1
 1
INSTCTRL
EIF
PUSHB_2
 70
 6
CALL
IF
POP
PUSHB_1
 16
EIF
MPPEM
PUSHB_1
 20
GT
IF
POP
PUSHB_1
 128
EIF
SCVTCI
PUSHB_1
 6
CALL
NOT
IF
EIF
PUSHB_1
 20
CALL
EndTTInstrs
TtTable: fpgm
PUSHB_1
 0
FDEF
PUSHB_1
 0
SZP0
MPPEM
PUSHB_1
 42
LT
IF
PUSHB_1
 74
SROUND
EIF
PUSHB_1
 0
SWAP
MIAP[rnd]
RTG
PUSHB_1
 6
CALL
IF
RTDG
EIF
MPPEM
PUSHB_1
 42
LT
IF
RDTG
EIF
DUP
MDRP[rp0,rnd,grey]
PUSHB_1
 1
SZP0
MDAP[no-rnd]
RTG
ENDF
PUSHB_1
 1
FDEF
DUP
MDRP[rp0,min,white]
PUSHB_1
 12
CALL
ENDF
PUSHB_1
 2
FDEF
MPPEM
GT
IF
RCVT
SWAP
EIF
POP
ENDF
PUSHB_1
 3
FDEF
ROUND[Black]
RTG
DUP
PUSHB_1
 64
LT
IF
POP
PUSHB_1
 64
EIF
ENDF
PUSHB_1
 4
FDEF
PUSHB_1
 6
CALL
IF
POP
SWAP
POP
ROFF
IF

StartChar: .notdef
Encoding: 65536 -1 0
Width: 1130
GlyphClass: 1
Flags: W
LayerCount: 2
Fore
SplineSet
-112 -573 m 1,0,-1
 380 1559 l 1,1,-1
 1242 1559 l 1,2,-1
 750 -573 l 1,3,-1
 -112 -573 l 1,0,-1
492 1399 m 1,4,-1
 74 -413 l 1,5,-1
 638 -413 l 1,6,-1
 1057 1399 l 1,7,-1
 492 1399 l 1,4,-1
EndSplineSet
Validated: 1
EndChar

StartChar: exclam
Encoding: 33 33 1
Width: 1130
GlyphClass: 2
Flags: W
LayerCount: 2
Fore
SplineSet
882.392578125 1512 m 0,0,1
 878.392578125 1493 878.392578125 1493 822.892578125 1282 c 128,-1,2
 767.392578125 1071 767.392578125 1071 738.392578125 944 c 0,3,4
 724.392578125 884 724.392578125 884 711.392578125 820 c 128,-1,5
 698.392578125 756 698.392578125 756 687.392578125 709.5 c 128,-1,6
 676.392578125 663 676.392578125 663 670.392578125 645.5 c 128,-1,7
 664.392578125 628 664.392578125 628 658.392578125 602 c 128,-1,8
 652.392578125 576 652.392578125 576 647.392578125 553 c 1,9,10
 628.392578125 496 628.392578125 496 585.392578125 464 c 0,11,12
 545.392578125 435 545.392578125 435 500.392578125 435 c 0,13,14
 497.392578125 435 497.392578125 435 494.392578125 435 c 0,15,16
 446.392578125 435 446.392578125 435 423.392578125 470 c 0,17,18
 402.392578125 501 402.392578125 501 414.392578125 552 c 0,19,20
 420.392578125 576 420.392578125 576 435.892578125 616.5 c 128,-1,21
 451.392578125 657 451.392578125 657 456.892578125 675.5 c 128,-1,22
 462.392578125 694 462.392578125 694 473.392578125 738 c 128,-1,23
 484.392578125 782 484.392578125 782 493.892578125 823 c 128,-1,24
 503.392578125 864 503.392578125 864 519.392578125 948 c 0,25,26
 538.392578125 1047 538.392578125 1047 559.392578125 1136.5 c 128,-1,27
 580.392578125 1226 580.392578125 1226 593.392578125 1278 c 128,-1,28
 606.392578125 1330 606.392578125 1330 625.892578125 1405 c 128,-1,29
 645.392578125 1480 645.392578125 1480 651.392578125 1505 c 2,30,-1
 651.392578125 1506 l 1,31,32
 668.392578125 1572 668.392578125 1572 709.892578125 1607 c 128,-1,33
 751.392578125 1642 751.392578125 1642 799.392578125 1642 c 0,34,35
 804.392578125 1642 804.392578125 1642 806.392578125 1642 c 0,36,37
 852.392578125 1642 852.392578125 1642 874.892578125 1610 c 128,-1,38
 897.392578125 1578 897.392578125 1578 882.392578125 1512 c 0,0,1
368.392578125 -76 m 0,39,40
 301.392578125 -76 301.392578125 -76 267.392578125 -26 c 0,41,42
 229.392578125 31 229.392578125 31 247.392578125 110 c 0,43,44
 264.392578125 183 264.392578125 183 332.392578125 235 c 0,45,46
 405.392578125 290 405.392578125 290 477.892578125 290 c 128,-1,47
 550.392578125 290 550.392578125 290 585.392578125 241 c 0,48,49
 622.392578125 189 622.392578125 189 604.392578125 113 c 128,-1,50
 586.392578125 37 586.392578125 37 527.392578125 -14.5 c 128,-1,51
 468.392578125 -66 468.392578125 -66 389.392578125 -75 c 0,52,53
 378.392578125 -76 378.392578125 -76 368.392578125 -76 c 0,39,40
EndSplineSet
Validated: 524321
EndChar

StartChar: quotedbl
Encoding: 34 34 2
Width: 1130
GlyphClass: 2
Flags: W
LayerCount: 2
Fore
SplineSet
597.627929688 1513 m 2,0,1
 592.627929688 1487 592.627929688 1487 578.627929688 1428 c 128,-1,2
 564.627929688 1369 564.627929688 1369 523.627929688 1206 c 0,3,4
 480.627929688 1036 480.627929688 1036 457.627929688 969 c 0,5,6
 438.627929688 917 438.627929688 917 396.627929688 891 c 0,7,8
 359.627929688 867 359.627929688 867 324.627929688 867 c 0,9,10
 276.627929688 867 276.627929688 867 244.627929688 898 c 0,11,12
 215.627929688 926 215.627929688 926 226.627929688 975 c 0,13,14
 228.627929688 982 228.627929688 982 230.627929688 988 c 0,15,16
 253.627929688 1068 253.627929688 1068 280.627929688 1184 c 0,17,18
 288.627929688 1217 288.627929688 1217 295.627929688 1253 c 0,19,20
 340.627929688 1460 340.627929688 1460 353.627929688 1531 c 1,21,22
 359.627929688 1558 359.627929688 1558 376.627929688 1579 c 0,23,24
 396.627929688 1604 396.627929688 1604 423.627929688 1615 c 0,25,26
 460.627929688 1629 460.627929688 1629 496.627929688 1629 c 0,27,28
 524.627929688 1629 524.627929688 1629 542.127929688 1623.5 c 128,-1,29
 559.627929688 1618 559.627929688 1618 575.627929688 1606 c 128,-1,30
 591.627929688 1594 591.627929688 1594 597.627929688 1569.5 c 128,-1,31
 603.627929688 1545 603.627929688 1545 597.627929688 1513 c 2,32,-1
 597.627929688 1513 l 2,0,1
902.627929688 1512 m 0,33,34
 898.627929688 1491 898.627929688 1491 894.627929688 1473 c 0,35,36
 870.627929688 1369 870.627929688 1369 829.627929688 1206 c 0,37,38
 787.627929688 1036 787.627929688 1036 763.627929688 969 c 0,39,40
 744.627929688 917 744.627929688 917 702.627929688 891 c 0,41,42
 665.627929688 867 665.627929688 867 629.627929688 867 c 0,43,44
 581.627929688 867 581.627929688 867 550.627929688 898 c 0,45,46
 521.627929688 926 521.627929688 926 532.627929688 975 c 0,47,48
 534.627929688 982 534.627929688 982 536.627929688 988 c 0,49,50
 556.627929688 1058 556.627929688 1058 578.627929688 1155 c 0,51,52
 626.627929688 1362 626.627929688 1362 656.627929688 1522 c 0,53,54
 657.627929688 1525 657.627929688 1525 657.627929688 1527 c 0,55,56
 664.627929688 1556 664.627929688 1556 683.627929688 1580 c 128,-1,57
 702.627929688 1604 702.627929688 1604 729.627929688 1615 c 0,58,59
 766.627929688 1629 766.627929688 1629 801.627929688 1629 c 0,60,61
 830.627929688 1629 830.627929688 1629 847.627929688 1623.5 c 128,-1,62
 864.627929688 1618 864.627929688 1618 879.627929688 1607 c 0,63,64
 897.627929688 1594 897.627929688 1594 903.627929688 1569 c 128,-1,65
 909.627929688 1544 909.627929688 1544 902.627929688 1512 c 0,33,34
EndSplineSet
Validated: 524321
EndChar

StartChar: numbersign
Encoding: 35 35 3
Width: 1130
GlyphClass: 2
Flags: W
LayerCount: 2
Fore
SplineSet
312.422851562 883 m 1,0,1
 259.422851562 881 259.422851562 881 254.422851562 882 c 0,2,3
 203.422851562 882 203.422851562 882 180.422851562 910 c 0,4,5
 155.422851562 941 155.422851562 941 165.422851562 987 c 0,6,7
 166.422851562 990 166.422851562 990 166.422851562 993 c 0,8,9
 176.422851562 1036 176.422851562 1036 213.922851562 1068.5 c 128,-1,10
 251.422851562 1101 251.422851562 1101 309.422851562 1103 c 0,11,12
 342.422851562 1105 342.422851562 1105 403.422851562 1105 c 1,13,-1
 524.422851562 1404 l 1,14,15
 556.422851562 1467 556.422851562 1467 602.422851562 1492 c 0,16,17
 633.422851562 1509 633.422851562 1509 663.422851562 1509 c 0,18,19
 676.422851562 1509 676.422851562 1509 689.422851562 1505 c 0,20,21
 736.422851562 1494 736.422851562 1494 754.422851562 1454 c 0,22,23
 766.422851562 1426 766.422851562 1426 757.422851562 1386 c 0,24,25
 753.422851562 1368 753.422851562 1368 744.422851562 1349 c 0,26,27
 744.422851562 1349 744.422851562 1349 644.422851562 1109 c 1,28,-1
 811.422851562 1109 l 1,29,-1
 924.422851562 1388 l 1,30,31
 957.422851562 1453 957.422851562 1453 1002.42285156 1478 c 0,32,33
 1033.42285156 1495 1033.42285156 1495 1063.42285156 1494 c 0,34,35
 1077.42285156 1494 1077.42285156 1494 1091.42285156 1490 c 0,36,37
 1139.42285156 1479 1139.42285156 1479 1157.42285156 1440 c 0,38,39
 1169.42285156 1414 1169.42285156 1414 1160.42285156 1377 c 0,40,41
 1155.42285156 1357 1155.42285156 1357 1144.42285156 1333 c 0,42,43
 1108.42285156 1257 1108.42285156 1257 1051.42285156 1112 c 1,44,45
 1102.42285156 1110 1102.42285156 1110 1129.42285156 1079 c 0,46,47
 1159.42285156 1045 1159.42285156 1045 1152.42285156 1002 c 1,48,-1
 1152.42285156 1001 l 2,49,50
 1141.42285156 954 1141.42285156 954 1104.42285156 921 c 128,-1,51
 1067.42285156 888 1067.42285156 888 1011.42285156 886 c 1,52,-1
 1010.42285156 886 l 1,53,-1
 960.422851562 886 l 1,54,-1
 844.422851562 586 l 1,55,-1
 894.422851562 586 l 2,56,57
 949.422851562 586 949.422851562 586 966.422851562 557.5 c 128,-1,58
 983.422851562 529 983.422851562 529 975.422851562 485 c 1,59,-1
 975.422851562 484 l 1,60,61
 964.422851562 435 964.422851562 435 936.422851562 407 c 0,62,63
 900.422851562 369 900.422851562 369 844.422851562 369 c 2,64,-1
 758.422851562 369 l 1,65,66
 672.422851562 152 672.422851562 152 636.422851562 70 c 1,67,68
 604.422851562 16 604.422851562 16 551.422851562 -12 c 0,69,70
 516.422851562 -30 516.422851562 -30 486.422851562 -29 c 0,71,72
 470.422851562 -29 470.422851562 -29 456.422851562 -24 c 0,73,74
 413.422851562 -13 413.422851562 -13 402.422851562 38 c 0,75,76
 396.422851562 66 396.422851562 66 403.422851562 97 c 0,77,78
 409.422851562 121 409.422851562 121 422.422851562 147 c 0,79,80
 457.422851562 221 457.422851562 221 516.422851562 367 c 1,81,82
 481.422851562 367 481.422851562 367 425.922851562 366 c 128,-1,83
 370.422851562 365 370.422851562 365 336.422851562 365 c 1,84,85
 220.422851562 88 220.422851562 88 214.422851562 77 c 0,86,87
 185.422851562 26 185.422851562 26 129.422851562 -7 c 0,88,89
 90.4228515625 -29 90.4228515625 -29 58.4228515625 -29 c 0,90,91
 43.4228515625 -29 43.4228515625 -29 29.4228515625 -24 c 0,92,93
 -14.5771484375 -13 -14.5771484375 -13 -22.5771484375 42 c 0,94,95
 -27.5771484375 70 -27.5771484375 70 -21.0771484375 99 c 128,-1,96
 -14.5771484375 128 -14.5771484375 128 0.4228515625 156 c 0,97,98
 25.4228515625 205 25.4228515625 205 94.4228515625 363 c 1,99,-1
 66.4228515625 363 l 2,100,101
 10.4228515625 363 10.4228515625 363 -14.5771484375 388 c 0,102,103
 -41.5771484375 415 -41.5771484375 415 -31.5771484375 461 c 0,104,105
 -30.5771484375 464 -30.5771484375 464 -30.5771484375 468 c 0,106,107
 -20.5771484375 512 -20.5771484375 512 14.9228515625 542.5 c 128,-1,108
 50.4228515625 573 50.4228515625 573 109.422851562 577 c 0,109,110
 125.422851562 578 125.422851562 578 149.922851562 579 c 128,-1,111
 174.422851562 580 174.422851562 580 186.422851562 580 c 1,112,-1
 312.422851562 883 l 1,0,1
724.422851562 886 m 1,113,-1
 552.422851562 886 l 1,114,-1
 427.422851562 587 l 1,115,116
 495.422851562 588 495.422851562 588 604.422851562 588 c 1,117,118
 664.422851562 732 664.422851562 732 724.422851562 886 c 1,113,-1
EndSplineSet
Validated: 524321
EndChar

StartChar: dollar
Encoding: 36 36 4
Width: 1130
GlyphClass: 2
Flags: W
LayerCount: 2
Fore
SplineSet
433 -266 m 128,-1,1
 388.5 -296 388.5 -296 338.5 -296 c 0,2,3
 336.5 -296 336.5 -296 335.5 -296 c 0,4,5
 284.5 -296 284.5 -296 265.5 -260 c 0,6,7
 251.5 -233 251.5 -233 261.5 -189 c 0,8,9
 263.5 -179 263.5 -179 271.5 -153.5 c 128,-1,10
 279.5 -128 279.5 -128 294.5 -65 c 1,11,12
 227.5 -63 227.5 -63 166.5 -45 c 0,13,14
 108.5 -28 108.5 -28 68.5 4 c 0,15,16
 -8.5 66 -8.5 66 -31.5 152 c 1,17,18
 -40.5 198 -40.5 198 -32.5 233 c 0,19,20
 -29.5 245 -29.5 245 -24.5 256 c 0,21,22
 -3.5 302 -3.5 302 43.5 323 c 0,23,24
 70.5 335 70.5 335 85.5 338.5 c 128,-1,25
 100.5 342 100.5 342 110 342 c 128,-1,26
 119.5 342 119.5 342 126.5 341 c 0,27,28
 149.5 338 149.5 338 164.5 321 c 128,-1,29
 179.5 304 179.5 304 192.5 275 c 1,30,31
 217.5 217 217.5 217 258.5 184 c 0,32,33
 292.5 157 292.5 157 350.5 153 c 1,34,35
 424.5 458 424.5 458 480.5 703 c 1,36,37
 474.5 704 474.5 704 459.5 706 c 0,38,39
 448.5 708 448.5 708 429.5 709 c 0,40,41
 352.5 717 352.5 717 297.5 749 c 0,42,43
 245.5 781 245.5 781 218 826.5 c 128,-1,44
 190.5 872 190.5 872 182 924 c 128,-1,45
 173.5 976 173.5 976 185.5 1028 c 0,46,47
 203.5 1104 203.5 1104 242 1173.5 c 128,-1,48
 280.5 1243 280.5 1243 340 1303.5 c 128,-1,49
 399.5 1364 399.5 1364 484.5 1407 c 0,50,51
 565.5 1446 565.5 1446 659.5 1464 c 1,52,53
 670.5 1505 670.5 1505 684.5 1560 c 2,54,55
 679.5 1539 679.5 1539 684.5 1561 c 1,56,57
 709.5 1659 709.5 1659 776.5 1685 c 0,58,59
 798.5 1694 798.5 1694 829.5 1694 c 0,60,61
 892.5 1694 892.5 1694 911.5 1651 c 0,62,63
 925.5 1619 925.5 1619 913.5 1566 c 2,64,65
 899.5 1504 899.5 1504 893.5 1482 c 1,66,67
 935.5 1477 935.5 1477 1006.5 1461 c 0,68,69
 1074.5 1445 1074.5 1445 1109.5 1429 c 0,70,71
 1149.5 1412 1149.5 1412 1161.5 1374 c 0,72,73
 1170.5 1346 1170.5 1346 1162.5 1315 c 0,74,75
 1160.5 1305 1160.5 1305 1156.5 1293 c 0,76,77
 1145.5 1262 1145.5 1262 1122.5 1243 c 128,-1,78
 1099.5 1224 1099.5 1224 1073.5 1221 c 0,79,80
 1060.5 1219 1060.5 1219 1050.5 1219 c 128,-1,81
 1040.5 1219 1040.5 1219 1028 1220 c 128,-1,82
 1015.5 1221 1015.5 1221 998.5 1226 c 0,83,84
 978.5 1231 978.5 1231 952.5 1244 c 0,85,86
 902.5 1270 902.5 1270 843.5 1276 c 1,87,88
 794.5 1078 794.5 1078 750.5 899 c 1,89,90
 832.5 885 832.5 885 899.5 856 c 0,91,92
 960.5 826 960.5 826 995.5 783 c 128,-1,93
 1030.5 740 1030.5 740 1047 685 c 128,-1,94
 1063.5 630 1063.5 630 1062 576.5 c 128,-1,95
 1060.5 523 1060.5 523 1047.5 466 c 0,96,97
 1025.5 370 1025.5 370 973.5 284 c 128,-1,98
 921.5 198 921.5 198 851.5 134.5 c 128,-1,99
 781.5 71 781.5 71 695.5 26 c 0,100,101
 614.5 -15 614.5 -15 526.5 -38 c 1,102,103
 502.5 -142 502.5 -142 497.5 -180 c 1,104,0
 477.5 -236 477.5 -236 433 -266 c 128,-1,1
497.5 1199 m 0,105,106
 439.5 1152 439.5 1152 424.5 1087 c 0,107,108
 411.5 1033 411.5 1033 447.5 991 c 0,109,110
 477.5 955 477.5 955 535.5 936 c 1,111,112
 566.5 1062 566.5 1062 612.5 1262 c 1,113,114
 546.5 1239 546.5 1239 497.5 1199 c 0,105,106
721.5 280 m 0,115,116
 794.5 344 794.5 344 813.5 425 c 0,117,118
 821.5 461 821.5 461 820.5 490 c 0,119,120
 819.5 520 819.5 520 806.5 552 c 0,121,122
 783.5 610 783.5 610 690.5 650 c 1,123,124
 634.5 414 634.5 414 617.5 343 c 128,-1,125
 600.5 272 600.5 272 580.5 190 c 1,126,127
 659.5 226 659.5 226 721.5 280 c 0,115,116
EndSplineSet
Validated: 524325
EndChar

StartChar: percent
Encoding: 37 37 5
Width: 1130
GlyphClass: 2
Flags: W
LayerCount: 2
Fore
SplineSet
155.284179688 1006.5 m 128,-1,1
 142.284179688 1069 142.284179688 1069 158.284179688 1138 c 0,2,3
 159.284179688 1140 159.284179688 1140 160.284179688 1143 c 0,4,5
 190.284179688 1273 190.284179688 1273 281.784179688 1358.5 c 128,-1,6
 373.284179688 1444 373.284179688 1444 507.284179688 1444 c 0,7,8
 622.284179688 1444 622.284179688 1444 683.284179688 1371 c 0,9,10
 715.284179688 1333 715.284179688 1333 720.284179688 1269 c 0,11,12
 724.284179688 1220 724.284179688 1220 710.284179688 1160 c 0,13,14
 674.284179688 1005 674.284179688 1005 575.284179688 928 c 0,15,16
 487.284179688 860 487.284179688 860 343.284179688 860 c 0,17,18
 265.284179688 860 265.284179688 860 216.784179688 902 c 128,-1,0
 168.284179688 944 168.284179688 944 155.284179688 1006.5 c 128,-1,1
-33.7158203125 -93 m 0,19,20
 -55.7158203125 -81 -55.7158203125 -81 -66.7158203125 -62 c 0,21,22
 -81.7158203125 -37 -81.7158203125 -37 -73.7158203125 -3 c 128,-1,23
 -65.7158203125 31 -65.7158203125 31 -37.7158203125 70 c 0,24,25
 22.2841796875 156 22.2841796875 156 235.284179688 429 c 0,26,27
 685.284179688 978 685.284179688 978 686.284179688 979 c 0,28,29
 912.284179688 1256 912.284179688 1256 995.284179688 1376 c 1,30,31
 991.284179688 1354 991.284179688 1354 996.284179688 1377 c 2,32,33
 1036.28417969 1421 1036.28417969 1421 1087.28417969 1432 c 0,34,35
 1102.28417969 1435 1102.28417969 1435 1116.28417969 1436 c 0,36,37
 1146.28417969 1436 1146.28417969 1436 1170.28417969 1419 c 0,38,39
 1209.28417969 1397 1209.28417969 1397 1206.28417969 1355 c 0,40,41
 1206.28417969 1348 1206.28417969 1348 1203.28417969 1340 c 0,42,43
 1195.28417969 1306 1195.28417969 1306 1162.28417969 1264 c 0,44,45
 1064.28417969 1143 1064.28417969 1143 666.284179688 648 c 0,46,47
 264.284179688 153 264.284179688 153 132.284179688 -22 c 1,48,49
 69.2841796875 -105 69.2841796875 -105 9.2841796875 -105 c 0,50,51
 -12.7158203125 -105 -12.7158203125 -105 -33.7158203125 -93 c 0,19,20
507.284179688 1223.5 m 128,-1,53
 489.284179688 1245 489.284179688 1245 445.284179688 1245 c 0,54,55
 409.284179688 1245 409.284179688 1245 386.284179688 1222 c 0,56,57
 359.284179688 1196 359.284179688 1196 344.284179688 1148 c 0,58,59
 343.284179688 1143 343.284179688 1143 342.284179688 1141 c 0,60,61
 333.284179688 1104 333.284179688 1104 344.784179688 1085.5 c 128,-1,62
 356.284179688 1067 356.284179688 1067 409.284179688 1063 c 0,63,64
 410.284179688 1063 410.284179688 1063 411.284179688 1063 c 0,65,66
 448.284179688 1063 448.284179688 1063 471.284179688 1083 c 0,67,68
 498.284179688 1107 498.284179688 1107 512.284179688 1149 c 0,69,70
 513.284179688 1152 513.284179688 1152 514.284179688 1155 c 0,71,52
 525.284179688 1202 525.284179688 1202 507.284179688 1223.5 c 128,-1,53
474.284179688 70 m 128,-1,73
 459.284179688 135 459.284179688 135 476.284179688 208 c 0,74,75
 477.284179688 211 477.284179688 211 477.284179688 213 c 0,76,77
 508.284179688 348 508.284179688 348 606.784179688 437.5 c 128,-1,78
 705.284179688 527 705.284179688 527 845.284179688 527 c 0,79,80
 954.284179688 527 954.284179688 527 1009.28417969 451 c 0,81,82
 1037.28417969 411 1037.28417969 411 1040.28417969 345 c 0,83,84
 1042.28417969 296 1042.28417969 296 1028.28417969 236 c 0,85,86
 1023.28417969 216 1023.28417969 216 1018.28417969 195 c 0,87,88
 981.284179688 61 981.284179688 61 897.784179688 -10.5 c 128,-1,89
 814.284179688 -82 814.284179688 -82 681.284179688 -82 c 0,90,91
 677.284179688 -82 677.284179688 -82 672.284179688 -82 c 0,92,93
 592.284179688 -81 592.284179688 -81 540.784179688 -38 c 128,-1,72
 489.284179688 5 489.284179688 5 474.284179688 70 c 128,-1,73
742.284179688 124 m 0,94,95
 744.284179688 124 744.284179688 124 747.284179688 124 c 0,96,97
 781.284179688 124 781.284179688 124 802.284179688 146 c 0,98,99
 829.284179688 173 829.284179688 173 843.284179688 218 c 0,100,101
 844.284179688 222 844.284179688 222 844.284179688 224 c 0,102,103
 855.284179688 273 855.284179688 273 845.284179688 297 c 0,104,105
 833.284179688 326 833.284179688 326 784.284179688 326 c 0,106,107
 748.284179688 326 748.284179688 326 723.284179688 300 c 0,108,109
 694.284179688 270 694.284179688 270 678.284179688 218 c 0,110,111
 677.284179688 212 677.284179688 212 677.284179688 210 c 0,112,113
 667.284179688 169 667.284179688 169 678.784179688 147.5 c 128,-1,114
 690.284179688 126 690.284179688 126 742.284179688 124 c 0,94,95
EndSplineSet
Validated: 524321
EndChar

StartChar: ampersand
Encoding: 38 38 6
Width: 1130
GlyphClass: 2
Flags: W
LayerCount: 2
Fore
SplineSet
956.899414062 23 m 0,0,1
 954.899414062 12 954.899414062 12 950.899414062 1 c 0,2,3
 927.899414062 -70 927.899414062 -70 882.899414062 -94 c 1,4,5
 843.899414062 -109 843.899414062 -109 832.899414062 -108 c 0,6,7
 831.899414062 -108 831.899414062 -108 831.899414062 -108 c 0,8,9
 806.899414062 -108 806.899414062 -108 782.899414062 -93 c 0,10,11
 738.899414062 -66 738.899414062 -66 719.899414062 -1 c 0,12,13
 716.899414062 9 716.899414062 9 712.399414062 45 c 128,-1,14
 707.899414062 81 707.899414062 81 705.899414062 96 c 1,15,16
 680.899414062 69 680.899414062 69 668.399414062 56.5 c 128,-1,17
 655.899414062 44 655.899414062 44 627.399414062 17.5 c 128,-1,18
 598.899414062 -9 598.899414062 -9 578.899414062 -22.5 c 128,-1,19
 558.899414062 -36 558.899414062 -36 526.399414062 -56 c 128,-1,20
 493.899414062 -76 493.899414062 -76 465.399414062 -85.5 c 128,-1,21
 436.899414062 -95 436.899414062 -95 400.899414062 -102.5 c 128,-1,22
 364.899414062 -110 364.899414062 -110 327.899414062 -110 c 0,23,24
 213.899414062 -110 213.899414062 -110 134.899414062 -48 c 128,-1,25
 55.8994140625 14 55.8994140625 14 26.8994140625 116.5 c 128,-1,26
 -2.1005859375 219 -2.1005859375 219 24.8994140625 337 c 0,27,28
 65.8994140625 515 65.8994140625 515 156.899414062 644 c 0,29,30
 262.899414062 794 262.899414062 794 436.899414062 876 c 1,31,32
 428.899414062 898 428.899414062 898 416.399414062 932.5 c 128,-1,33
 403.899414062 967 403.899414062 967 397.399414062 985.5 c 128,-1,34
 390.899414062 1004 390.899414062 1004 383.399414062 1033.5 c 128,-1,35
 375.899414062 1063 375.899414062 1063 375.899414062 1086 c 0,36,37
 375.899414062 1147 375.899414062 1147 390.899414062 1207 c 0,38,39
 399.899414062 1246 399.899414062 1246 418.899414062 1285.5 c 128,-1,40
 437.899414062 1325 437.899414062 1325 471.899414062 1366 c 128,-1,41
 505.899414062 1407 505.899414062 1407 549.399414062 1438 c 128,-1,42
 592.899414062 1469 592.899414062 1469 654.899414062 1488.5 c 128,-1,43
 716.899414062 1508 716.899414062 1508 786.899414062 1508 c 0,44,45
 846.899414062 1508 846.899414062 1508 898.899414062 1487.5 c 128,-1,46
 950.899414062 1467 950.899414062 1467 989.399414062 1428.5 c 128,-1,47
 1027.89941406 1390 1027.89941406 1390 1041.39941406 1326.5 c 128,-1,48
 1054.89941406 1263 1054.89941406 1263 1036.89941406 1185 c 0,49,50
 1020.89941406 1116 1020.89941406 1116 990.399414062 1056 c 128,-1,51
 959.899414062 996 959.899414062 996 924.899414062 955 c 128,-1,52
 889.899414062 914 889.899414062 914 843.399414062 878 c 128,-1,53
 796.899414062 842 796.899414062 842 765.399414062 823.5 c 128,-1,54
 733.899414062 805 733.899414062 805 702.899414062 790 c 1,55,56
 723.899414062 729 723.899414062 729 763.899414062 636 c 128,-1,57
 803.899414062 543 803.899414062 543 821.899414062 498 c 1,58,59
 829.899414062 510 829.899414062 510 846.399414062 535.5 c 128,-1,60
 862.899414062 561 862.899414062 561 879.399414062 586 c 128,-1,61
 895.899414062 611 895.899414062 611 905.899414062 623 c 0,62,63
 957.899414062 684 957.899414062 684 998.899414062 699 c 0,64,65
 1015.89941406 705 1015.89941406 705 1032.89941406 705 c 0,66,67
 1058.89941406 705 1058.89941406 705 1082.89941406 690 c 0,68,69
 1120.89941406 667 1120.89941406 667 1117.89941406 611 c 0,70,71
 1116.89941406 599 1116.89941406 599 1113.89941406 586 c 0,72,73
 1103.89941406 543 1103.89941406 543 1070.89941406 496 c 0,74,75
 1055.89941406 475 1055.89941406 475 996.899414062 415 c 128,-1,76
 937.899414062 355 937.899414062 355 898.899414062 308 c 1,77,78
 910.899414062 271 910.899414062 271 930.399414062 204.5 c 128,-1,79
 949.899414062 138 949.899414062 138 953.899414062 124 c 0,80,81
 969.899414062 77 969.899414062 77 956.899414062 23 c 0,0,1
609.899414062 1172 m 0,82,83
 598.899414062 1126 598.899414062 1126 609.399414062 1072.5 c 128,-1,84
 619.899414062 1019 619.899414062 1019 638.899414062 980 c 1,85,86
 672.899414062 991 672.899414062 991 699.899414062 1004 c 128,-1,87
 726.899414062 1017 726.899414062 1017 754.399414062 1038 c 128,-1,88
 781.899414062 1059 781.899414062 1059 799.399414062 1089.5 c 128,-1,89
 816.899414062 1120 816.899414062 1120 826.899414062 1166 c 0,90,91
 841.899414062 1230 841.899414062 1230 813.899414062 1263 c 128,-1,92
 785.899414062 1296 785.899414062 1296 732.899414062 1296 c 128,-1,93
 679.899414062 1296 679.899414062 1296 649.899414062 1261 c 0,94,95
 623.899414062 1231 623.899414062 1231 609.899414062 1172 c 0,82,83
265.899414062 357 m 0,96,97
 242.899414062 259 242.899414062 259 276.899414062 195.5 c 128,-1,98
 310.899414062 132 310.899414062 132 385.899414062 132 c 0,99,100
 427.899414062 132 427.899414062 132 477.899414062 148 c 0,101,102
 494.899414062 153 494.899414062 153 515.899414062 166.5 c 128,-1,103
 536.899414062 180 536.899414062 180 548.899414062 188 c 128,-1,104
 560.899414062 196 560.899414062 196 579.899414062 214.5 c 128,-1,105
 598.899414062 233 598.899414062 233 606.399414062 240.5 c 128,-1,106
 613.899414062 248 613.899414062 248 626.899414062 263 c 128,-1,107
 639.899414062 278 639.899414062 278 643.899414062 283 c 1,108,109
 631.899414062 344 631.899414062 344 618.899414062 393 c 0,110,111
 606.899414062 440 606.899414062 440 566.399414062 537 c 128,-1,112
 525.899414062 634 525.899414062 634 506.899414062 684 c 1,113,114
 459.899414062 661 459.899414062 661 421.899414062 631 c 0,115,116
 376.899414062 595 376.899414062 595 346.899414062 551 c 128,-1,117
 316.899414062 507 316.899414062 507 297.899414062 460.5 c 128,-1,118
 278.899414062 414 278.899414062 414 265.899414062 357 c 0,96,97
EndSplineSet
Validated: 524321
EndChar

StartChar: quotesingle
Encoding: 39 39 7
Width: 1130
GlyphClass: 2
Flags: W
LayerCount: 2
Fore
SplineSet
745.190429688 1491 m 2,0,1
 739.190429688 1464 739.190429688 1464 726.690429688 1408 c 128,-1,2
 714.190429688 1352 714.190429688 1352 685.190429688 1237 c 0,3,4
 640.190429688 1059 640.190429688 1059 616.190429688 991 c 0,5,6
 597.190429688 938 597.190429688 938 554.190429688 912 c 0,7,8
 517.190429688 889 517.190429688 889 483.190429688 889 c 0,9,10
 434.190429688 889 434.190429688 889 402.190429688 920 c 0,11,12
 373.190429688 949 373.190429688 949 385.190429688 998 c 0,13,14
 386.190429688 1004 386.190429688 1004 388.190429688 1010 c 0,15,16
 412.190429688 1092 412.190429688 1092 435.190429688 1194 c 0,17,18
 468.190429688 1339 468.190429688 1339 499.190429688 1500 c 0,19,20
 500.190429688 1503 500.190429688 1503 500.190429688 1505 c 0,21,22
 507.190429688 1534 507.190429688 1534 524.190429688 1557 c 0,23,24
 544.190429688 1583 544.190429688 1583 572.190429688 1593 c 0,25,26
 609.190429688 1607 609.190429688 1607 644.190429688 1607 c 0,27,28
 672.190429688 1607 672.190429688 1607 689.690429688 1601.5 c 128,-1,29
 707.190429688 1596 707.190429688 1596 722.190429688 1585 c 0,30,31
 740.190429688 1572 740.190429688 1572 745.690429688 1547 c 128,-1,32
 751.190429688 1522 751.190429688 1522 745.190429688 1491 c 2,33,-1
 745.190429688 1491 l 2,0,1
EndSplineSet
Validated: 524321
EndChar

StartChar: parenleft
Encoding: 40 40 8
Width: 1130
GlyphClass: 2
Flags: W
LayerCount: 2
Fore
SplineSet
590.321289062 -191 m 0,0,1
 580.321289062 -236 580.321289062 -236 540.821289062 -265 c 128,-1,2
 501.321289062 -294 501.321289062 -294 466.321289062 -294 c 0,3,4
 330.321289062 -294 330.321289062 -294 245.321289062 -190.5 c 128,-1,5
 160.321289062 -87 160.321289062 -87 134.821289062 92 c 128,-1,6
 109.321289062 271 109.321289062 271 141.321289062 501 c 0,7,8
 150.321289062 565 150.321289062 565 172.321289062 660 c 128,-1,9
 194.321289062 755 194.321289062 755 238.321289062 896 c 0,10,11
 314.321289062 1139 314.321289062 1139 406.321289062 1297 c 0,12,13
 447.321289062 1368 447.321289062 1368 506.321289062 1436 c 128,-1,14
 565.321289062 1504 565.321289062 1504 633.321289062 1562 c 128,-1,15
 701.321289062 1620 701.321289062 1620 779.321289062 1656 c 128,-1,16
 857.321289062 1692 857.321289062 1692 926.321289062 1692 c 0,17,18
 980.321289062 1692 980.321289062 1692 998.321289062 1657 c 0,19,20
 1012.32128906 1630 1012.32128906 1630 1002.32128906 1584 c 0,21,22
 989.321289062 1528 989.321289062 1528 950.321289062 1501 c 0,23,24
 915.321289062 1476 915.321289062 1476 873.321289062 1476 c 128,-1,25
 831.321289062 1476 831.321289062 1476 786.821289062 1448.5 c 128,-1,26
 742.321289062 1421 742.321289062 1421 700.321289062 1371 c 0,27,28
 617.321289062 1273 617.321289062 1273 552.321289062 1127 c 0,29,30
 503.321289062 1019 503.321289062 1019 452.321289062 839 c 0,31,32
 425.321289062 744 425.321289062 744 408.321289062 669.5 c 128,-1,33
 391.321289062 595 391.321289062 595 382.321289062 539 c 0,34,35
 363.321289062 417 363.321289062 417 367.321289062 301 c 128,-1,36
 371.321289062 185 371.321289062 185 393.321289062 103.5 c 128,-1,37
 415.321289062 22 415.321289062 22 450.321289062 -27 c 0,38,39
 482.321289062 -71 482.321289062 -71 517.321289062 -71 c 0,40,41
 564.321289062 -71 564.321289062 -71 584.821289062 -98.5 c 128,-1,42
 605.321289062 -126 605.321289062 -126 590.321289062 -191 c 0,0,1
EndSplineSet
Validated: 524321
EndChar

StartChar: parenright
Encoding: 41 41 9
Width: 1130
GlyphClass: 2
Flags: W
LayerCount: 2
Fore
SplineSet
204.545898438 -294 m 0,0,1
 169.545898438 -294 169.545898438 -294 143.545898438 -265 c 128,-1,2
 117.545898438 -236 117.545898438 -236 127.545898438 -191 c 0,3,4
 142.545898438 -126 142.545898438 -126 176.045898438 -98.5 c 128,-1,5
 209.545898438 -71 209.545898438 -71 255.545898438 -71 c 0,6,7
 290.545898438 -71 290.545898438 -71 343.545898438 -27 c 0,8,9
 401.545898438 22 401.545898438 22 461.045898438 103.5 c 128,-1,10
 520.545898438 185 520.545898438 185 578.045898438 301.5 c 128,-1,11
 635.545898438 418 635.545898438 418 673.545898438 539 c 0,12,13
 692.545898438 601 692.545898438 601 709.045898438 673.5 c 128,-1,14
 725.545898438 746 725.545898438 746 742.545898438 839 c 0,15,16
 774.545898438 1020 774.545898438 1020 775.545898438 1127 c 0,17,18
 777.545898438 1271 777.545898438 1271 739.545898438 1372 c 0,19,20
 721.545898438 1421 721.545898438 1421 689.545898438 1448.5 c 128,-1,21
 657.545898438 1476 657.545898438 1476 615.045898438 1476 c 128,-1,22
 572.545898438 1476 572.545898438 1476 548.545898438 1501 c 0,23,24
 522.545898438 1528 522.545898438 1528 535.545898438 1584 c 0,25,26
 542.545898438 1615 542.545898438 1615 558.045898438 1639 c 128,-1,27
 573.545898438 1663 573.545898438 1663 595.545898438 1675 c 0,28,29
 626.545898438 1692 626.545898438 1692 661.545898438 1692 c 0,30,31
 731.545898438 1692 731.545898438 1692 792.545898438 1656 c 128,-1,32
 853.545898438 1620 853.545898438 1620 895.045898438 1562 c 128,-1,33
 936.545898438 1504 936.545898438 1504 963.545898438 1436 c 128,-1,34
 990.545898438 1368 990.545898438 1368 998.545898438 1297 c 0,35,36
 1017.54589844 1139 1017.54589844 1139 982.545898438 896 c 0,37,38
 961.545898438 755 961.545898438 755 939.545898438 660 c 128,-1,39
 917.545898438 565 917.545898438 565 896.545898438 502 c 0,40,41
 822.545898438 271 822.545898438 271 714.545898438 92 c 128,-1,42
 606.545898438 -87 606.545898438 -87 473.545898438 -190.5 c 128,-1,43
 340.545898438 -294 340.545898438 -294 204.545898438 -294 c 0,0,1
EndSplineSet
Validated: 524321
EndChar

StartChar: asterisk
Encoding: 42 42 10
Width: 1130
GlyphClass: 2
Flags: W
LayerCount: 2
Fore
SplineSet
282.311523438 209 m 0,0,1
 276.311523438 209 276.311523438 209 263.811523438 208.5 c 128,-1,2
 251.311523438 208 251.311523438 208 231.811523438 212.5 c 128,-1,3
 212.311523438 217 212.311523438 217 195.811523438 230 c 128,-1,4
 179.311523438 243 179.311523438 243 169.811523438 267 c 128,-1,5
 160.311523438 291 160.311523438 291 164.311523438 324 c 0,6,7
 165.311523438 331 165.311523438 331 166.311523438 339 c 0,8,9
 173.311523438 371 173.311523438 371 197.311523438 401 c 1,10,-1
 342.311523438 583 l 1,11,12
 217.311523438 575 217.311523438 575 153.311523438 575 c 0,13,14
 97.3115234375 575 97.3115234375 575 73.3115234375 616 c 0,15,16
 52.3115234375 653 52.3115234375 653 61.3115234375 702 c 0,17,18
 62.3115234375 706 62.3115234375 706 62.3115234375 709 c 0,19,20
 71.3115234375 750 71.3115234375 750 103.311523438 790 c 0,21,22
 122.311523438 815 122.311523438 815 151.311523438 828 c 0,23,24
 174.311523438 839 174.311523438 839 200.311523438 838 c 0,25,26
 205.311523438 838 205.311523438 838 209.311523438 838 c 2,27,-1
 210.311523438 838 l 2,28,29
 285.311523438 831 285.311523438 831 420.311523438 821 c 1,30,31
 381.311523438 939 381.311523438 939 351.311523438 1007 c 1,32,33
 335.311523438 1053 335.311523438 1053 346.311523438 1099 c 0,34,35
 348.311523438 1108 348.311523438 1108 351.311523438 1117 c 0,36,37
 371.311523438 1175 371.311523438 1175 415.311523438 1196 c 0,38,39
 443.311523438 1213 443.311523438 1213 475.811523438 1213 c 128,-1,40
 508.311523438 1213 508.311523438 1213 535.311523438 1193 c 0,41,42
 563.311523438 1173 563.311523438 1173 572.311523438 1132 c 0,43,44
 581.311523438 1088 581.311523438 1088 619.311523438 939 c 1,45,46
 700.311523438 1046 700.311523438 1046 755.311523438 1131 c 0,47,48
 781.311523438 1170 781.311523438 1170 816.311523438 1189.5 c 128,-1,49
 851.311523438 1209 851.311523438 1209 880.311523438 1209 c 0,50,51
 911.311523438 1209 911.311523438 1209 932.311523438 1192 c 0,52,53
 953.311523438 1179 953.311523438 1179 962.311523438 1151 c 128,-1,54
 971.311523438 1123 971.311523438 1123 963.311523438 1086 c 0,55,56
 954.311523438 1045 954.311523438 1045 922.311523438 1009 c 0,57,58
 851.311523438 927 851.311523438 927 763.311523438 809 c 1,59,60
 896.311523438 811 896.311523438 811 957.311523438 830 c 0,61,62
 983.311523438 836 983.311523438 836 991.311523438 835 c 0,63,64
 991.311523438 835 991.311523438 835 991.311523438 835 c 0,65,66
 1027.31152344 835 1027.31152344 835 1048.31152344 809 c 0,67,68
 1078.31152344 771 1078.31152344 771 1069.31152344 725 c 0,69,70
 1058.31152344 679 1058.31152344 679 1028.31152344 639 c 0,71,72
 1009.31152344 614 1009.31152344 614 983.311523438 600 c 0,73,74
 964.311523438 591 964.311523438 591 945.311523438 591 c 0,75,76
 935.311523438 591 935.311523438 591 925.311523438 593 c 0,77,78
 880.311523438 602 880.311523438 602 760.311523438 603 c 0,79,80
 740.311523438 603 740.311523438 603 717.311523438 603 c 1,81,-1
 779.311523438 402 l 1,82,83
 789.311523438 357 789.311523438 357 781.311523438 320 c 0,84,85
 779.311523438 311 779.311523438 311 776.311523438 303 c 0,86,87
 759.311523438 255 759.311523438 255 720.311523438 233 c 0,88,89
 688.311523438 215 688.311523438 215 648.311523438 215 c 0,90,91
 617.311523438 215 617.311523438 215 591.311523438 229 c 0,92,93
 556.311523438 248 556.311523438 248 554.311523438 290 c 0,94,95
 550.311523438 358 550.311523438 358 520.311523438 480 c 1,96,97
 415.311523438 329 415.311523438 329 385.311523438 277 c 0,98,99
 368.311523438 245 368.311523438 245 339.311523438 228 c 128,-1,100
 310.311523438 211 310.311523438 211 282.311523438 209 c 0,0,1
EndSplineSet
Validated: 524321
EndChar

StartChar: plus
Encoding: 43 43 11
Width: 1130
GlyphClass: 2
Flags: W
LayerCount: 2
Fore
SplineSet
636.258789062 712 m 1,0,-1
 592.258789062 513 l 2,1,2
 578.258789062 454 578.258789062 454 545.758789062 428.5 c 128,-1,3
 513.258789062 403 513.258789062 403 472.258789062 400 c 1,4,-1
 471.258789062 400 l 1,5,6
 426.258789062 400 426.258789062 400 404.258789062 423 c 0,7,8
 376.258789062 452 376.258789062 452 391.258789062 513 c 2,9,-1
 436.258789062 707 l 1,10,-1
 267.258789062 705 l 2,11,12
 210.258789062 705 210.258789062 705 187.758789062 738 c 128,-1,13
 165.258789062 771 165.258789062 771 175.258789062 816 c 0,14,15
 176.258789062 819 176.258789062 819 177.258789062 823 c 0,16,17
 187.258789062 867 187.258789062 867 222.258789062 899.5 c 128,-1,18
 257.258789062 932 257.258789062 932 311.258789062 932 c 0,19,20
 315.258789062 932 315.258789062 932 371.258789062 930.5 c 128,-1,21
 427.258789062 929 427.258789062 929 487.258789062 928 c 1,22,23
 514.258789062 1049 514.258789062 1049 529.258789062 1133 c 1,24,25
 542.258789062 1190 542.258789062 1190 583.258789062 1217 c 0,26,27
 614.258789062 1237 614.258789062 1237 658.258789062 1237 c 0,28,29
 662.258789062 1237 662.258789062 1237 666.258789062 1237 c 0,30,31
 706.258789062 1237 706.258789062 1237 729.258789062 1216 c 0,32,33
 756.258789062 1192 756.258789062 1192 742.258789062 1136 c 0,34,35
 741.258789062 1130 741.258789062 1130 739.258789062 1124 c 0,36,37
 709.258789062 1020 709.258789062 1020 687.258789062 925 c 1,38,-1
 874.258789062 925 l 2,39,40
 929.258789062 925 929.258789062 925 946.258789062 897 c 128,-1,41
 963.258789062 869 963.258789062 869 955.258789062 825 c 1,42,-1
 955.258789062 824 l 2,43,44
 950.258789062 802 950.258789062 802 941.758789062 783.5 c 128,-1,45
 933.258789062 765 933.258789062 765 919.258789062 747 c 0,46,47
 902.258789062 725 902.258789062 725 875.258789062 716 c 0,48,49
 856.258789062 709 856.258789062 709 834.258789062 709 c 0,50,51
 827.258789062 709 827.258789062 709 821.258789062 709 c 0,52,53
 793.258789062 712 793.258789062 712 739.758789062 712.5 c 128,-1,54
 686.258789062 713 686.258789062 713 636.258789062 712 c 1,0,-1
EndSplineSet
Validated: 524321
EndChar

StartChar: comma
Encoding: 44 44 12
Width: 1130
GlyphClass: 2
Flags: W
LayerCount: 2
Fore
SplineSet
421.7265625 -456 m 0,0,1
 387.7265625 -468 387.7265625 -468 364.7265625 -468 c 128,-1,2
 341.7265625 -468 341.7265625 -468 326.7265625 -462 c 0,3,4
 303.7265625 -454 303.7265625 -454 288.7265625 -430.5 c 128,-1,5
 273.7265625 -407 273.7265625 -407 276.7265625 -373 c 0,6,7
 277.7265625 -367 277.7265625 -367 278.7265625 -361 c 0,8,9
 285.7265625 -330 285.7265625 -330 312.7265625 -299 c 0,10,11
 363.7265625 -241 363.7265625 -241 480.7265625 -34 c 0,12,13
 596.7265625 170 596.7265625 170 631.7265625 253 c 0,14,15
 647.7265625 290 647.7265625 290 680.2265625 312 c 128,-1,16
 712.7265625 334 712.7265625 334 743.7265625 334 c 0,17,18
 745.7265625 334 745.7265625 334 748.7265625 335 c 0,19,20
 771.7265625 335 771.7265625 335 794.7265625 329 c 1,21,22
 829.7265625 316 829.7265625 316 845.7265625 282 c 0,23,24
 858.7265625 254 858.7265625 254 850.7265625 216 c 0,25,26
 847.7265625 202 847.7265625 202 842.7265625 192 c 0,27,28
 799.7265625 91 799.7265625 91 687.7265625 -120 c 0,29,30
 574.7265625 -333 574.7265625 -333 527.2265625 -384 c 128,-1,31
 479.7265625 -435 479.7265625 -435 421.7265625 -456 c 0,0,1
EndSplineSet
Validated: 524321
EndChar

StartChar: hyphen
Encoding: 45 45 13
Width: 1130
GlyphClass: 2
Flags: W
LayerCount: 2
Fore
SplineSet
374.33203125 700 m 0,0,1
 482.33203125 700 482.33203125 700 633.33203125 703 c 128,-1,2
 784.33203125 706 784.33203125 706 805.33203125 706 c 0,3,4
 860.33203125 706 860.33203125 706 877.33203125 678 c 128,-1,5
 894.33203125 650 894.33203125 650 886.33203125 606 c 1,6,-1
 885.33203125 605 l 1,7,8
 874.33203125 556 874.33203125 556 847.33203125 528 c 0,9,10
 811.33203125 490 811.33203125 490 755.33203125 490 c 0,11,12
 730.33203125 490 730.33203125 490 561.33203125 481 c 128,-1,13
 392.33203125 472 392.33203125 472 325.33203125 472 c 0,14,15
 280.33203125 472 280.33203125 472 259.33203125 495 c 0,16,17
 232.33203125 524 232.33203125 524 245.33203125 584 c 0,18,19
 246.33203125 589 246.33203125 589 248.33203125 594 c 0,20,21
 261.33203125 651 261.33203125 651 301.33203125 679 c 0,22,23
 331.33203125 700 331.33203125 700 374.33203125 700 c 0,0,1
EndSplineSet
Validated: 524321
EndChar

StartChar: period
Encoding: 46 46 14
Width: 1130
GlyphClass: 2
Flags: W
LayerCount: 2
Fore
SplineSet
507.44921875 -54 m 0,0,1
 440.44921875 -54 440.44921875 -54 406.44921875 -4 c 0,2,3
 368.44921875 53 368.44921875 53 385.94921875 129 c 128,-1,4
 403.44921875 205 403.44921875 205 471.44921875 257 c 0,5,6
 544.44921875 312 544.44921875 312 616.94921875 312 c 128,-1,7
 689.44921875 312 689.44921875 312 724.44921875 263 c 0,8,9
 761.44921875 211 761.44921875 211 743.94921875 135 c 128,-1,10
 726.44921875 59 726.44921875 59 666.94921875 7.5 c 128,-1,11
 607.44921875 -44 607.44921875 -44 528.44921875 -53 c 0,12,13
 517.44921875 -54 517.44921875 -54 507.44921875 -54 c 0,0,1
EndSplineSet
Validated: 524321
EndChar

StartChar: slash
Encoding: 47 47 15
Width: 1130
GlyphClass: 2
Flags: W
LayerCount: 2
Fore
SplineSet
19.4638671875 -138 m 0,0,1
 -11.5361328125 -151 -11.5361328125 -151 -37.5361328125 -151 c 128,-1,2
 -63.5361328125 -151 -63.5361328125 -151 -82.5361328125 -135 c 0,3,4
 -115.536132812 -111 -115.536132812 -111 -106.536132812 -41 c 0,5,6
 -105.536132812 -30 -105.536132812 -30 -102.536132812 -19 c 0,7,8
 -89.5361328125 35 -89.5361328125 35 -52.5361328125 83 c 0,9,10
 339.463867188 575 339.463867188 575 625.463867188 956 c 1,11,-1
 625.463867188 956 l 1,12,13
 803.463867188 1190 803.463867188 1190 1010.46386719 1488 c 0,14,15
 1037.46386719 1526 1037.46386719 1526 1073.46386719 1547 c 128,-1,16
 1109.46386719 1568 1109.46386719 1568 1140.46386719 1568 c 0,17,18
 1170.46386719 1568 1170.46386719 1568 1198.46386719 1554 c 1,19,20
 1237.46386719 1529 1237.46386719 1529 1238.46386719 1481 c 0,21,22
 1238.46386719 1467 1238.46386719 1467 1234.46386719 1451 c 0,23,24
 1226.46386719 1416 1226.46386719 1416 1199.46386719 1374 c 1,25,26
 1125.46386719 1268 1125.46386719 1268 801.963867188 859.5 c 128,-1,27
 478.463867188 451 478.463867188 451 406.463867188 352 c 0,28,29
 361.463867188 288 361.463867188 288 257.963867188 137 c 128,-1,30
 154.463867188 -14 154.463867188 -14 128.463867188 -47 c 0,31,32
 79.4638671875 -112 79.4638671875 -112 19.4638671875 -138 c 0,0,1
EndSplineSet
Validated: 524321
EndChar

StartChar: zero
Encoding: 48 48 16
Width: 1130
GlyphClass: 2
Flags: W
LayerCount: 2
Fore
SplineSet
1124.78320312 1005 m 2,0,1
 1122.78320312 996 1122.78320312 996 1124.78320312 1004 c 2,2,3
 1105.78320312 883 1105.78320312 883 1076.78320312 757.5 c 128,-1,4
 1047.78320312 632 1047.78320312 632 1012.28320312 511.5 c 128,-1,5
 976.783203125 391 976.783203125 391 943.783203125 322 c 0,6,7
 879.783203125 190 879.783203125 190 808.783203125 108 c 0,8,9
 773.783203125 67 773.783203125 67 733.283203125 38.5 c 128,-1,10
 692.783203125 10 692.783203125 10 652.783203125 -7 c 0,11,12
 611.783203125 -24 611.783203125 -24 560.783203125 -34 c 0,13,14
 508.783203125 -44 508.783203125 -44 460.783203125 -47 c 128,-1,15
 412.783203125 -50 412.783203125 -50 349.783203125 -50 c 2,16,-1
 349.783203125 -50 l 1,17,18
 246.783203125 -49 246.783203125 -49 167.783203125 -14 c 0,19,20
 93.783203125 21 93.783203125 21 51.283203125 85 c 128,-1,21
 8.783203125 149 8.783203125 149 -0.716796875 239.5 c 128,-1,22
 -10.216796875 330 -10.216796875 330 13.783203125 434 c 0,23,24
 14.783203125 440 14.783203125 440 16.783203125 447 c 2,25,26
 38.783203125 546 38.783203125 546 58.783203125 635 c 2,27,28
 73.783203125 698 73.783203125 698 97.783203125 790 c 128,-1,29
 121.783203125 882 121.783203125 882 142.283203125 942.5 c 128,-1,30
 162.783203125 1003 162.783203125 1003 192.783203125 1073 c 0,31,32
 223.783203125 1145 223.783203125 1145 254.783203125 1198 c 0,33,34
 334.783203125 1332 334.783203125 1332 466.783203125 1401 c 0,35,36
 609.783203125 1470 609.783203125 1470 787.783203125 1470 c 0,37,38
 876.783203125 1470 876.783203125 1470 948.783203125 1441 c 0,39,40
 1018.78320312 1412 1018.78320312 1412 1063.78320312 1355 c 128,-1,41
 1108.78320312 1298 1108.78320312 1298 1125.28320312 1208.5 c 128,-1,42
 1141.78320312 1119 1141.78320312 1119 1124.78320312 1005 c 2,0,1
806.783203125 1228 m 0,43,44
 763.783203125 1254 763.783203125 1254 704.783203125 1254 c 0,45,46
 598.783203125 1254 598.783203125 1254 527.783203125 1197 c 128,-1,47
 456.783203125 1140 456.783203125 1140 393.783203125 1005 c 0,48,49
 368.783203125 952 368.783203125 952 348.783203125 892 c 0,50,51
 329.783203125 832 329.783203125 832 312.783203125 754 c 0,52,53
 284.783203125 632 284.783203125 632 252.783203125 470 c 1,54,55
 579.783203125 810 579.783203125 810 866.783203125 1167 c 1,56,57
 843.783203125 1206 843.783203125 1206 806.783203125 1228 c 0,43,44
888.783203125 937 m 1,58,59
 590.783203125 546 590.783203125 546 255.783203125 270 c 1,60,61
 284.783203125 173 284.783203125 173 400.783203125 173 c 0,62,63
 455.783203125 173 455.783203125 173 498.283203125 181.5 c 128,-1,64
 540.783203125 190 540.783203125 190 581.783203125 211 c 0,65,66
 663.783203125 253 663.783203125 253 729.783203125 376 c 0,67,68
 742.783203125 400 742.783203125 400 777.283203125 507.5 c 128,-1,69
 811.783203125 615 811.783203125 615 848.783203125 758 c 0,70,71
 871.783203125 850 871.783203125 850 888.783203125 937 c 1,58,59
EndSplineSet
Validated: 524325
EndChar

StartChar: one
Encoding: 49 49 17
Width: 1130
GlyphClass: 2
Flags: W
LayerCount: 2
Fore
SplineSet
1075.8515625 103 m 2,0,1
 1074.8515625 99 1074.8515625 99 1073.8515625 96 c 0,2,3
 1062.8515625 50 1062.8515625 50 1028.8515625 17 c 0,4,5
 991.8515625 -18 991.8515625 -18 924.8515625 -18 c 0,6,7
 203.8515625 -11 203.8515625 -11 133.8515625 -11 c 0,8,9
 79.8515625 -11 79.8515625 -11 61.8515625 23 c 0,10,11
 44.8515625 55 44.8515625 55 54.8515625 101 c 0,12,13
 55.8515625 105 55.8515625 105 56.8515625 109 c 0,14,15
 66.8515625 154 66.8515625 154 96.8515625 186 c 0,16,17
 132.8515625 223 132.8515625 223 189.8515625 223 c 0,18,19
 270.8515625 223 270.8515625 223 472.8515625 219 c 1,20,21
 486.8515625 279 486.8515625 279 493.8515625 321 c 0,22,23
 495.8515625 339 495.8515625 339 516.8515625 427 c 2,24,25
 535.8515625 504 535.8515625 504 547.8515625 555 c 2,26,27
 561.8515625 611 561.8515625 611 606.8515625 776 c 0,28,29
 690.8515625 1087 690.8515625 1087 704.8515625 1139 c 1,30,31
 560.8515625 1046 560.8515625 1046 490.8515625 1022 c 0,32,33
 465.8515625 1016 465.8515625 1016 458.8515625 1015 c 0,34,35
 458.8515625 1015 458.8515625 1015 457.8515625 1016 c 0,36,37
 422.8515625 1016 422.8515625 1016 395.8515625 1046 c 0,38,39
 359.8515625 1087 359.8515625 1087 370.8515625 1131 c 0,40,41
 379.8515625 1171 379.8515625 1171 403.8515625 1201.5 c 128,-1,42
 427.8515625 1232 427.8515625 1232 471.8515625 1261 c 0,43,44
 534.8515625 1303 534.8515625 1303 640.8515625 1376 c 2,45,46
 677.8515625 1383 677.8515625 1383 724.8515625 1432 c 2,47,48
 761.8515625 1457 761.8515625 1457 801.8515625 1476 c 0,49,50
 840.8515625 1496 840.8515625 1496 871.8515625 1496 c 0,51,52
 925.8515625 1496 925.8515625 1496 969.8515625 1455 c 0,53,54
 993.8515625 1433 993.8515625 1433 1002.8515625 1413.5 c 128,-1,55
 1011.8515625 1394 1011.8515625 1394 1007.8515625 1376 c 2,56,57
 1002.8515625 1356 1002.8515625 1356 1007.8515625 1375 c 2,58,59
 995.8515625 1329 995.8515625 1329 920.3515625 1052.5 c 128,-1,60
 844.8515625 776 844.8515625 776 833.8515625 730 c 0,61,62
 788.8515625 534 788.8515625 534 759.8515625 401 c 2,63,64
 763.8515625 418 763.8515625 418 759.8515625 400 c 2,65,66
 744.8515625 333 744.8515625 333 720.8515625 211 c 1,67,68
 823.8515625 209 823.8515625 209 850.8515625 209 c 0,69,70
 877.8515625 208 877.8515625 208 922.3515625 207 c 128,-1,71
 966.8515625 206 966.8515625 206 979.8515625 206 c 0,72,73
 1042.8515625 206 1042.8515625 206 1062.8515625 177 c 128,-1,74
 1082.8515625 148 1082.8515625 148 1075.8515625 103 c 2,75,76
 1081.8515625 128 1081.8515625 128 1075.8515625 103 c 2,0,1
EndSplineSet
Validated: 524329
EndChar

StartChar: two
Encoding: 50 50 18
Width: 1130
GlyphClass: 2
Flags: W
LayerCount: 2
Fore
SplineSet
834.51171875 206 m 1,0,-1
 835.51171875 206 l 1,1,2
 861.51171875 232 861.51171875 232 875.51171875 208 c 2,3,4
 881.51171875 208 881.51171875 208 897.51171875 207.5 c 128,-1,5
 913.51171875 207 913.51171875 207 922.01171875 201.5 c 128,-1,6
 930.51171875 196 930.51171875 196 938.51171875 190 c 0,7,8
 951.51171875 181 951.51171875 181 954.51171875 165 c 0,9,10
 959.51171875 141 959.51171875 141 952.51171875 109 c 0,11,12
 938.51171875 49 938.51171875 49 900.51171875 9 c 0,13,14
 869.51171875 -24 869.51171875 -24 833.51171875 -24 c 0,15,16
 699.51171875 -24 699.51171875 -24 396.51171875 -36 c 0,17,18
 294.51171875 -40 294.51171875 -40 188.51171875 -40 c 0,19,20
 89.51171875 -40 89.51171875 -40 35.51171875 -33 c 0,21,22
 5.51171875 -29 5.51171875 -29 -11.48828125 -7 c 0,23,24
 -23.48828125 10 -23.48828125 10 -28.48828125 36 c 0,25,26
 -35.48828125 89 -35.48828125 89 -13.98828125 183.5 c 128,-1,27
 7.51171875 278 7.51171875 278 67.01171875 374 c 128,-1,28
 126.51171875 470 126.51171875 470 219.01171875 559.5 c 128,-1,29
 311.51171875 649 311.51171875 649 425.51171875 704 c 0,30,31
 675.51171875 822 675.51171875 822 749.51171875 868 c 0,32,33
 841.51171875 926 841.51171875 926 876.51171875 990 c 0,34,35
 896.51171875 1028 896.51171875 1028 909.51171875 1086 c 0,36,37
 930.51171875 1176 930.51171875 1176 886.51171875 1215 c 0,38,39
 840.51171875 1256 840.51171875 1256 731.51171875 1256 c 0,40,41
 657.51171875 1256 657.51171875 1256 579.01171875 1211 c 128,-1,42
 500.51171875 1166 500.51171875 1166 449.51171875 1109 c 0,43,44
 423.51171875 1080 423.51171875 1080 399.01171875 1061.5 c 128,-1,45
 374.51171875 1043 374.51171875 1043 349.51171875 1040 c 0,46,47
 342.51171875 1039 342.51171875 1039 332.51171875 1039 c 0,48,49
 312.51171875 1039 312.51171875 1039 275.51171875 1058 c 1,50,51
 238.51171875 1082 238.51171875 1082 237.51171875 1128 c 0,52,53
 237.51171875 1139 237.51171875 1139 240.51171875 1152 c 0,54,55
 248.51171875 1188 248.51171875 1188 280.51171875 1235 c 1,56,57
 310.51171875 1278 310.51171875 1278 360.51171875 1320 c 128,-1,58
 410.51171875 1362 410.51171875 1362 471.51171875 1398 c 0,59,60
 535.51171875 1434 535.51171875 1434 616.51171875 1456.5 c 128,-1,61
 697.51171875 1479 697.51171875 1479 774.51171875 1479 c 0,62,63
 1009.51171875 1479 1009.51171875 1479 1101.51171875 1374 c 0,64,65
 1191.51171875 1269 1191.51171875 1269 1143.51171875 1060 c 0,66,67
 1103.51171875 889 1103.51171875 889 993.51171875 783 c 0,68,69
 913.51171875 707 913.51171875 707 726.51171875 616 c 0,70,71
 678.51171875 593 678.51171875 593 564.51171875 542 c 0,72,73
 468.51171875 499 468.51171875 499 397.01171875 436.5 c 128,-1,74
 325.51171875 374 325.51171875 374 284.51171875 309 c 0,75,76
 250.51171875 253 250.51171875 253 228.51171875 191 c 1,77,78
 339.51171875 186 339.51171875 186 440.01171875 185.5 c 128,-1,79
 540.51171875 185 540.51171875 185 597.51171875 189 c 0,80,81
 653.51171875 192 653.51171875 192 834.51171875 206 c 1,0,-1
EndSplineSet
Validated: 524321
EndChar

StartChar: three
Encoding: 51 51 19
Width: 1130
GlyphClass: 2
Flags: W
LayerCount: 2
Fore
SplineSet
1015.79492188 572 m 128,-1,1
 1022.29492188 506 1022.29492188 506 1001.29492188 417 c 0,2,3
 952.294921875 202 952.294921875 202 795.294921875 76 c 0,4,5
 635.294921875 -50 635.294921875 -50 386.294921875 -50 c 0,6,7
 308.294921875 -50 308.294921875 -50 237.294921875 -27 c 0,8,9
 166.294921875 -4 166.294921875 -4 122.294921875 31 c 128,-1,10
 78.294921875 66 78.294921875 66 48.294921875 109 c 0,11,12
 17.294921875 152 17.294921875 152 7.294921875 193.5 c 128,-1,13
 -2.705078125 235 -2.705078125 235 6.294921875 272 c 0,14,15
 9.294921875 285 9.294921875 285 14.294921875 297 c 0,16,17
 35.294921875 347 35.294921875 347 82.294921875 369 c 0,18,19
 116.294921875 385 116.294921875 385 144.294921875 386 c 0,20,21
 201.294921875 386 201.294921875 386 231.294921875 320 c 0,22,23
 259.294921875 262 259.294921875 262 315.794921875 217.5 c 128,-1,24
 372.294921875 173 372.294921875 173 447.294921875 173 c 0,25,26
 562.294921875 173 562.294921875 173 648.794921875 233 c 128,-1,27
 735.294921875 293 735.294921875 293 757.294921875 385 c 0,28,29
 771.294921875 444 771.294921875 444 761.794921875 486 c 128,-1,30
 752.294921875 528 752.294921875 528 718.294921875 560 c 128,-1,31
 684.294921875 592 684.294921875 592 613.294921875 609 c 128,-1,32
 542.294921875 626 542.294921875 626 434.294921875 626 c 0,33,34
 380.294921875 626 380.294921875 626 351.294921875 667 c 0,35,36
 323.294921875 708 323.294921875 708 335.294921875 760 c 128,-1,37
 347.294921875 812 347.294921875 812 382.294921875 846 c 0,38,39
 421.294921875 882 421.294921875 882 477.294921875 882 c 0,40,41
 645.294921875 882 645.294921875 882 752.294921875 942 c 0,42,43
 851.294921875 997 851.294921875 997 875.294921875 1102 c 0,44,45
 876.294921875 1105 876.294921875 1105 877.294921875 1108 c 2,46,47
 874.294921875 1094 874.294921875 1094 877.294921875 1109 c 2,48,49
 878.294921875 1113 878.294921875 1113 879.294921875 1116 c 0,50,51
 895.294921875 1185 895.294921875 1185 848.294921875 1218 c 0,52,53
 795.294921875 1256 795.294921875 1256 674.294921875 1256 c 0,54,55
 637.294921875 1256 637.294921875 1256 593.294921875 1243 c 0,56,57
 580.294921875 1239 580.294921875 1239 562.294921875 1227.5 c 128,-1,58
 544.294921875 1216 544.294921875 1216 534.294921875 1209.5 c 128,-1,59
 524.294921875 1203 524.294921875 1203 506.294921875 1186 c 128,-1,60
 488.294921875 1169 488.294921875 1169 481.294921875 1162 c 2,61,62
 461.294921875 1122 461.294921875 1122 453.294921875 1132 c 1,63,64
 403.294921875 1080 403.294921875 1080 361.294921875 1069 c 0,65,66
 348.294921875 1066 348.294921875 1066 335.294921875 1066 c 0,67,68
 306.294921875 1066 306.294921875 1066 279.294921875 1083 c 0,69,70
 242.294921875 1105 242.294921875 1105 245.294921875 1155 c 0,71,72
 245.294921875 1167 245.294921875 1167 248.294921875 1180 c 0,73,74
 256.294921875 1216 256.294921875 1216 286.294921875 1259 c 0,75,76
 347.294921875 1346 347.294921875 1346 445.294921875 1409 c 0,77,78
 497.294921875 1442 497.294921875 1442 567.294921875 1460 c 0,79,80
 639.294921875 1479 639.294921875 1479 716.294921875 1479 c 0,81,82
 967.294921875 1479 967.294921875 1479 1065.29492188 1378 c 0,83,84
 1158.29492188 1277 1158.29492188 1277 1113.29492188 1086 c 0,85,86
 1112.29492188 1081 1112.29492188 1081 1111.29492188 1077.5 c 128,-1,87
 1110.29492188 1074 1110.29492188 1074 1109.29492188 1070 c 0,88,89
 1096.29492188 1013 1096.29492188 1013 1069.29492188 963.5 c 128,-1,90
 1042.29492188 914 1042.29492188 914 1006.29492188 879 c 128,-1,91
 970.294921875 844 970.294921875 844 926.294921875 817.5 c 128,-1,92
 882.294921875 791 882.294921875 791 838.294921875 777 c 1,93,94
 866.294921875 767 866.294921875 767 889.294921875 755 c 0,95,96
 941.294921875 728 941.294921875 728 975.294921875 683 c 128,-1,0
 1009.29492188 638 1009.29492188 638 1015.79492188 572 c 128,-1,1
EndSplineSet
Validated: 524325
EndChar

StartChar: four
Encoding: 52 52 20
Width: 1130
GlyphClass: 2
Flags: W
LayerCount: 2
Fore
SplineSet
588.1171875 633 m 0,0,1
 649.1171875 633 649.1171875 633 717.1171875 632 c 1,2,3
 799.1171875 986 799.1171875 986 837.1171875 1206 c 1,4,5
 482.1171875 839 482.1171875 839 329.1171875 627 c 1,6,7
 437.1171875 633 437.1171875 633 588.1171875 633 c 0,0,1
803.1171875 122 m 0,8,9
 802.1171875 98 802.1171875 98 797.1171875 76 c 0,10,11
 788.1171875 36 788.1171875 36 765.1171875 4 c 0,12,13
 728.1171875 -48 728.1171875 -48 680.1171875 -48 c 0,14,15
 640.1171875 -48 640.1171875 -48 608.6171875 -16 c 128,-1,16
 577.1171875 16 577.1171875 16 583.1171875 51 c 2,17,18
 585.1171875 59 585.1171875 59 583.1171875 52 c 2,19,20
 588.1171875 76 588.1171875 76 600.1171875 129 c 0,21,22
 636.1171875 284 636.1171875 284 636.1171875 284 c 2,23,24
 656.1171875 368 656.1171875 368 675.1171875 448 c 1,25,26
 630.1171875 449 630.1171875 449 589.1171875 449 c 0,27,28
 306.1171875 449 306.1171875 449 185.1171875 422 c 0,29,30
 170.1171875 419 170.1171875 419 155.1171875 419 c 128,-1,31
 140.1171875 419 140.1171875 419 126.1171875 425 c 0,32,33
 101.1171875 435 101.1171875 435 90.6171875 456.5 c 128,-1,34
 80.1171875 478 80.1171875 478 78.1171875 505 c 128,-1,35
 76.1171875 532 76.1171875 532 82.1171875 561 c 0,36,37
 90.1171875 594 90.1171875 594 106.1171875 622 c 0,38,39
 139.1171875 681 139.1171875 681 252.6171875 809.5 c 128,-1,40
 366.1171875 938 366.1171875 938 546.1171875 1128 c 0,41,42
 706.1171875 1296 706.1171875 1296 804.1171875 1404 c 0,43,44
 840.1171875 1443 840.1171875 1443 879.6171875 1464 c 128,-1,45
 919.1171875 1485 919.1171875 1485 950.1171875 1485 c 0,46,47
 961.1171875 1486 961.1171875 1486 965.1171875 1486 c 0,48,49
 999.1171875 1486 999.1171875 1486 1024.1171875 1470 c 0,50,51
 1055.1171875 1449 1055.1171875 1449 1052.1171875 1400 c 2,52,53
 1050.1171875 1391 1050.1171875 1391 1052.1171875 1400 c 2,54,55
 1047.1171875 1328 1047.1171875 1328 1020.1171875 1180.5 c 128,-1,56
 993.1171875 1033 993.1171875 1033 971.1171875 931 c 2,57,58
 939.1171875 780 939.1171875 780 907.1171875 631 c 1,59,60
 936.1171875 630 936.1171875 630 970.1171875 629 c 0,61,62
 1019.1171875 629 1019.1171875 629 1033.6171875 605.5 c 128,-1,63
 1048.1171875 582 1048.1171875 582 1041.1171875 544 c 2,64,65
 1041.1171875 546 1041.1171875 546 1041.1171875 544 c 2,66,67
 1031.1171875 501 1031.1171875 501 1008.1171875 476 c 0,68,69
 978.1171875 445 978.1171875 445 927.1171875 445 c 0,70,71
 894.1171875 445 894.1171875 445 866.1171875 446 c 1,72,73
 804.1171875 163 804.1171875 163 803.1171875 122 c 0,8,9
EndSplineSet
Validated: 524329
EndChar

StartChar: five
Encoding: 53 53 21
Width: 1130
GlyphClass: 2
Flags: W
LayerCount: 2
Fore
SplineSet
185.280273438 1149 m 0,0,1
 204.280273438 1213 204.280273438 1213 211.280273438 1243 c 1,2,3
 199.280273438 1280 199.280273438 1280 211.280273438 1329 c 0,4,5
 226.280273438 1394 226.280273438 1394 272.280273438 1432 c 0,6,7
 304.280273438 1459 304.280273438 1459 341.280273438 1459 c 0,8,9
 412.280273438 1458 412.280273438 1458 694.280273438 1454 c 0,10,11
 980.280273438 1450 980.280273438 1450 1118.28027344 1450 c 0,12,13
 1154.28027344 1450 1154.28027344 1450 1169.28027344 1417 c 0,14,15
 1188.28027344 1377 1188.28027344 1377 1174.28027344 1317 c 0,16,17
 1160.28027344 1257 1160.28027344 1257 1123.28027344 1236 c 0,18,19
 1112.28027344 1230 1112.28027344 1230 1101.78027344 1225 c 128,-1,20
 1091.28027344 1220 1091.28027344 1220 1074.78027344 1219 c 128,-1,21
 1058.28027344 1218 1058.28027344 1218 1051.78027344 1218 c 128,-1,22
 1045.28027344 1218 1045.28027344 1218 1031.28027344 1219.5 c 128,-1,23
 1017.28027344 1221 1017.28027344 1221 1013.28027344 1221 c 2,24,25
 1007.28027344 1196 1007.28027344 1196 1013.28027344 1221 c 2,26,27
 986.280273438 1222 986.280273438 1222 915.280273438 1228 c 0,28,29
 841.280273438 1234 841.280273438 1234 784.280273438 1237.5 c 128,-1,30
 727.280273438 1241 727.280273438 1241 629.280273438 1241 c 128,-1,31
 531.280273438 1241 531.280273438 1241 429.280273438 1235 c 1,32,33
 387.280273438 1082 387.280273438 1082 379.280273438 1051 c 0,34,35
 370.280273438 1014 370.280273438 1014 366.280273438 998 c 128,-1,36
 362.280273438 982 362.280273438 982 356.280273438 954 c 1,37,38
 418.280273438 995 418.280273438 995 497.280273438 1025 c 0,39,40
 611.280273438 1068 611.280273438 1068 744.280273438 1068 c 0,41,42
 842.280273438 1068 842.280273438 1068 912.280273438 1032 c 0,43,44
 976.280273438 996 976.280273438 996 1009.28027344 934.5 c 128,-1,45
 1042.28027344 873 1042.28027344 873 1048.28027344 792 c 128,-1,46
 1054.28027344 711 1054.28027344 711 1032.28027344 617 c 0,47,48
 997.280273438 465 997.280273438 465 932.280273438 341.5 c 128,-1,49
 867.280273438 218 867.280273438 218 780.780273438 134.5 c 128,-1,50
 694.280273438 51 694.280273438 51 583.280273438 7 c 0,51,52
 471.280273438 -37 471.280273438 -37 348.280273438 -37 c 0,53,54
 253.280273438 -37 253.280273438 -37 177.280273438 -17 c 0,55,56
 102.280273438 3 102.280273438 3 59.7802734375 36.5 c 128,-1,57
 17.2802734375 70 17.2802734375 70 -7.7197265625 108.5 c 128,-1,58
 -32.7197265625 147 -32.7197265625 147 -45.7197265625 191 c 1,59,60
 -54.7197265625 239 -54.7197265625 239 -45.7197265625 275 c 0,61,62
 -42.7197265625 288 -42.7197265625 288 -38.7197265625 298 c 0,63,64
 -17.7197265625 344 -17.7197265625 344 31.2802734375 368 c 1,65,66
 57.2802734375 379 57.2802734375 379 72.2802734375 383 c 128,-1,67
 87.2802734375 387 87.2802734375 387 97.2802734375 387 c 128,-1,68
 107.280273438 387 107.280273438 387 114.280273438 386 c 0,69,70
 138.280273438 383 138.280273438 383 153.280273438 363 c 0,71,72
 166.280273438 347 166.280273438 347 179.280273438 317 c 1,73,74
 235.280273438 186 235.280273438 186 379.780273438 186 c 128,-1,75
 524.280273438 186 524.280273438 186 633.280273438 293 c 0,76,77
 745.280273438 403 745.280273438 403 790.280273438 592 c 0,78,79
 816.280273438 706 816.280273438 706 778.280273438 773 c 0,80,81
 742.280273438 836 742.280273438 836 637.280273438 836 c 0,82,83
 587.280273438 836 587.280273438 836 530.280273438 824 c 0,84,85
 501.280273438 818 501.280273438 818 449.280273438 794 c 0,86,87
 437.280273438 789 437.280273438 789 414.780273438 774 c 128,-1,88
 392.280273438 759 392.280273438 759 385.280273438 753 c 0,89,90
 346.280273438 724 346.280273438 724 321.280273438 705 c 1,91,92
 268.280273438 667 268.280273438 667 210.280273438 660 c 0,93,94
 203.280273438 659 203.280273438 659 196.280273438 659 c 0,95,96
 169.280273438 659 169.280273438 659 146.280273438 671 c 0,97,98
 110.280273438 690 110.280273438 690 104.280273438 750 c 0,99,100
 99.2802734375 802 99.2802734375 802 113.280273438 876 c 0,101,102
 119.280273438 908 119.280273438 908 127.280273438 942 c 0,103,104
 144.280273438 1013 144.280273438 1013 185.280273438 1149 c 0,0,1
EndSplineSet
Validated: 524321
EndChar

StartChar: six
Encoding: 54 54 22
Width: 1130
GlyphClass: 2
Flags: W
LayerCount: 2
Fore
SplineSet
1077.72851562 739 m 128,-1,1
 1083.72851562 643 1083.72851562 643 1053.72851562 516 c 0,2,3
 1026.72851562 400 1026.72851562 400 966.728515625 296 c 0,4,5
 843.728515625 86 843.728515625 86 638.728515625 -2 c 0,6,7
 530.728515625 -46 530.728515625 -46 420.728515625 -46 c 0,8,9
 286.728515625 -46 286.728515625 -46 196.728515625 4 c 0,10,11
 111.728515625 54 111.728515625 54 74.228515625 147 c 128,-1,12
 36.728515625 240 36.728515625 240 37.728515625 362 c 128,-1,13
 38.728515625 484 38.728515625 484 71.728515625 629 c 0,14,15
 114.728515625 814 114.728515625 814 180.728515625 958 c 128,-1,16
 246.728515625 1102 246.728515625 1102 325.728515625 1199 c 128,-1,17
 404.728515625 1296 404.728515625 1296 505.728515625 1363 c 0,18,19
 611.728515625 1430 611.728515625 1430 723.728515625 1464.5 c 128,-1,20
 835.728515625 1499 835.728515625 1499 964.728515625 1509 c 0,21,22
 974.728515625 1510 974.728515625 1510 984.728515625 1510 c 0,23,24
 1027.72851562 1510 1027.72851562 1510 1057.72851562 1493 c 0,25,26
 1096.72851562 1471 1096.72851562 1471 1091.72851562 1421 c 0,27,28
 1091.72851562 1417 1091.72851562 1417 1089.72851562 1413 c 0,29,30
 1082.72851562 1382 1082.72851562 1382 1046.72851562 1350 c 0,31,32
 1008.72851562 1317 1008.72851562 1317 966.728515625 1306 c 0,33,34
 942.728515625 1300 942.728515625 1300 892.728515625 1290.5 c 128,-1,35
 842.728515625 1281 842.728515625 1281 808.728515625 1272 c 128,-1,36
 774.728515625 1263 774.728515625 1263 727.728515625 1247 c 0,37,38
 636.728515625 1215 636.728515625 1215 529.728515625 1122 c 0,39,40
 475.728515625 1073 475.728515625 1073 418.728515625 989 c 0,41,42
 391.728515625 947 391.728515625 947 370.728515625 909 c 1,43,44
 430.728515625 947 430.728515625 947 501.728515625 971 c 0,45,46
 618.728515625 1011 618.728515625 1011 749.728515625 1011 c 0,47,48
 850.728515625 1011 850.728515625 1011 923.728515625 983 c 0,49,50
 990.728515625 955 990.728515625 955 1031.22851562 895 c 128,-1,0
 1071.72851562 835 1071.72851562 835 1077.72851562 739 c 128,-1,1
381.228515625 195 m 128,-1,52
 420.728515625 177 420.728515625 177 469.728515625 177 c 0,53,54
 471.728515625 177 471.728515625 177 473.728515625 177 c 2,55,-1
 474.728515625 177 l 2,56,57
 541.728515625 177 541.728515625 177 615.728515625 223.5 c 128,-1,58
 689.728515625 270 689.728515625 270 743.728515625 343.5 c 128,-1,59
 797.728515625 417 797.728515625 417 815.728515625 492 c 0,60,61
 855.728515625 667 855.728515625 667 805.728515625 725 c 0,62,63
 780.728515625 755 780.728515625 755 742.228515625 767 c 128,-1,64
 703.728515625 779 703.728515625 779 641.728515625 779 c 0,65,66
 543.728515625 779 543.728515625 779 448.728515625 732 c 0,67,68
 354.728515625 685 354.728515625 685 286.728515625 615 c 1,69,70
 268.728515625 537 268.728515625 537 259.728515625 485 c 0,71,72
 246.728515625 398 246.728515625 398 276.728515625 318 c 0,73,74
 291.728515625 276 291.728515625 276 316.728515625 244.5 c 128,-1,51
 341.728515625 213 341.728515625 213 381.228515625 195 c 128,-1,52
EndSplineSet
Validated: 524321
EndChar

StartChar: seven
Encoding: 55 55 23
Width: 1130
GlyphClass: 2
Flags: W
LayerCount: 2
Fore
SplineSet
516.376953125 1231 m 0,0,1
 327.376953125 1226 327.376953125 1226 269.376953125 1212 c 0,2,3
 256.376953125 1209 256.376953125 1209 242.376953125 1208.5 c 128,-1,4
 228.376953125 1208 228.376953125 1208 214.376953125 1214 c 0,5,6
 192.376953125 1224 192.376953125 1224 183.376953125 1245 c 0,7,8
 166.376953125 1282 166.376953125 1282 174.376953125 1329 c 1,9,10
 169.376953125 1309 169.376953125 1309 174.376953125 1331 c 1,11,12
 184.376953125 1375 184.376953125 1375 213.376953125 1402 c 0,13,14
 243.376953125 1430 243.376953125 1430 300.376953125 1442 c 0,15,16
 408.376953125 1463 408.376953125 1463 650.376953125 1462 c 0,17,18
 750.376953125 1462 750.376953125 1462 921.376953125 1455 c 0,19,20
 1083.37695312 1448 1083.37695312 1448 1090.37695312 1448 c 0,21,22
 1114.37695312 1448 1114.37695312 1448 1136.37695312 1436.5 c 128,-1,23
 1158.37695312 1425 1158.37695312 1425 1173.37695312 1400 c 0,24,25
 1189.37695312 1373 1189.37695312 1373 1179.37695312 1332 c 0,26,27
 1171.37695312 1296 1171.37695312 1296 1140.37695312 1250 c 0,28,29
 1098.37695312 1189 1098.37695312 1189 1000.87695312 1069 c 128,-1,30
 903.376953125 949 903.376953125 949 796.376953125 823 c 0,31,32
 685.376953125 698 685.376953125 698 519.876953125 490.5 c 128,-1,33
 354.376953125 283 354.376953125 283 198.376953125 65 c 0,34,35
 157.376953125 6 157.376953125 6 104.376953125 -23 c 0,36,37
 63.376953125 -48 63.376953125 -48 28.376953125 -48 c 0,38,39
 17.376953125 -48 17.376953125 -48 7.376953125 -45 c 0,40,41
 -41.623046875 -33 -41.623046875 -33 -51.623046875 17 c 0,42,43
 -55.623046875 39 -55.623046875 39 -49.623046875 64.5 c 128,-1,44
 -43.623046875 90 -43.623046875 90 -23.623046875 120 c 0,45,46
 121.376953125 325 121.376953125 325 285.376953125 528 c 0,47,48
 453.376953125 730 453.376953125 730 560.876953125 850 c 128,-1,49
 668.376953125 970 668.376953125 970 750.876953125 1070 c 128,-1,50
 833.376953125 1170 833.376953125 1170 873.376953125 1231 c 1,51,52
 710.376953125 1236 710.376953125 1236 516.376953125 1231 c 0,0,1
EndSplineSet
Validated: 524321
EndChar

StartChar: eight
Encoding: 56 56 24
Width: 1130
GlyphClass: 2
Flags: W
LayerCount: 2
Fore
SplineSet
1062.4375 503.5 m 128,-1,1
 1060.9375 466 1060.9375 466 1051.9375 427 c 0,2,3
 1036.9375 360 1036.9375 360 1003.9375 293.5 c 128,-1,4
 970.9375 227 970.9375 227 915.9375 163 c 128,-1,5
 860.9375 99 860.9375 99 791.9375 51 c 0,6,7
 721.9375 3 721.9375 3 617.9375 -27 c 128,-1,8
 513.9375 -57 513.9375 -57 400.4375 -57 c 128,-1,9
 286.9375 -57 286.9375 -57 204.9375 -29 c 0,10,11
 124.9375 -1 124.9375 -1 83.4375 46 c 128,-1,12
 41.9375 93 41.9375 93 21.4375 155.5 c 128,-1,13
 0.9375 218 0.9375 218 1.4375 281 c 128,-1,14
 1.9375 344 1.9375 344 17.9375 413.5 c 128,-1,15
 33.9375 483 33.9375 483 87.4375 564.5 c 128,-1,16
 140.9375 646 140.9375 646 221.9375 715 c 0,17,18
 279.9375 764 279.9375 764 339.9375 792 c 1,19,20
 274.9375 838 274.9375 838 243.9375 905 c 0,21,22
 202.9375 991 202.9375 991 223.9375 1082 c 0,23,24
 229.9375 1108 229.9375 1108 240.4375 1137 c 128,-1,25
 250.9375 1166 250.9375 1166 271.9375 1204.5 c 128,-1,26
 292.9375 1243 292.9375 1243 319.9375 1279 c 128,-1,27
 346.9375 1315 346.9375 1315 388.4375 1350.5 c 128,-1,28
 429.9375 1386 429.9375 1386 478.9375 1412 c 0,29,30
 531.9375 1438 531.9375 1438 603.9375 1454 c 0,31,32
 675.9375 1470 675.9375 1470 757.9375 1470 c 128,-1,33
 839.9375 1470 839.9375 1470 904.9375 1454 c 0,34,35
 969.9375 1438 969.9375 1438 1011.9375 1412 c 0,36,37
 1052.9375 1386 1052.9375 1386 1078.4375 1350.5 c 128,-1,38
 1103.9375 1315 1103.9375 1315 1114.4375 1279 c 128,-1,39
 1124.9375 1243 1124.9375 1243 1127.4375 1203 c 128,-1,40
 1129.9375 1163 1129.9375 1163 1126.9375 1133 c 128,-1,41
 1123.9375 1103 1123.9375 1103 1117.4375 1075 c 128,-1,42
 1110.9375 1047 1110.9375 1047 1098.4375 1021 c 128,-1,43
 1085.9375 995 1085.9375 995 1070.9375 974.5 c 128,-1,44
 1055.9375 954 1055.9375 954 1034.4375 932.5 c 128,-1,45
 1012.9375 911 1012.9375 911 995.4375 896.5 c 128,-1,46
 977.9375 882 977.9375 882 951.4375 864 c 128,-1,47
 924.9375 846 924.9375 846 909.9375 837 c 0,48,49
 893.9375 828 893.9375 828 869.9375 814 c 1,50,51
 917.9375 789 917.9375 789 950.9375 758 c 0,52,53
 996.9375 716 996.9375 716 1020.4375 675 c 128,-1,54
 1043.9375 634 1043.9375 634 1053.9375 587.5 c 128,-1,0
 1063.9375 541 1063.9375 541 1062.4375 503.5 c 128,-1,1
547.4375 1211.5 m 128,-1,56
 469.9375 1150 469.9375 1150 452.9375 1077 c 0,57,58
 439.9375 1021 439.9375 1021 483.9375 976 c 0,59,60
 530.9375 928 530.9375 928 653.9375 878 c 1,61,62
 737.9375 910 737.9375 910 808.9375 963.5 c 128,-1,63
 879.9375 1017 879.9375 1017 889.9375 1057 c 0,64,65
 901.9375 1107 901.9375 1107 883.4375 1157 c 128,-1,66
 864.9375 1207 864.9375 1207 819.4375 1240 c 128,-1,67
 773.9375 1273 773.9375 1273 714.9375 1273 c 0,68,69
 712.9375 1273 712.9375 1273 711.9375 1273 c 2,70,-1
 711.9375 1273 l 2,71,55
 624.9375 1273 624.9375 1273 547.4375 1211.5 c 128,-1,56
326.9375 198 m 0,72,73
 386.9375 168 386.9375 168 462.9375 168 c 0,74,75
 516.9375 168 516.9375 168 574.9375 184.5 c 128,-1,76
 632.9375 201 632.9375 201 684.4375 231.5 c 128,-1,77
 735.9375 262 735.9375 262 773.9375 309 c 0,78,79
 810.9375 356 810.9375 356 823.9375 411 c 0,80,81
 830.9375 442 830.9375 442 832.9375 468 c 0,82,83
 833.9375 495 833.9375 495 824.4375 530 c 128,-1,84
 814.9375 565 814.9375 565 791.4375 595.5 c 128,-1,85
 767.9375 626 767.9375 626 720.9375 659.5 c 128,-1,86
 673.9375 693 673.9375 693 606.9375 720 c 1,87,88
 460.9375 682 460.9375 682 354.9375 594 c 0,89,90
 250.9375 505 250.9375 505 227.9375 406 c 0,91,92
 211.9375 338 211.9375 338 239.9375 283 c 0,93,94
 268.9375 227 268.9375 227 326.9375 198 c 0,72,73
EndSplineSet
Validated: 524325
EndChar

StartChar: nine
Encoding: 57 57 25
Width: 1130
GlyphClass: 2
Flags: W
LayerCount: 2
Fore
SplineSet
139.620117188 -46 m 0,0,1
 129.620117188 -47 129.620117188 -47 120.620117188 -47 c 0,2,3
 78.6201171875 -47 78.6201171875 -47 50.6201171875 -29 c 0,4,5
 11.6201171875 -6 11.6201171875 -6 17.6201171875 42 c 0,6,7
 17.6201171875 46 17.6201171875 46 18.6201171875 50 c 0,8,9
 25.6201171875 82 25.6201171875 82 62.1201171875 114 c 128,-1,10
 98.6201171875 146 98.6201171875 146 138.620117188 157 c 0,11,12
 163.620117188 164 163.620117188 164 217.620117188 174 c 128,-1,13
 271.620117188 184 271.620117188 184 313.620117188 194 c 128,-1,14
 355.620117188 204 355.620117188 204 407.620117188 221 c 0,15,16
 517.620117188 257 517.620117188 257 612.620117188 338 c 0,17,18
 674.620117188 393 674.620117188 393 730.620117188 465 c 0,19,20
 752.620117188 494 752.620117188 494 770.620117188 521 c 1,21,22
 723.620117188 496 723.620117188 496 670.620117188 482 c 0,23,24
 571.620117188 457 571.620117188 457 433.620117188 457 c 0,25,26
 335.620117188 457 335.620117188 457 258.620117188 501 c 0,27,28
 185.620117188 545 185.620117188 545 145.620117188 615.5 c 128,-1,29
 105.620117188 686 105.620117188 686 94.1201171875 779 c 128,-1,30
 82.6201171875 872 82.6201171875 872 104.620117188 969 c 0,31,32
 131.620117188 1085 131.620117188 1085 191.620117188 1186.5 c 128,-1,33
 251.620117188 1288 251.620117188 1288 332.620117188 1360 c 128,-1,34
 413.620117188 1432 413.620117188 1432 517.620117188 1473 c 0,35,36
 623.620117188 1514 623.620117188 1514 733.620117188 1514 c 0,37,38
 1002.62011719 1514 1002.62011719 1514 1078.62011719 1318 c 0,39,40
 1150.62011719 1133 1150.62011719 1133 1072.62011719 796 c 0,41,42
 1031.62011719 620 1031.62011719 620 963.120117188 484.5 c 128,-1,43
 894.620117188 349 894.620117188 349 809.620117188 256.5 c 128,-1,44
 724.620117188 164 724.620117188 164 614.620117188 99 c 0,45,46
 502.620117188 33 502.620117188 33 385.120117188 -1 c 128,-1,47
 267.620117188 -35 267.620117188 -35 139.620117188 -46 c 0,0,1
413.620117188 1136.5 m 128,-1,49
 360.620117188 1067 360.620117188 1067 343.620117188 993 c 0,50,51
 273.620117188 689 273.620117188 689 540.620117188 689 c 0,52,53
 626.620117188 689 626.620117188 689 715.120117188 725 c 128,-1,54
 803.620117188 761 803.620117188 761 862.620117188 820 c 1,55,56
 864.620117188 828 864.620117188 828 866.620117188 837 c 0,57,58
 879.620117188 891 879.620117188 891 894.620117188 983 c 0,59,60
 906.620117188 1070 906.620117188 1070 878.620117188 1150 c 0,61,62
 863.620117188 1192 863.620117188 1192 838.620117188 1223.5 c 128,-1,63
 813.620117188 1255 813.620117188 1255 773.620117188 1273 c 128,-1,64
 733.620117188 1291 733.620117188 1291 684.620117188 1291 c 0,65,66
 682.620117188 1291 682.620117188 1291 680.620117188 1291 c 2,67,-1
 679.620117188 1291 l 2,68,69
 610.620117188 1291 610.620117188 1291 538.620117188 1248.5 c 128,-1,48
 466.620117188 1206 466.620117188 1206 413.620117188 1136.5 c 128,-1,49
EndSplineSet
Validated: 524321
EndChar

StartChar: colon
Encoding: 58 58 26
Width: 1130
GlyphClass: 2
Flags: W
LayerCount: 2
Fore
SplineSet
780.479492188 828 m 0,0,1
 766.479492188 769 766.479492188 769 735.479492188 704 c 0,2,3
 712.479492188 653 712.479492188 653 666.479492188 627 c 0,4,5
 626.479492188 604 626.479492188 604 592.479492188 604 c 0,6,7
 589.479492188 604 589.479492188 604 585.479492188 604 c 0,8,9
 529.479492188 607 529.479492188 607 500.479492188 629 c 0,10,11
 459.479492188 659 459.479492188 659 467.479492188 720 c 2,12,-1
 467.479492188 721 l 2,13,14
 472.479492188 757 472.479492188 757 481.479492188 795 c 128,-1,15
 490.479492188 833 490.479492188 833 499.479492188 866.5 c 128,-1,16
 508.479492188 900 508.479492188 900 531.979492188 923.5 c 128,-1,17
 555.479492188 947 555.479492188 947 582.979492188 956.5 c 128,-1,18
 610.479492188 966 610.479492188 966 629.479492188 968.5 c 128,-1,19
 648.479492188 971 648.479492188 971 658.479492188 971 c 0,20,21
 691.479492188 971 691.479492188 971 710.979492188 966.5 c 128,-1,22
 730.479492188 962 730.479492188 962 750.479492188 950.5 c 128,-1,23
 770.479492188 939 770.479492188 939 780.479492188 914 c 0,24,25
 790.479492188 889 790.479492188 889 786.479492188 856 c 0,26,27
 783.479492188 842 783.479492188 842 780.479492188 828 c 0,0,1
653.479492188 255 m 0,28,29
 642.479492188 205 642.479492188 205 616.479492188 154 c 0,30,31
 592.479492188 103 592.479492188 103 540.479492188 77 c 0,32,33
 496.479492188 56 496.479492188 56 459.479492188 56 c 0,34,35
 411.479492188 56 411.479492188 56 373.979492188 86.5 c 128,-1,36
 336.479492188 117 336.479492188 117 343.479492188 173 c 1,37,38
 354.479492188 231 354.479492188 231 355.979492188 238.5 c 128,-1,39
 357.479492188 246 357.479492188 246 366.479492188 274.5 c 128,-1,40
 375.479492188 303 375.479492188 303 379.479492188 319 c 0,41,42
 387.479492188 352 387.479492188 352 410.479492188 376 c 128,-1,43
 433.479492188 400 433.479492188 400 462.479492188 410 c 0,44,45
 504.479492188 424 504.479492188 424 540.479492188 424 c 0,46,47
 575.479492188 424 575.479492188 424 599.979492188 415 c 128,-1,48
 624.479492188 406 624.479492188 406 644.479492188 379 c 0,49,50
 664.479492188 352 664.479492188 352 662.479492188 311 c 0,51,52
 660.479492188 284 660.479492188 284 653.479492188 255 c 0,28,29
EndSplineSet
Validated: 524321
EndChar

StartChar: semicolon
Encoding: 59 59 27
Width: 1130
GlyphClass: 2
Flags: W
LayerCount: 2
Fore
SplineSet
893.178710938 743 m 0,0,1
 879.178710938 683 879.178710938 683 847.178710938 618 c 0,2,3
 824.178710938 567 824.178710938 567 778.178710938 541 c 0,4,5
 738.178710938 518 738.178710938 518 704.178710938 518 c 0,6,7
 676.178710938 518 676.178710938 518 646.678710938 530 c 128,-1,8
 617.178710938 542 617.178710938 542 597.178710938 568 c 0,9,10
 575.178710938 596 575.178710938 596 580.178710938 635 c 2,11,-1
 580.178710938 636 l 2,12,13
 585.178710938 672 585.178710938 672 594.178710938 710 c 128,-1,14
 603.178710938 748 603.178710938 748 611.678710938 781 c 128,-1,15
 620.178710938 814 620.178710938 814 644.178710938 838 c 128,-1,16
 668.178710938 862 668.178710938 862 695.178710938 871 c 0,17,18
 740.178710938 886 740.178710938 886 777.178710938 886 c 0,19,20
 805.178710938 886 805.178710938 886 824.178710938 881.5 c 128,-1,21
 843.178710938 877 843.178710938 877 863.178710938 865.5 c 128,-1,22
 883.178710938 854 883.178710938 854 893.178710938 829 c 0,23,24
 903.178710938 803 903.178710938 803 898.178710938 771 c 0,25,26
 896.178710938 757 896.178710938 757 893.178710938 743 c 0,0,1
721.178710938 161 m 0,27,28
 720.178710938 155 720.178710938 155 717.178710938 149 c 0,29,30
 696.178710938 81 696.178710938 81 469.178710938 -389 c 0,31,32
 445.178710938 -440 445.178710938 -440 403.178710938 -466 c 0,33,34
 367.178710938 -488 367.178710938 -488 332.178710938 -487 c 0,35,36
 283.178710938 -487 283.178710938 -487 251.178710938 -456 c 0,37,38
 222.178710938 -428 222.178710938 -428 233.178710938 -379 c 0,39,40
 242.178710938 -339 242.178710938 -339 327.678710938 -136 c 128,-1,41
 413.178710938 67 413.178710938 67 458.178710938 168 c 0,42,43
 474.178710938 203 474.178710938 203 494.178710938 226.5 c 128,-1,44
 514.178710938 250 514.178710938 250 536.178710938 259 c 0,45,46
 565.178710938 270 565.178710938 270 590.178710938 270 c 0,47,48
 599.178710938 270 599.178710938 270 608.178710938 268 c 0,49,50
 649.178710938 267 649.178710938 267 686.178710938 247 c 0,51,52
 709.178710938 235 709.178710938 235 719.178710938 210 c 0,53,54
 727.178710938 188 727.178710938 188 721.178710938 161 c 0,27,28
EndSplineSet
Validated: 524321
EndChar

StartChar: less
Encoding: 60 60 28
Width: 1130
GlyphClass: 2
Flags: W
LayerCount: 2
Fore
SplineSet
691.809570312 -50 m 0,0,1
 660.809570312 -50 660.809570312 -50 625.809570312 -37 c 0,2,3
 578.809570312 -20 578.809570312 -20 519.309570312 37.5 c 128,-1,4
 459.809570312 95 459.809570312 95 396.809570312 173 c 128,-1,5
 333.809570312 251 333.809570312 251 272.309570312 330.5 c 128,-1,6
 210.809570312 410 210.809570312 410 141.809570312 493.5 c 128,-1,7
 72.8095703125 577 72.8095703125 577 22.8095703125 626 c 0,8,9
 -2.1904296875 650 -2.1904296875 650 -2.1904296875 695 c 0,10,11
 -2.1904296875 714 -2.1904296875 714 2.8095703125 735 c 128,-1,12
 7.8095703125 756 7.8095703125 756 18.8095703125 778 c 0,13,14
 39.8095703125 820 39.8095703125 820 74.8095703125 840 c 0,15,16
 201.809570312 925 201.809570312 925 377.309570312 1055 c 128,-1,17
 552.809570312 1185 552.809570312 1185 699.309570312 1290.5 c 128,-1,18
 845.809570312 1396 845.809570312 1396 955.809570312 1458 c 0,19,20
 1000.80957031 1484 1000.80957031 1484 1037.80957031 1484 c 0,21,22
 1065.80957031 1484 1065.80957031 1484 1084.80957031 1470 c 0,23,24
 1120.80957031 1443 1120.80957031 1443 1129.80957031 1398 c 0,25,26
 1134.80957031 1377 1134.80957031 1377 1129.30957031 1353 c 128,-1,27
 1123.80957031 1329 1123.80957031 1329 1102.80957031 1303 c 0,28,29
 1070.80957031 1263 1070.80957031 1263 989.809570312 1211 c 0,30,31
 865.809570312 1131 865.809570312 1131 627.309570312 963.5 c 128,-1,32
 388.809570312 796 388.809570312 796 303.809570312 738 c 1,33,34
 355.809570312 683 355.809570312 683 421.809570312 601 c 128,-1,35
 487.809570312 519 487.809570312 519 540.309570312 449 c 128,-1,36
 592.809570312 379 592.809570312 379 655.309570312 306 c 128,-1,37
 717.809570312 233 717.809570312 233 770.309570312 189.5 c 128,-1,38
 822.809570312 146 822.809570312 146 836.809570312 109 c 0,39,40
 846.809570312 84 846.809570312 84 839.809570312 56 c 0,41,42
 834.809570312 36 834.809570312 36 822.809570312 17 c 0,43,44
 784.809570312 -39 784.809570312 -39 709.809570312 -49 c 0,45,46
 700.809570312 -50 700.809570312 -50 691.809570312 -50 c 0,0,1
EndSplineSet
Validated: 524289
EndChar

StartChar: equal
Encoding: 61 61 29
Width: 1130
GlyphClass: 2
Flags: W
LayerCount: 2
Fore
SplineSet
921.026367188 1107 m 0,0,1
 976.026367188 1107 976.026367188 1107 993.026367188 1079 c 128,-1,2
 1010.02636719 1051 1010.02636719 1051 1002.02636719 1007 c 1,3,-1
 1002.02636719 1006 l 2,4,5
 997.026367188 984 997.026367188 984 988.526367188 965 c 128,-1,6
 980.026367188 946 980.026367188 946 964.026367188 927 c 128,-1,7
 948.026367188 908 948.026367188 908 922.026367188 897 c 0,8,9
 904.026367188 890 904.026367188 890 884.026367188 890 c 0,10,11
 877.026367188 890 877.026367188 890 869.026367188 891 c 0,12,13
 802.026367188 894 802.026367188 894 727.026367188 892 c 2,14,-1
 517.026367188 886 l 2,15,16
 383.026367188 882 383.026367188 882 320.026367188 882 c 0,17,18
 264.026367188 882 264.026367188 882 237.026367188 913.5 c 128,-1,19
 210.026367188 945 210.026367188 945 221.026367188 991 c 0,20,21
 222.026367188 994 222.026367188 994 222.026367188 998 c 0,22,23
 232.026367188 1042 232.026367188 1042 267.526367188 1074.5 c 128,-1,24
 303.026367188 1107 303.026367188 1107 356.026367188 1107 c 0,25,26
 360.026367188 1107 360.026367188 1107 364.026367188 1107 c 0,27,28
 551.026367188 1100 551.026367188 1100 799.026367188 1105 c 0,29,30
 900.026367188 1107 900.026367188 1107 921.026367188 1107 c 0,0,1
791.026367188 489 m 0,31,32
 784.026367188 489 784.026367188 489 777.026367188 490 c 0,33,34
 733.026367188 492 733.026367188 492 695.026367188 492 c 0,35,36
 615.026367188 492 615.026367188 492 448.526367188 486.5 c 128,-1,37
 282.026367188 481 282.026367188 481 222.526367188 481 c 128,-1,38
 163.026367188 481 163.026367188 481 140.526367188 514 c 128,-1,39
 118.026367188 547 118.026367188 547 129.026367188 593 c 0,40,41
 130.026367188 596 130.026367188 596 130.026367188 599 c 0,42,43
 140.026367188 642 140.026367188 642 177.526367188 671 c 128,-1,44
 215.026367188 700 215.026367188 700 270.026367188 700 c 0,45,46
 272.026367188 700 272.026367188 700 304.026367188 699 c 0,47,48
 425.026367188 697 425.026367188 697 624.026367188 701 c 2,49,-1
 828.026367188 706 l 1,50,51
 883.026367188 706 883.026367188 706 900.026367188 678 c 128,-1,52
 917.026367188 650 917.026367188 650 909.026367188 606 c 1,53,-1
 909.026367188 605 l 2,54,55
 904.026367188 583 904.026367188 583 895.526367188 564.5 c 128,-1,56
 887.026367188 546 887.026367188 546 873.026367188 528 c 0,57,58
 856.026367188 507 856.026367188 507 830.026367188 496 c 0,59,60
 811.026367188 489 811.026367188 489 791.026367188 489 c 0,31,32
EndSplineSet
Validated: 524321
EndChar

StartChar: greater
Encoding: 62 62 30
Width: 1130
GlyphClass: 2
Flags: W
LayerCount: 2
Fore
SplineSet
91.1171875 -36 m 0,0,1
 64.1171875 -36 64.1171875 -36 45.1171875 -22.5 c 128,-1,2
 26.1171875 -9 26.1171875 -9 15.1171875 10 c 128,-1,3
 4.1171875 29 4.1171875 29 0.1171875 50 c 0,4,5
 -4.8828125 71 -4.8828125 71 1.1171875 95 c 128,-1,6
 7.1171875 119 7.1171875 119 27.1171875 145 c 0,7,8
 59.1171875 185 59.1171875 185 141.1171875 237 c 0,9,10
 265.1171875 317 265.1171875 317 503.1171875 484.5 c 128,-1,11
 741.1171875 652 741.1171875 652 826.1171875 710 c 1,12,13
 773.1171875 765 773.1171875 765 707.6171875 847 c 128,-1,14
 642.1171875 929 642.1171875 929 589.6171875 999 c 128,-1,15
 537.1171875 1069 537.1171875 1069 474.6171875 1142 c 128,-1,16
 412.1171875 1215 412.1171875 1215 360.1171875 1258.5 c 128,-1,17
 308.1171875 1302 308.1171875 1302 293.1171875 1339 c 0,18,19
 283.1171875 1364 283.1171875 1364 290.1171875 1392 c 0,20,21
 295.1171875 1412 295.1171875 1412 307.1171875 1431 c 0,22,23
 345.1171875 1487 345.1171875 1487 420.1171875 1497 c 0,24,25
 429.1171875 1498 429.1171875 1498 438.1171875 1498 c 0,26,27
 469.1171875 1498 469.1171875 1498 504.1171875 1485 c 0,28,29
 551.1171875 1468 551.1171875 1468 611.1171875 1411.5 c 128,-1,30
 671.1171875 1355 671.1171875 1355 734.1171875 1276 c 128,-1,31
 797.1171875 1197 797.1171875 1197 858.6171875 1117.5 c 128,-1,32
 920.1171875 1038 920.1171875 1038 988.6171875 954.5 c 128,-1,33
 1057.1171875 871 1057.1171875 871 1108.1171875 822 c 0,34,35
 1133.1171875 798 1133.1171875 798 1132.1171875 753 c 0,36,37
 1132.1171875 734 1132.1171875 734 1127.1171875 713 c 128,-1,38
 1122.1171875 692 1122.1171875 692 1111.1171875 670 c 0,39,40
 1090.1171875 628 1090.1171875 628 1055.1171875 608 c 0,41,42
 928.1171875 524 928.1171875 524 752.6171875 393.5 c 128,-1,43
 577.1171875 263 577.1171875 263 430.6171875 157.5 c 128,-1,44
 284.1171875 52 284.1171875 52 174.1171875 -10 c 0,45,46
 129.1171875 -36 129.1171875 -36 91.1171875 -36 c 0,0,1
EndSplineSet
Validated: 524321
EndChar

StartChar: question
Encoding: 63 63 31
Width: 1130
GlyphClass: 2
Flags: W
LayerCount: 2
Fore
SplineSet
391.516601562 411 m 0,0,1
 374.516601562 411 374.516601562 411 356.516601562 416 c 0,2,3
 266.516601562 443 266.516601562 443 290.516601562 542 c 0,4,5
 296.516601562 570 296.516601562 570 312.516601562 604 c 0,6,7
 340.516601562 663 340.516601562 663 379.516601562 714.5 c 128,-1,8
 418.516601562 766 418.516601562 766 458.016601562 802.5 c 128,-1,9
 497.516601562 839 497.516601562 839 539.016601562 871 c 128,-1,10
 580.516601562 903 580.516601562 903 617.016601562 930.5 c 128,-1,11
 653.516601562 958 653.516601562 958 682.516601562 985 c 0,12,13
 744.516601562 1042 744.516601562 1042 758.516601562 1104 c 0,14,15
 780.516601562 1198 780.516601562 1198 741.516601562 1238 c 0,16,17
 700.516601562 1281 700.516601562 1281 601.516601562 1281 c 0,18,19
 579.516601562 1281 579.516601562 1281 553.516601562 1269.5 c 128,-1,20
 527.516601562 1258 527.516601562 1258 506.516601562 1243.5 c 128,-1,21
 485.516601562 1229 485.516601562 1229 458.516601562 1202.5 c 128,-1,22
 431.516601562 1176 431.516601562 1176 415.516601562 1158 c 128,-1,23
 399.516601562 1140 399.516601562 1140 375.016601562 1111 c 128,-1,24
 350.516601562 1082 350.516601562 1082 327.016601562 1064 c 128,-1,25
 303.516601562 1046 303.516601562 1046 278.516601562 1043 c 0,26,27
 271.516601562 1042 271.516601562 1042 261.516601562 1042 c 128,-1,28
 251.516601562 1042 251.516601562 1042 239.016601562 1046 c 128,-1,29
 226.516601562 1050 226.516601562 1050 204.516601562 1061 c 1,30,31
 167.516601562 1085 167.516601562 1085 167.516601562 1131 c 0,32,33
 167.516601562 1142 167.516601562 1142 170.516601562 1155 c 0,34,35
 178.516601562 1191 178.516601562 1191 209.516601562 1238 c 1,36,37
 241.516601562 1283 241.516601562 1283 283.016601562 1325 c 128,-1,38
 324.516601562 1367 324.516601562 1367 380.516601562 1409.5 c 128,-1,39
 436.516601562 1452 436.516601562 1452 506.016601562 1478 c 128,-1,40
 575.516601562 1504 575.516601562 1504 644.516601562 1504 c 0,41,42
 858.516601562 1504 858.516601562 1504 947.516601562 1394.5 c 128,-1,43
 1036.51660156 1285 1036.51660156 1285 986.516601562 1069 c 0,44,45
 972.516601562 1009 972.516601562 1009 943.516601562 959.5 c 128,-1,46
 914.516601562 910 914.516601562 910 877.516601562 875 c 128,-1,47
 840.516601562 840 840.516601562 840 800.016601562 810.5 c 128,-1,48
 759.516601562 781 759.516601562 781 718.516601562 753 c 128,-1,49
 677.516601562 725 677.516601562 725 642.016601562 695.5 c 128,-1,50
 606.516601562 666 606.516601562 666 576.016601562 624.5 c 128,-1,51
 545.516601562 583 545.516601562 583 527.516601562 533 c 0,52,53
 504.516601562 472 504.516601562 472 462.516601562 437 c 0,54,55
 430.516601562 411 430.516601562 411 391.516601562 411 c 0,0,1
251.516601562 -54 m 0,56,57
 183.516601562 -54 183.516601562 -54 151.516601562 -4 c 0,58,59
 113.516601562 53 113.516601562 53 131.016601562 129 c 128,-1,60
 148.516601562 205 148.516601562 205 216.516601562 257 c 0,61,62
 288.516601562 312 288.516601562 312 363.516601562 312 c 0,63,64
 433.516601562 312 433.516601562 312 468.516601562 263 c 0,65,66
 505.516601562 211 505.516601562 211 488.016601562 135 c 128,-1,67
 470.516601562 59 470.516601562 59 411.016601562 7.5 c 128,-1,68
 351.516601562 -44 351.516601562 -44 273.516601562 -53 c 0,69,70
 262.516601562 -54 262.516601562 -54 251.516601562 -54 c 0,56,57
EndSplineSet
Validated: 524321
EndChar

StartChar: at
Encoding: 64 64 32
Width: 1130
GlyphClass: 2
Flags: W
LayerCount: 2
Fore
SplineSet
634.09765625 304 m 1,0,1
 559.09765625 216 559.09765625 216 457.09765625 216 c 0,2,3
 334.09765625 216 334.09765625 216 284.09765625 300 c 128,-1,4
 234.09765625 384 234.09765625 384 272.09765625 548 c 0,5,6
 291.09765625 629 291.09765625 629 323.59765625 698.5 c 128,-1,7
 356.09765625 768 356.09765625 768 397.59765625 817 c 128,-1,8
 439.09765625 866 439.09765625 866 487.09765625 901 c 0,9,10
 573.09765625 963 573.09765625 963 672.09765625 963 c 0,11,12
 730.09765625 963 730.09765625 963 781.09765625 939 c 0,13,14
 826.09765625 918 826.09765625 918 847.09765625 883 c 0,15,16
 864.09765625 855 864.09765625 855 858.09765625 828 c 0,17,18
 855.09765625 813 855.09765625 813 843.09765625 796.5 c 128,-1,19
 831.09765625 780 831.09765625 780 814.59765625 766 c 128,-1,20
 798.09765625 752 798.09765625 752 780.09765625 746 c 0,21,22
 754.09765625 738 754.09765625 738 740.09765625 738 c 0,23,24
 716.09765625 738 716.09765625 738 686.09765625 746 c 0,25,26
 677.09765625 748 677.09765625 748 660.09765625 754 c 0,27,28
 640.09765625 758 640.09765625 758 620.09765625 756.5 c 128,-1,29
 600.09765625 755 600.09765625 755 578.59765625 742 c 128,-1,30
 557.09765625 729 557.09765625 729 537.09765625 708.5 c 128,-1,31
 517.09765625 688 517.09765625 688 499.59765625 653 c 128,-1,32
 482.09765625 618 482.09765625 618 472.09765625 574 c 0,33,34
 466.09765625 550 466.09765625 550 463.59765625 527 c 128,-1,35
 461.09765625 504 461.09765625 504 462.09765625 480 c 0,36,37
 465.09765625 430 465.09765625 430 501.09765625 430 c 0,38,39
 523.09765625 430 523.09765625 430 539.09765625 438 c 0,40,41
 559.09765625 447 559.09765625 447 574.09765625 467 c 0,42,43
 607.09765625 512 607.09765625 512 635.09765625 623 c 0,44,45
 648.09765625 671 648.09765625 671 717.09765625 698 c 0,46,47
 756.09765625 713 756.09765625 713 786.09765625 714 c 0,48,49
 808.09765625 714 808.09765625 714 823.09765625 706 c 0,50,51
 858.09765625 689 858.09765625 689 849.09765625 648 c 0,52,53
 848.09765625 644 848.09765625 644 846.09765625 639 c 0,54,55
 822.09765625 568 822.09765625 568 811.09765625 518 c 0,56,57
 798.09765625 462 798.09765625 462 799.09765625 424 c 0,58,59
 799.09765625 410 799.09765625 410 802.09765625 404 c 0,60,61
 806.09765625 394 806.09765625 394 816.09765625 393 c 0,62,63
 820.09765625 397 820.09765625 397 826.09765625 405 c 0,64,65
 841.09765625 429 841.09765625 429 855.09765625 469 c 0,66,67
 880.09765625 543 880.09765625 543 894.09765625 605 c 0,68,69
 918.09765625 708 918.09765625 708 930.09765625 794.5 c 128,-1,70
 942.09765625 881 942.09765625 881 943.09765625 941.5 c 128,-1,71
 944.09765625 1002 944.09765625 1002 935.59765625 1050.5 c 128,-1,72
 927.09765625 1099 927.09765625 1099 916.09765625 1128 c 128,-1,73
 905.09765625 1157 905.09765625 1157 885.59765625 1177.5 c 128,-1,74
 866.09765625 1198 866.09765625 1198 851.09765625 1207.5 c 128,-1,75
 836.09765625 1217 836.09765625 1217 814.09765625 1223 c 128,-1,76
 792.09765625 1229 792.09765625 1229 780.59765625 1229.5 c 128,-1,77
 769.09765625 1230 769.09765625 1230 750.09765625 1230 c 0,78,79
 682.09765625 1230 682.09765625 1230 609.59765625 1183 c 128,-1,80
 537.09765625 1136 537.09765625 1136 469.09765625 1048.5 c 128,-1,81
 401.09765625 961 401.09765625 961 342.09765625 829 c 128,-1,82
 283.09765625 697 283.09765625 697 247.09765625 541 c 0,83,84
 215.09765625 403 215.09765625 403 209.59765625 295 c 128,-1,85
 204.09765625 187 204.09765625 187 219.09765625 121 c 128,-1,86
 234.09765625 55 234.09765625 55 264.09765625 11.5 c 128,-1,87
 294.09765625 -32 294.09765625 -32 329.09765625 -48.5 c 128,-1,88
 364.09765625 -65 364.09765625 -65 409.09765625 -65 c 128,-1,89
 454.09765625 -65 454.09765625 -65 494.59765625 -55.5 c 128,-1,90
 535.09765625 -46 535.09765625 -46 562.59765625 -33 c 128,-1,91
 590.09765625 -20 590.09765625 -20 617.59765625 2.5 c 128,-1,92
 645.09765625 25 645.09765625 25 662.59765625 44.5 c 128,-1,93
 680.09765625 64 680.09765625 64 704.09765625 93 c 0,94,95
 716.09765625 109 716.09765625 109 724.09765625 118.5 c 128,-1,96
 732.09765625 128 732.09765625 128 743.59765625 140.5 c 128,-1,97
 755.09765625 153 755.09765625 153 764.59765625 159.5 c 128,-1,98
 774.09765625 166 774.09765625 166 786.59765625 172.5 c 128,-1,99
 799.09765625 179 799.09765625 179 813.09765625 179 c 128,-1,100
 827.09765625 179 827.09765625 179 840.09765625 172 c 0,101,102
 858.09765625 164 858.09765625 164 868.59765625 151.5 c 128,-1,103
 879.09765625 139 879.09765625 139 882.09765625 121.5 c 128,-1,104
 885.09765625 104 885.09765625 104 880.09765625 85 c 0,105,106
 872.09765625 51 872.09765625 51 843.09765625 2 c 0,107,108
 825.09765625 -28 825.09765625 -28 809.09765625 -51 c 128,-1,109
 793.09765625 -74 793.09765625 -74 766.59765625 -107 c 128,-1,110
 740.09765625 -140 740.09765625 -140 712.59765625 -164 c 128,-1,111
 685.09765625 -188 685.09765625 -188 644.59765625 -213.5 c 128,-1,112
 604.09765625 -239 604.09765625 -239 561.09765625 -255 c 128,-1,113
 518.09765625 -271 518.09765625 -271 464.59765625 -280.5 c 128,-1,114
 411.09765625 -290 411.09765625 -290 356.09765625 -290 c 0,115,116
 350.09765625 -290 350.09765625 -290 344.09765625 -290 c 0,117,118
 238.09765625 -290 238.09765625 -290 158.59765625 -233.5 c 128,-1,119
 79.09765625 -177 79.09765625 -177 35.59765625 -78 c 128,-1,120
 -7.90234375 21 -7.90234375 21 -13.40234375 161.5 c 128,-1,121
 -18.90234375 302 -18.90234375 302 19.09765625 467 c 0,122,123
 61.09765625 649 61.09765625 649 124.09765625 807.5 c 128,-1,124
 187.09765625 966 187.09765625 966 263.09765625 1084.5 c 128,-1,125
 339.09765625 1203 339.09765625 1203 426.09765625 1289.5 c 128,-1,126
 513.09765625 1376 513.09765625 1376 606.09765625 1420 c 128,-1,127
 699.09765625 1464 699.09765625 1464 790.09765625 1464 c 0,128,129
 856.09765625 1464 856.09765625 1464 908.09765625 1453 c 128,-1,130
 960.09765625 1442 960.09765625 1442 1006.09765625 1414 c 128,-1,131
 1052.09765625 1386 1052.09765625 1386 1081.09765625 1341 c 128,-1,132
 1110.09765625 1296 1110.09765625 1296 1127.09765625 1228.5 c 128,-1,133
 1144.09765625 1161 1144.09765625 1161 1144.09765625 1072 c 0,134,135
 1144.09765625 884 1144.09765625 884 1078.09765625 600 c 0,136,137
 1042.09765625 444 1042.09765625 444 973.09765625 327 c 0,138,139
 935.09765625 262 935.09765625 262 882.59765625 222.5 c 128,-1,140
 830.09765625 183 830.09765625 183 769.09765625 183 c 0,141,142
 681.09765625 183 681.09765625 183 650.09765625 246 c 0,143,144
 637.09765625 270 637.09765625 270 634.09765625 304 c 1,0,1
EndSplineSet
Validated: 524321
EndChar

StartChar: A
Encoding: 65 65 33
Width: 1130
GlyphClass: 2
Flags: W
LayerCount: 2
Fore
SplineSet
224.133789062 100 m 1,0,1
 186.133789062 26 186.133789062 26 137.133789062 2 c 0,2,3
 110.133789062 -12 110.133789062 -12 86.6337890625 -12 c 128,-1,4
 63.1337890625 -12 63.1337890625 -12 44.1337890625 -2 c 0,5,6
 13.1337890625 14 13.1337890625 14 6.1337890625 49 c 0,7,8
 0.1337890625 75 0.1337890625 75 7.6337890625 107 c 128,-1,9
 15.1337890625 139 15.1337890625 139 31.1337890625 175 c 0,10,11
 58.1337890625 239 58.1337890625 239 204.133789062 472 c 1,12,13
 183.133789062 498 183.133789062 498 189.133789062 536 c 0,14,15
 189.133789062 538 189.133789062 538 190.133789062 540 c 0,16,17
 198.133789062 576 198.133789062 576 238.133789062 607 c 0,18,19
 271.133789062 633 271.133789062 633 313.133789062 647 c 1,20,21
 688.133789062 1207 688.133789062 1207 868.133789062 1399 c 1,22,23
 910.133789062 1442 910.133789062 1442 943.133789062 1463 c 0,24,25
 976.133789062 1485 976.133789062 1485 1014.13378906 1485 c 0,26,27
 1025.13378906 1486 1025.13378906 1486 1029.13378906 1486 c 0,28,29
 1067.13378906 1486 1067.13378906 1486 1094.13378906 1467 c 0,30,31
 1130.13378906 1443 1130.13378906 1443 1126.13378906 1389 c 0,32,33
 1111.13378906 1144 1111.13378906 1144 1104.13378906 694 c 0,34,35
 1099.13378906 444 1099.13378906 444 1102.63378906 326.5 c 128,-1,36
 1106.13378906 209 1106.13378906 209 1114.13378906 182 c 0,37,38
 1125.13378906 146 1125.13378906 146 1118.13378906 112 c 0,39,40
 1116.13378906 105 1116.13378906 105 1114.13378906 99 c 0,41,42
 1101.13378906 62 1101.13378906 62 1076.13378906 36 c 128,-1,43
 1051.13378906 10 1051.13378906 10 1020.13378906 -2 c 0,44,45
 986.133789062 -12 986.133789062 -12 977.133789062 -12 c 0,46,47
 977.133789062 -12 977.133789062 -12 976.133789062 -12 c 0,48,49
 951.133789062 -12 951.133789062 -12 929.133789062 2 c 0,50,51
 890.133789062 26 890.133789062 26 882.133789062 99 c 0,52,53
 871.133789062 164 871.133789062 164 878.133789062 514 c 1,54,55
 637.133789062 503 637.133789062 503 438.133789062 474 c 1,56,57
 336.133789062 312 336.133789062 312 224.133789062 100 c 1,0,1
570.133789062 680 m 1,58,59
 740.133789062 698 740.133789062 698 878.133789062 703 c 1,60,-1
 889.133789062 1164 l 1,61,62
 774.133789062 1015 774.133789062 1015 570.133789062 680 c 1,58,59
EndSplineSet
Validated: 524321
EndChar

StartChar: B
Encoding: 66 66 34
Width: 1130
GlyphClass: 2
Flags: W
LayerCount: 2
Fore
SplineSet
-12.0859375 85 m 0,0,1
 5.9140625 145 5.9140625 145 39.9140625 286 c 0,2,3
 101.9140625 554 101.9140625 554 164.9140625 880 c 1,4,5
 163.9140625 875 163.9140625 875 164.9140625 881 c 2,6,7
 191.9140625 1015 191.9140625 1015 202.4140625 1060.5 c 128,-1,8
 212.9140625 1106 212.9140625 1106 233.9140625 1183 c 128,-1,9
 254.9140625 1260 254.9140625 1260 262.9140625 1289 c 0,10,11
 279.9140625 1352 279.9140625 1352 320.9140625 1386.5 c 128,-1,12
 361.9140625 1421 361.9140625 1421 409.9140625 1421 c 2,13,-1
 414.9140625 1421 l 1,14,15
 469.9140625 1437 469.9140625 1437 548.9140625 1446 c 0,16,17
 580.9140625 1450 580.9140625 1450 616.4140625 1451.5 c 128,-1,18
 651.9140625 1453 651.9140625 1453 670.9140625 1453 c 2,19,-1
 712.9140625 1453 l 1,20,-1
 736.9140625 1453 l 2,21,22
 882.9140625 1453 882.9140625 1453 986.9140625 1401 c 0,23,24
 1088.9140625 1349 1088.9140625 1349 1126.9140625 1248 c 0,25,26
 1166.9140625 1145 1166.9140625 1145 1135.9140625 1009 c 0,27,28
 1108.9140625 892 1108.9140625 892 1034.9140625 806 c 0,29,30
 978.9140625 741 978.9140625 741 906.9140625 702 c 1,31,32
 944.9140625 682 944.9140625 682 978.9140625 655 c 0,33,34
 1032.9140625 610 1032.9140625 610 1065.4140625 552.5 c 128,-1,35
 1097.9140625 495 1097.9140625 495 1084.9140625 441 c 0,36,37
 1084.9140625 439 1084.9140625 439 1083.9140625 438 c 0,38,39
 1065.9140625 358 1065.9140625 358 1008.4140625 280 c 128,-1,40
 950.9140625 202 950.9140625 202 862.9140625 138 c 128,-1,41
 774.9140625 74 774.9140625 74 642.9140625 29 c 0,42,43
 509.9140625 -16 509.9140625 -16 361.9140625 -28 c 2,44,45
 327.9140625 -6 327.9140625 -6 281.9140625 -35 c 2,46,47
 180.9140625 -44 180.9140625 -44 156.9140625 -46 c 0,48,49
 132.9140625 -48 132.9140625 -48 110.9140625 -48 c 128,-1,50
 88.9140625 -48 88.9140625 -48 69.9140625 -44 c 1,51,-1
 65.9140625 -44 l 2,52,53
 17.9140625 -44 17.9140625 -44 -6.0859375 -8 c 0,54,55
 -27.0859375 23 -27.0859375 23 -15.0859375 71 c 0,56,57
 -14.0859375 78 -14.0859375 78 -12.0859375 85 c 0,0,1
382.9140625 824 m 0,58,59
 377.9140625 804 377.9140625 804 373.9140625 784 c 1,60,61
 456.9140625 781 456.9140625 781 524.9140625 781 c 128,-1,62
 592.9140625 781 592.9140625 781 643.9140625 790 c 128,-1,63
 694.9140625 799 694.9140625 799 730.4140625 813.5 c 128,-1,64
 765.9140625 828 765.9140625 828 795.4140625 848 c 128,-1,65
 824.9140625 868 824.9140625 868 842.9140625 889 c 128,-1,66
 860.9140625 910 860.9140625 910 875.9140625 935 c 128,-1,67
 890.9140625 960 890.9140625 960 898.9140625 981 c 128,-1,68
 906.9140625 1002 906.9140625 1002 911.9140625 1025 c 0,69,70
 922.9140625 1071 922.9140625 1071 912.9140625 1108.5 c 128,-1,71
 902.9140625 1146 902.9140625 1146 878.9140625 1169.5 c 128,-1,72
 854.9140625 1193 854.9140625 1193 820.9140625 1210 c 0,73,74
 758.9140625 1240 758.9140625 1240 682.9140625 1240 c 0,75,76
 583.9140625 1240 583.9140625 1240 485.9140625 1220 c 1,77,78
 475.9140625 1184 475.9140625 1184 455.9140625 1111 c 0,79,80
 413.9140625 959 413.9140625 959 382.9140625 824 c 0,58,59
797.9140625 339 m 128,-1,82
 833.9140625 378 833.9140625 378 839.9140625 407 c 0,83,84
 843.9140625 424 843.9140625 424 830.9140625 446.5 c 128,-1,85
 817.9140625 469 817.9140625 469 781.4140625 495 c 128,-1,86
 744.9140625 521 744.9140625 521 672.4140625 545 c 128,-1,87
 599.9140625 569 599.9140625 569 502.9140625 584 c 1,88,89
 386.9140625 584 386.9140625 584 332.9140625 583 c 1,90,91
 275.9140625 300 275.9140625 300 248.9140625 164 c 1,92,93
 268.9140625 165 268.9140625 165 310.4140625 165.5 c 128,-1,94
 351.9140625 166 351.9140625 166 378.9140625 167 c 0,95,96
 470.9140625 171 470.9140625 171 557.4140625 197.5 c 128,-1,97
 643.9140625 224 643.9140625 224 702.9140625 262 c 128,-1,81
 761.9140625 300 761.9140625 300 797.9140625 339 c 128,-1,82
EndSplineSet
Validated: 524321
EndChar

StartChar: C
Encoding: 67 67 35
Width: 1130
GlyphClass: 2
Flags: W
LayerCount: 2
Fore
SplineSet
1214.41015625 1418 m 0,0,1
 1213.41015625 1338 1213.41015625 1338 1192.41015625 1248 c 1,2,3
 1177.41015625 1186 1177.41015625 1186 1174.41015625 1173 c 2,4,5
 1162.41015625 1121 1162.41015625 1121 1115.91015625 1069.5 c 128,-1,6
 1069.41015625 1018 1069.41015625 1018 1027.41015625 1013 c 0,7,8
 1019.41015625 1012 1019.41015625 1012 1010.41015625 1012 c 0,9,10
 975.41015625 1012 975.41015625 1012 947.41015625 1036 c 0,11,12
 907.41015625 1068 907.41015625 1068 919.41015625 1125 c 0,13,14
 923.41015625 1140 923.41015625 1140 940.41015625 1198 c 1,15,16
 918.41015625 1215 918.41015625 1215 911.91015625 1220 c 128,-1,17
 905.41015625 1225 905.41015625 1225 893.41015625 1232 c 0,18,19
 871.41015625 1245 871.41015625 1245 847.41015625 1245 c 0,20,21
 789.41015625 1245 789.41015625 1245 712.41015625 1208 c 128,-1,22
 635.41015625 1171 635.41015625 1171 554.91015625 1101 c 128,-1,23
 474.41015625 1031 474.41015625 1031 400.41015625 939.5 c 128,-1,24
 326.41015625 848 326.41015625 848 267.91015625 732.5 c 128,-1,25
 209.41015625 617 209.41015625 617 182.41015625 501 c 0,26,27
 163.41015625 419 163.41015625 419 179.91015625 342.5 c 128,-1,28
 196.41015625 266 196.41015625 266 244.91015625 218 c 128,-1,29
 293.41015625 170 293.41015625 170 358.91015625 170 c 128,-1,30
 424.41015625 170 424.41015625 170 487.91015625 183 c 128,-1,31
 551.41015625 196 551.41015625 196 604.91015625 217 c 128,-1,32
 658.41015625 238 658.41015625 238 697.91015625 259 c 128,-1,33
 737.41015625 280 737.41015625 280 771.41015625 304 c 1,34,35
 802.41015625 324 802.41015625 324 826.41015625 335 c 0,36,37
 851.41015625 347 851.41015625 347 878.91015625 347 c 128,-1,38
 906.41015625 347 906.41015625 347 926.41015625 328 c 1,39,40
 960.41015625 293 960.41015625 293 949.41015625 245 c 128,-1,41
 938.41015625 197 938.41015625 197 878.41015625 140 c 0,42,43
 665.41015625 -64 665.41015625 -64 300.41015625 -64 c 0,44,45
 291.41015625 -64 291.41015625 -64 282.41015625 -64 c 0,46,47
 193.41015625 -64 193.41015625 -64 121.41015625 -34 c 0,48,49
 50.41015625 -5 50.41015625 -5 8.41015625 44 c 128,-1,50
 -33.58984375 93 -33.58984375 93 -57.58984375 156.5 c 128,-1,51
 -81.58984375 220 -81.58984375 220 -84.08984375 291 c 128,-1,52
 -86.58984375 362 -86.58984375 362 -69.58984375 434 c 0,53,54
 -35.58984375 581 -35.58984375 581 25.41015625 719.5 c 128,-1,55
 86.41015625 858 86.41015625 858 161.41015625 969 c 128,-1,56
 236.41015625 1080 236.41015625 1080 325.41015625 1173 c 0,57,58
 418.41015625 1266 418.41015625 1266 513.91015625 1328.5 c 128,-1,59
 609.41015625 1391 609.41015625 1391 704.41015625 1426 c 128,-1,60
 799.41015625 1461 799.41015625 1461 881.41015625 1461 c 0,61,62
 947.41015625 1461 947.41015625 1461 1002.41015625 1449 c 1,63,64
 1018.41015625 1472 1018.41015625 1472 1040.41015625 1488 c 0,65,66
 1072.41015625 1512 1072.41015625 1512 1106.41015625 1516 c 0,67,68
 1119.41015625 1518 1119.41015625 1518 1121.41015625 1517.5 c 128,-1,69
 1123.41015625 1517 1123.41015625 1517 1123.41015625 1517 c 0,70,71
 1154.41015625 1517 1154.41015625 1517 1180.41015625 1497 c 0,72,73
 1214.41015625 1470 1214.41015625 1470 1214.41015625 1418 c 0,0,1
EndSplineSet
Validated: 524321
EndChar

StartChar: D
Encoding: 68 68 36
Width: 1130
GlyphClass: 2
Flags: W
LayerCount: 2
Fore
SplineSet
-25.90234375 127 m 0,0,1
 -4.90234375 196 -4.90234375 196 29.09765625 345 c 0,2,3
 91.09765625 615 91.09765625 615 165.09765625 987 c 1,4,5
 163.09765625 978 163.09765625 978 165.09765625 987 c 2,6,7
 188.09765625 1097 188.09765625 1097 196.09765625 1133 c 128,-1,8
 204.09765625 1169 204.09765625 1169 224.59765625 1242.5 c 128,-1,9
 245.09765625 1316 245.09765625 1316 248.09765625 1330 c 2,10,11
 243.09765625 1310 243.09765625 1310 248.09765625 1331 c 1,12,13
 265.09765625 1394 265.09765625 1394 306.09765625 1428 c 0,14,15
 347.09765625 1463 347.09765625 1463 396.09765625 1463 c 0,16,17
 461.09765625 1463 461.09765625 1463 562.09765625 1442 c 0,18,19
 626.09765625 1429 626.09765625 1429 690.59765625 1407.5 c 128,-1,20
 755.09765625 1386 755.09765625 1386 826.59765625 1347.5 c 128,-1,21
 898.09765625 1309 898.09765625 1309 959.59765625 1258.5 c 128,-1,22
 1021.09765625 1208 1021.09765625 1208 1070.09765625 1131 c 0,23,24
 1116.09765625 1055 1116.09765625 1055 1140.59765625 964 c 128,-1,25
 1165.09765625 873 1165.09765625 873 1163.59765625 748.5 c 128,-1,26
 1162.09765625 624 1162.09765625 624 1129.09765625 481 c 0,27,28
 1112.09765625 409 1112.09765625 409 1076.09765625 334 c 128,-1,29
 1040.09765625 259 1040.09765625 259 985.59765625 188.5 c 128,-1,30
 931.09765625 118 931.09765625 118 865.59765625 62 c 128,-1,31
 800.09765625 6 800.09765625 6 714.09765625 -28 c 0,32,33
 626.09765625 -64 626.09765625 -64 536.09765625 -64 c 0,34,35
 526.09765625 -64 526.09765625 -64 517.09765625 -64 c 0,36,37
 423.09765625 -64 423.09765625 -64 330.59765625 -55 c 128,-1,38
 238.09765625 -46 238.09765625 -46 183.09765625 -33 c 0,39,40
 130.09765625 -20 130.09765625 -20 94.59765625 -10.5 c 128,-1,41
 59.09765625 -1 59.09765625 -1 51.09765625 0 c 0,42,43
 3.09765625 0 3.09765625 0 -19.90234375 34 c 0,44,45
 -40.90234375 64 -40.90234375 64 -29.90234375 113 c 0,46,47
 -27.90234375 120 -27.90234375 120 -25.90234375 127 c 0,0,1
388.59765625 176.5 m 128,-1,49
 471.09765625 162 471.09765625 162 586.09765625 162 c 0,50,51
 635.09765625 162 635.09765625 162 688.59765625 196.5 c 128,-1,52
 742.09765625 231 742.09765625 231 786.09765625 287.5 c 128,-1,53
 830.09765625 344 830.09765625 344 865.09765625 413.5 c 128,-1,54
 900.09765625 483 900.09765625 483 915.09765625 549 c 0,55,56
 1001.09765625 920 1001.09765625 920 741.09765625 1116 c 0,57,58
 648.09765625 1185 648.09765625 1185 459.09765625 1260 c 1,59,60
 396.09765625 1010 396.09765625 1010 342.09765625 738 c 0,61,62
 324.09765625 649 324.09765625 649 289.59765625 480 c 128,-1,63
 255.09765625 311 255.09765625 311 238.09765625 222 c 1,64,48
 306.09765625 191 306.09765625 191 388.59765625 176.5 c 128,-1,49
EndSplineSet
Validated: 524321
EndChar

StartChar: E
Encoding: 69 69 37
Width: 1130
GlyphClass: 2
Flags: W
LayerCount: 2
Fore
SplineSet
333.7890625 1442 m 0,0,1
 381.7890625 1442 381.7890625 1442 405.7890625 1409 c 1,2,3
 574.7890625 1430 574.7890625 1430 831.7890625 1430 c 0,4,5
 897.7890625 1430 897.7890625 1430 955.7890625 1428 c 0,6,7
 1073.7890625 1424 1073.7890625 1424 1137.7890625 1415 c 0,8,9
 1189.7890625 1408 1189.7890625 1408 1207.2890625 1383 c 128,-1,10
 1224.7890625 1358 1224.7890625 1358 1216.7890625 1315 c 2,11,12
 1210.7890625 1290 1210.7890625 1290 1215.7890625 1314 c 2,13,14
 1210.7890625 1292 1210.7890625 1292 1202.7890625 1273 c 128,-1,15
 1194.7890625 1254 1194.7890625 1254 1179.7890625 1237 c 0,16,17
 1162.7890625 1216 1162.7890625 1216 1135.7890625 1205 c 0,18,19
 1117.7890625 1198 1117.7890625 1198 1097.7890625 1198 c 0,20,21
 1090.7890625 1198 1090.7890625 1198 1082.7890625 1199 c 0,22,23
 953.7890625 1209 953.7890625 1209 809.7890625 1209 c 0,24,25
 758.7890625 1209 758.7890625 1209 706.7890625 1208 c 0,26,27
 524.7890625 1204 524.7890625 1204 387.7890625 1188 c 1,28,29
 338.7890625 1011 338.7890625 1011 298.7890625 840 c 1,30,31
 445.7890625 842 445.7890625 842 699.7890625 857 c 0,32,33
 947.7890625 871 947.7890625 871 978.7890625 871 c 0,34,35
 1033.7890625 871 1033.7890625 871 1051.2890625 842.5 c 128,-1,36
 1068.7890625 814 1068.7890625 814 1059.7890625 770 c 2,37,-1
 1059.7890625 769 l 1,38,39
 1048.7890625 720 1048.7890625 720 1020.7890625 692 c 0,40,41
 984.7890625 654 984.7890625 654 928.7890625 654 c 0,42,43
 894.7890625 654 894.7890625 654 629.7890625 636 c 0,44,45
 359.7890625 618 359.7890625 618 249.7890625 616 c 1,46,47
 238.7890625 566 238.7890625 566 228.2890625 517.5 c 128,-1,48
 217.7890625 469 217.7890625 469 206.7890625 415 c 0,49,50
 176.7890625 278 176.7890625 278 169.7890625 225 c 0,51,52
 167.7890625 207 167.7890625 207 166.7890625 194 c 1,53,54
 202.7890625 189 202.7890625 189 278.2890625 188.5 c 128,-1,55
 353.7890625 188 353.7890625 188 468.7890625 193 c 0,56,57
 737.7890625 204 737.7890625 204 810.7890625 219 c 1,58,59
 840.7890625 223 840.7890625 223 864.2890625 223 c 128,-1,60
 887.7890625 223 887.7890625 223 902.7890625 213 c 128,-1,61
 917.7890625 203 917.7890625 203 926.7890625 192 c 128,-1,62
 935.7890625 181 935.7890625 181 938.2890625 164.5 c 128,-1,63
 940.7890625 148 940.7890625 148 940.7890625 135.5 c 128,-1,64
 940.7890625 123 940.7890625 123 937.7890625 108 c 0,65,66
 926.7890625 60 926.7890625 60 887.7890625 22 c 0,67,68
 851.7890625 -13 851.7890625 -13 800.7890625 -14 c 1,69,70
 791.7890625 12 791.7890625 12 769.7890625 -12 c 2,71,72
 766.7890625 -12 766.7890625 -12 764.7890625 -12 c 0,73,74
 721.7890625 -12 721.7890625 -12 597.7890625 -20 c 0,75,76
 470.7890625 -28 470.7890625 -28 337.7890625 -34 c 128,-1,77
 204.7890625 -40 204.7890625 -40 137.7890625 -40 c 0,78,79
 72.7890625 -40 72.7890625 -40 31.7890625 -37 c 0,80,81
 -20.2109375 -33 -20.2109375 -33 -57.2109375 17 c 0,82,83
 -95.2109375 65 -95.2109375 65 -88.2109375 134 c 0,84,85
 -83.2109375 183 -83.2109375 183 -55.2109375 305 c 0,86,87
 -29.2109375 417 -29.2109375 417 -1.7109375 531 c 128,-1,88
 25.7890625 645 25.7890625 645 44.2890625 724.5 c 128,-1,89
 62.7890625 804 62.7890625 804 90.7890625 945 c 0,90,91
 115.7890625 1064 115.7890625 1064 124.7890625 1103 c 128,-1,92
 133.7890625 1142 133.7890625 1142 154.2890625 1216.5 c 128,-1,93
 174.7890625 1291 174.7890625 1291 178.7890625 1310 c 2,94,95
 174.7890625 1291 174.7890625 1291 179.7890625 1311 c 1,96,97
 196.7890625 1374 196.7890625 1374 237.2890625 1408 c 128,-1,98
 277.7890625 1442 277.7890625 1442 325.7890625 1442 c 0,99,100
 331.7890625 1442 331.7890625 1442 333.7890625 1442 c 0,0,1
EndSplineSet
Validated: 524321
EndChar

StartChar: F
Encoding: 70 70 38
Width: 1130
GlyphClass: 2
Flags: W
LayerCount: 2
Fore
SplineSet
348.661132812 1463 m 0,0,1
 397.661132812 1463 397.661132812 1463 419.661132812 1429 c 1,2,3
 668.661132812 1447 668.661132812 1447 900.661132812 1447 c 0,4,5
 1052.66113281 1447 1052.66113281 1447 1149.66113281 1437 c 0,6,7
 1201.66113281 1432 1201.66113281 1432 1218.66113281 1406 c 128,-1,8
 1235.66113281 1380 1235.66113281 1380 1228.66113281 1336 c 1,9,10
 1222.66113281 1310 1222.66113281 1310 1227.66113281 1335 c 1,11,12
 1216.66113281 1288 1216.66113281 1288 1181.66113281 1253 c 128,-1,13
 1146.66113281 1218 1146.66113281 1218 1091.66113281 1218 c 0,14,15
 1088.66113281 1218 1088.66113281 1218 1087.66113281 1218 c 0,16,17
 984.661132812 1223 984.661132812 1223 866.661132812 1223 c 0,18,19
 645.661132812 1223 645.661132812 1223 398.661132812 1206 c 1,20,21
 390.661132812 1175 390.661132812 1175 373.661132812 1112 c 0,22,23
 340.661132812 992 340.661132812 992 316.661132812 887 c 0,24,25
 312.661132812 869 312.661132812 869 308.661132812 852 c 1,26,27
 388.661132812 860 388.661132812 860 480.661132812 860 c 0,28,29
 505.661132812 860 505.661132812 860 530.661132812 859 c 0,30,31
 666.661132812 856 666.661132812 856 774.661132812 847 c 0,32,33
 885.661132812 838 885.661132812 838 939.161132812 827.5 c 128,-1,34
 992.661132812 817 992.661132812 817 1009.66113281 794 c 128,-1,35
 1026.66113281 771 1026.66113281 771 1019.66113281 730 c 1,36,37
 1020.66113281 733 1020.66113281 733 1018.66113281 729 c 2,38,39
 1008.66113281 687 1008.66113281 687 982.661132812 654 c 0,40,41
 965.661132812 633 965.661132812 633 938.661132812 623 c 0,42,43
 919.661132812 616 919.661132812 616 898.661132812 617 c 0,44,45
 888.661132812 617 888.661132812 617 884.661132812 617 c 0,46,47
 828.661132812 627 828.661132812 627 718.661132812 634 c 0,48,49
 600.661132812 642 600.661132812 642 472.161132812 642 c 128,-1,50
 343.661132812 642 343.661132812 642 260.661132812 633 c 1,51,52
 207.661132812 367 207.661132812 367 148.661132812 71 c 1,53,54
 129.661132812 16 129.661132812 16 78.6611328125 -15 c 0,55,56
 34.6611328125 -44 34.6611328125 -44 -10.3388671875 -44 c 0,57,58
 -13.3388671875 -44 -13.3388671875 -44 -16.3388671875 -44 c 0,59,60
 -64.3388671875 -44 -64.3388671875 -44 -87.3388671875 -8 c 0,61,62
 -108.338867188 22 -108.338867188 22 -96.3388671875 71 c 0,63,64
 -94.3388671875 78 -94.3388671875 78 -93.3388671875 85 c 0,65,66
 -74.3388671875 148 -74.3388671875 148 -39.3388671875 298 c 0,67,68
 25.6611328125 580 25.6611328125 580 92.6611328125 923 c 1,69,70
 90.6611328125 916 90.6611328125 916 92.6611328125 923 c 2,71,72
 119.661132812 1057 119.661132812 1057 130.661132812 1102.5 c 128,-1,73
 141.661132812 1148 141.661132812 1148 162.661132812 1225 c 128,-1,74
 183.661132812 1302 183.661132812 1302 190.661132812 1331 c 0,75,76
 207.661132812 1394 207.661132812 1394 248.661132812 1428 c 0,77,78
 289.661132812 1463 289.661132812 1463 337.661132812 1463 c 0,79,80
 345.661132812 1463 345.661132812 1463 348.661132812 1463 c 0,0,1
EndSplineSet
Validated: 524329
EndChar

StartChar: G
Encoding: 71 71 39
Width: 1130
GlyphClass: 2
Flags: W
LayerCount: 2
Fore
SplineSet
450.015625 -33 m 0,0,1
 368.015625 -64 368.015625 -64 290.015625 -64 c 0,2,3
 196.015625 -64 196.015625 -64 124.015625 -34 c 0,4,5
 53.015625 -5 53.015625 -5 11.015625 44 c 128,-1,6
 -30.984375 93 -30.984375 93 -54.984375 156.5 c 128,-1,7
 -78.984375 220 -78.984375 220 -81.484375 291 c 128,-1,8
 -83.984375 362 -83.984375 362 -66.984375 434 c 0,9,10
 -31.984375 584 -31.984375 584 29.515625 725 c 128,-1,11
 91.015625 866 91.015625 866 166.515625 979.5 c 128,-1,12
 242.015625 1093 242.015625 1093 331.015625 1188 c 0,13,14
 425.015625 1283 425.015625 1283 520.515625 1347 c 128,-1,15
 616.015625 1411 616.015625 1411 711.015625 1446 c 0,16,17
 806.015625 1483 806.015625 1483 892.515625 1483 c 128,-1,18
 979.015625 1483 979.015625 1483 1076.015625 1441 c 0,19,20
 1170.015625 1399 1170.015625 1399 1194.015625 1367 c 0,21,22
 1220.015625 1329 1220.015625 1329 1208.015625 1278 c 0,23,24
 1202.015625 1253 1202.015625 1253 1187.015625 1225 c 0,25,26
 1168.015625 1188 1168.015625 1188 1126.015625 1171 c 0,27,28
 1105.015625 1162 1105.015625 1162 1086.015625 1163 c 0,29,30
 1065.015625 1163 1065.015625 1163 1051.515625 1169 c 128,-1,31
 1038.015625 1175 1038.015625 1175 1002.015625 1202 c 0,32,33
 966.015625 1229 966.015625 1229 926.515625 1248 c 128,-1,34
 887.015625 1267 887.015625 1267 854.015625 1267 c 0,35,36
 797.015625 1267 797.015625 1267 720.015625 1229 c 128,-1,37
 643.015625 1191 643.015625 1191 561.515625 1118.5 c 128,-1,38
 480.015625 1046 480.015625 1046 405.515625 952 c 128,-1,39
 331.015625 858 331.015625 858 272.015625 739.5 c 128,-1,40
 213.015625 621 213.015625 621 185.015625 501 c 0,41,42
 166.015625 419 166.015625 419 182.515625 342.5 c 128,-1,43
 199.015625 266 199.015625 266 247.515625 218 c 128,-1,44
 296.015625 170 296.015625 170 363.015625 170 c 0,45,46
 406.015625 170 406.015625 170 459.015625 198 c 128,-1,47
 512.015625 226 512.015625 226 562.015625 271 c 128,-1,48
 612.015625 316 612.015625 316 662.015625 373 c 0,49,50
 738.015625 461 738.015625 461 790.015625 552 c 1,51,52
 679.015625 546 679.015625 546 563.015625 531 c 128,-1,53
 447.015625 516 447.015625 516 397.015625 493 c 0,54,55
 372.015625 481 372.015625 481 349.015625 481.5 c 128,-1,56
 326.015625 482 326.015625 482 306.015625 496 c 0,57,58
 270.015625 522 270.015625 522 274.015625 566 c 0,59,60
 275.015625 576 275.015625 576 277.015625 586 c 0,61,62
 287.015625 630 287.015625 630 326.015625 663 c 0,63,64
 355.015625 688 355.015625 688 399.015625 706 c 0,65,66
 469.015625 736 469.015625 736 669.015625 751 c 0,67,68
 813.015625 762 813.015625 762 907.015625 763 c 0,69,70
 941.015625 763 941.015625 763 970.015625 761 c 0,71,72
 1024.015625 758 1024.015625 758 1044.015625 737 c 0,73,74
 1071.015625 711 1071.015625 711 1058.015625 653 c 0,75,76
 1044.015625 591 1044.015625 591 994.015625 566 c 1,77,78
 992.015625 560 992.015625 560 985.015625 540 c 0,79,80
 981.015625 529 981.015625 529 974.015625 505 c 0,81,82
 944.015625 416 944.015625 416 845.015625 282 c 0,83,84
 798.015625 218 798.015625 218 737.015625 156 c 0,85,86
 674.015625 95 674.015625 95 603.015625 46 c 128,-1,87
 532.015625 -3 532.015625 -3 450.015625 -33 c 0,0,1
EndSplineSet
Validated: 524321
EndChar

StartChar: H
Encoding: 72 72 40
Width: 1130
GlyphClass: 2
Flags: W
LayerCount: 2
Fore
SplineSet
-83.4541015625 69 m 0,0,1
 -81.4541015625 77 -81.4541015625 77 -78.4541015625 85 c 0,2,3
 -62.4541015625 140 -62.4541015625 140 -11.4541015625 358 c 0,4,5
 17.5458984375 483 17.5458984375 483 63.0458984375 662 c 128,-1,6
 108.545898438 841 108.545898438 841 117.545898438 877.5 c 128,-1,7
 126.545898438 914 126.545898438 914 134.545898438 950 c 128,-1,8
 142.545898438 986 142.545898438 986 160.545898438 1069.5 c 128,-1,9
 178.545898438 1153 178.545898438 1153 185.045898438 1181 c 128,-1,10
 191.545898438 1209 191.545898438 1209 199.545898438 1237.5 c 128,-1,11
 207.545898438 1266 207.545898438 1266 209.045898438 1272.5 c 128,-1,12
 210.545898438 1279 210.545898438 1279 213.045898438 1288.5 c 128,-1,13
 215.545898438 1298 215.545898438 1298 218.045898438 1307 c 128,-1,14
 220.545898438 1316 220.545898438 1316 222.545898438 1323.5 c 128,-1,15
 224.545898438 1331 224.545898438 1331 224.545898438 1331 c 0,16,17
 241.545898438 1394 241.545898438 1394 282.545898438 1428 c 0,18,19
 323.545898438 1463 323.545898438 1463 371.545898438 1463 c 0,20,21
 376.545898438 1463 376.545898438 1463 378.545898438 1463 c 0,22,23
 424.545898438 1463 424.545898438 1463 450.545898438 1434 c 0,24,25
 481.545898438 1401 481.545898438 1401 465.545898438 1333 c 0,26,27
 460.545898438 1311 460.545898438 1311 439.545898438 1243.5 c 128,-1,28
 418.545898438 1176 418.545898438 1176 406.045898438 1121 c 128,-1,29
 393.545898438 1066 393.545898438 1066 372.545898438 968 c 128,-1,30
 351.545898438 870 351.545898438 870 339.545898438 815 c 1,31,32
 506.545898438 818 506.545898438 818 750.545898438 852 c 0,33,34
 822.545898438 862 822.545898438 862 861.545898438 866 c 1,35,36
 863.545898438 874 863.545898438 874 867.045898438 893.5 c 128,-1,37
 870.545898438 913 870.545898438 913 886.045898438 984.5 c 128,-1,38
 901.545898438 1056 901.545898438 1056 910.545898438 1096.5 c 128,-1,39
 919.545898438 1137 919.545898438 1137 942.545898438 1223 c 128,-1,40
 965.545898438 1309 965.545898438 1309 970.545898438 1328 c 0,41,42
 986.545898438 1393 986.545898438 1393 1029.54589844 1428 c 0,43,44
 1071.54589844 1463 1071.54589844 1463 1118.54589844 1463 c 0,45,46
 1123.54589844 1463 1123.54589844 1463 1125.54589844 1463 c 0,47,48
 1172.54589844 1463 1172.54589844 1463 1198.54589844 1434 c 0,49,50
 1227.54589844 1402 1227.54589844 1402 1211.54589844 1336 c 0,51,52
 1202.54589844 1298 1202.54589844 1298 1173.54589844 1182 c 0,53,54
 1137.54589844 1039 1137.54589844 1039 1111.54589844 925.5 c 128,-1,55
 1085.54589844 812 1085.54589844 812 1071.54589844 744.5 c 128,-1,56
 1057.54589844 677 1057.54589844 677 1045.54589844 621 c 0,57,58
 1019.54589844 509 1019.54589844 509 973.045898438 333.5 c 128,-1,59
 926.545898438 158 926.545898438 158 910.545898438 88 c 0,60,61
 908.545898438 79 908.545898438 79 906.545898438 71 c 0,62,63
 889.545898438 16 889.545898438 16 839.545898438 -15 c 0,64,65
 795.545898438 -44 795.545898438 -44 751.545898438 -44 c 0,66,67
 748.545898438 -44 748.545898438 -44 744.545898438 -44 c 0,68,69
 696.545898438 -44 696.545898438 -44 673.545898438 -8 c 0,70,71
 650.545898438 24 650.545898438 24 662.545898438 74 c 0,72,73
 664.545898438 81 664.545898438 81 666.545898438 88 c 0,74,75
 744.545898438 345 744.545898438 345 817.545898438 662 c 0,76,77
 821.545898438 680 821.545898438 680 825.545898438 698 c 1,78,79
 760.545898438 691 760.545898438 691 575.545898438 666.5 c 128,-1,80
 390.545898438 642 390.545898438 642 293.545898438 638 c 1,81,82
 289.545898438 623 289.545898438 623 288.545898438 621 c 2,83,84
 294.545898438 646 294.545898438 646 288.545898438 620 c 1,85,86
 258.545898438 518 258.545898438 518 227.045898438 382.5 c 128,-1,87
 195.545898438 247 195.545898438 247 161.545898438 74 c 1,88,89
 141.545898438 17 141.545898438 17 92.5458984375 -15 c 0,90,91
 48.5458984375 -44 48.5458984375 -44 3.5458984375 -44 c 0,92,93
 0.5458984375 -44 0.5458984375 -44 -2.4541015625 -44 c 0,94,95
 -49.4541015625 -44 -49.4541015625 -44 -73.4541015625 -8 c 0,96,97
 -94.4541015625 22 -94.4541015625 22 -83.4541015625 69 c 0,0,1
EndSplineSet
Validated: 524325
EndChar

StartChar: I
Encoding: 73 73 41
Width: 1130
GlyphClass: 2
Flags: W
LayerCount: 2
Fore
SplineSet
169.569335938 -24 m 2,0,1
 42.5693359375 -28 42.5693359375 -28 -3.4306640625 -28 c 0,2,3
 -60.4306640625 -28 -60.4306640625 -28 -85.4306640625 -3 c 0,4,5
 -112.430664062 23 -112.430664062 23 -102.430664062 67 c 0,6,7
 -101.430664062 70 -101.430664062 70 -101.430664062 73 c 0,8,9
 -92.4306640625 114 -92.4306640625 114 -56.9306640625 144.5 c 128,-1,10
 -21.4306640625 175 -21.4306640625 175 37.5693359375 179 c 2,11,12
 41.5693359375 196 41.5693359375 196 38.5693359375 179 c 2,13,14
 116.569335938 183 116.569335938 183 313.569335938 187 c 1,15,16
 376.569335938 400 376.569335938 400 429.569335938 630 c 0,17,18
 457.569335938 751 457.569335938 751 482.569335938 875 c 0,19,20
 499.569335938 963 499.569335938 963 522.569335938 1064 c 0,21,22
 527.569335938 1087 527.569335938 1087 532.569335938 1107.5 c 128,-1,23
 537.569335938 1128 537.569335938 1128 549.569335938 1170 c 128,-1,24
 561.569335938 1212 561.569335938 1212 566.569335938 1230 c 1,25,26
 456.569335938 1231 456.569335938 1231 402.569335938 1231 c 0,27,28
 352.569335938 1231 352.569335938 1231 301.569335938 1229 c 2,29,30
 295.569335938 1204 295.569335938 1204 300.569335938 1229 c 2,31,32
 298.569335938 1229 298.569335938 1229 296.569335938 1229 c 0,33,34
 243.569335938 1229 243.569335938 1229 219.069335938 1258 c 128,-1,35
 194.569335938 1287 194.569335938 1287 203.569335938 1334 c 0,36,37
 204.569335938 1337 204.569335938 1337 204.569335938 1340 c 0,38,39
 214.569335938 1383 214.569335938 1383 252.069335938 1416 c 128,-1,40
 289.569335938 1449 289.569335938 1449 348.569335938 1450 c 0,41,42
 514.569335938 1455 514.569335938 1455 663.569335938 1455 c 0,43,44
 961.569335938 1455 961.569335938 1455 1148.56933594 1435 c 0,45,46
 1191.56933594 1431 1191.56933594 1431 1213.56933594 1410 c 0,47,48
 1242.56933594 1382 1242.56933594 1382 1232.56933594 1328 c 1,49,50
 1226.56933594 1302 1226.56933594 1302 1232.56933594 1327 c 1,51,52
 1222.56933594 1282 1222.56933594 1282 1188.56933594 1243 c 0,53,54
 1169.56933594 1220 1169.56933594 1220 1141.56933594 1208 c 0,55,56
 1123.56933594 1201 1123.56933594 1201 1105.56933594 1201 c 0,57,58
 1095.56933594 1201 1095.56933594 1201 1084.56933594 1203 c 0,59,60
 1034.56933594 1212 1034.56933594 1212 824.569335938 1224 c 1,61,62
 818.569335938 1201 818.569335938 1201 804.569335938 1143 c 0,63,64
 789.569335938 1086 789.569335938 1086 781.569335938 1054.5 c 128,-1,65
 773.569335938 1023 773.569335938 1023 766.569335938 992 c 0,66,67
 738.569335938 870 738.569335938 870 722.569335938 791.5 c 128,-1,68
 706.569335938 713 706.569335938 713 687.569335938 631 c 128,-1,69
 668.569335938 549 668.569335938 549 628.569335938 399.5 c 128,-1,70
 588.569335938 250 588.569335938 250 573.569335938 190 c 1,71,72
 654.569335938 190 654.569335938 190 703.569335938 189 c 0,73,74
 752.569335938 189 752.569335938 189 860.569335938 188 c 2,75,76
 865.569335938 205 865.569335938 205 862.569335938 188 c 1,77,78
 867.569335938 205 867.569335938 205 863.569335938 188 c 1,79,80
 868.569335938 205 868.569335938 205 864.569335938 188 c 1,81,82
 869.569335938 205 869.569335938 205 866.569335938 188 c 1,83,84
 871.569335938 205 871.569335938 205 868.569335938 188 c 2,85,86
 923.569335938 188 923.569335938 188 941.069335938 160.5 c 128,-1,87
 958.569335938 133 958.569335938 133 950.569335938 91 c 1,88,89
 955.569335938 111 955.569335938 111 950.569335938 90 c 2,90,91
 945.569335938 69 945.569335938 69 937.569335938 51 c 128,-1,92
 929.569335938 33 929.569335938 33 915.569335938 15 c 0,93,94
 897.569335938 -7 897.569335938 -7 870.569335938 -17 c 0,95,96
 854.569335938 -23 854.569335938 -23 840.569335938 -23 c 128,-1,97
 826.569335938 -23 826.569335938 -23 816.569335938 -22 c 0,98,99
 766.569335938 -14 766.569335938 -14 646.569335938 -13 c 0,100,101
 521.569335938 -13 521.569335938 -13 418.569335938 -16 c 2,102,103
 299.569335938 5 299.569335938 5 169.569335938 -24 c 2,0,1
EndSplineSet
Validated: 524325
EndChar

StartChar: J
Encoding: 74 74 42
Width: 1130
GlyphClass: 2
Flags: W
LayerCount: 2
Fore
SplineSet
703.370117188 444 m 0,0,1
 588.370117188 88 588.370117188 88 461.370117188 -15 c 0,2,3
 393.370117188 -72 393.370117188 -72 317.370117188 -72 c 128,-1,4
 241.370117188 -72 241.370117188 -72 176.370117188 -45.5 c 128,-1,5
 111.370117188 -19 111.370117188 -19 68.3701171875 23 c 0,6,7
 29.3701171875 65 29.3701171875 65 -0.6298828125 115 c 128,-1,8
 -30.6298828125 165 -30.6298828125 165 -46.6298828125 215 c 128,-1,9
 -62.6298828125 265 -62.6298828125 265 -69.1298828125 305 c 128,-1,10
 -75.6298828125 345 -75.6298828125 345 -73.6298828125 371 c 0,11,12
 -73.6298828125 393 -73.6298828125 393 -64.6298828125 421 c 128,-1,13
 -55.6298828125 449 -55.6298828125 449 -43.6298828125 473 c 0,14,15
 -29.6298828125 503 -29.6298828125 503 -1.6298828125 525 c 128,-1,16
 26.3701171875 547 26.3701171875 547 63.3701171875 554 c 0,17,18
 76.3701171875 556 76.3701171875 556 87.3701171875 556 c 0,19,20
 126.370117188 556 126.370117188 556 145.370117188 530 c 0,21,22
 170.370117188 497 170.370117188 497 158.370117188 446 c 0,23,24
 147.370117188 398 147.370117188 398 163.370117188 329 c 0,25,26
 172.370117188 291 172.370117188 291 191.870117188 259.5 c 128,-1,27
 211.370117188 228 211.370117188 228 252.370117188 207 c 128,-1,28
 293.370117188 186 293.370117188 186 350.370117188 186 c 0,29,30
 352.370117188 186 352.370117188 186 355.370117188 188 c 0,31,32
 370.370117188 198 370.370117188 198 391.370117188 236 c 0,33,34
 438.370117188 323 438.370117188 323 483.370117188 502 c 0,35,36
 483.370117188 502 483.370117188 502 484.370117188 506 c 128,-1,37
 485.370117188 510 485.370117188 510 493.870117188 548 c 128,-1,38
 502.370117188 586 502.370117188 586 537.370117188 751 c 0,39,40
 589.370117188 998 589.370117188 998 645.370117188 1228 c 1,41,42
 431.370117188 1234 431.370117188 1234 270.370117188 1229 c 2,43,44
 264.370117188 1204 264.370117188 1204 270.370117188 1229 c 2,45,46
 268.370117188 1229 268.370117188 1229 265.370117188 1229 c 0,47,48
 212.370117188 1229 212.370117188 1229 188.370117188 1258 c 128,-1,49
 164.370117188 1287 164.370117188 1287 173.370117188 1334 c 0,50,51
 174.370117188 1337 174.370117188 1337 174.370117188 1340 c 0,52,53
 184.370117188 1383 184.370117188 1383 221.870117188 1416 c 128,-1,54
 259.370117188 1449 259.370117188 1449 318.370117188 1450 c 0,55,56
 485.370117188 1455 485.370117188 1455 633.370117188 1455 c 0,57,58
 931.370117188 1455 931.370117188 1455 1117.37011719 1435 c 0,59,60
 1159.37011719 1431 1159.37011719 1431 1181.37011719 1410 c 0,61,62
 1210.37011719 1382 1210.37011719 1382 1202.37011719 1328 c 1,63,64
 1196.37011719 1303 1196.37011719 1303 1201.37011719 1327 c 2,65,66
 1191.37011719 1282 1191.37011719 1282 1157.37011719 1243 c 0,67,68
 1138.37011719 1220 1138.37011719 1220 1110.37011719 1208 c 0,69,70
 1092.37011719 1201 1092.37011719 1201 1074.37011719 1201 c 0,71,72
 1064.37011719 1201 1064.37011719 1201 1053.37011719 1203 c 0,73,74
 996.370117188 1213 996.370117188 1213 873.370117188 1220 c 1,75,76
 862.370117188 1169 862.370117188 1169 803.370117188 862 c 0,77,78
 787.370117188 778 787.370117188 778 773.870117188 720.5 c 128,-1,79
 760.370117188 663 760.370117188 663 757.370117188 649 c 0,80,81
 727.370117188 519 727.370117188 519 703.370117188 444 c 0,0,1
EndSplineSet
Validated: 524325
EndChar

StartChar: K
Encoding: 75 75 43
Width: 1130
GlyphClass: 2
Flags: W
LayerCount: 2
Fore
SplineSet
26.6640625 -44 m 0,0,1
 23.6640625 -44 23.6640625 -44 20.6640625 -44 c 0,2,3
 -27.3359375 -44 -27.3359375 -44 -52.3359375 -16 c 0,4,5
 -74.3359375 9 -74.3359375 9 -65.3359375 49 c 0,6,7
 -63.3359375 57 -63.3359375 57 -60.3359375 65 c 0,8,9
 -40.3359375 130 -40.3359375 130 -5.3359375 283 c 0,10,11
 61.6640625 575 61.6640625 575 131.6640625 930 c 0,12,13
 158.6640625 1060 158.6640625 1060 168.6640625 1108 c 0,14,15
 179.6640625 1155 179.6640625 1155 203.6640625 1242 c 0,16,17
 227.6640625 1330 227.6640625 1330 232.6640625 1352 c 2,18,19
 232.6640625 1352 232.6640625 1352 232.6640625 1352 c 1,20,21
 247.6640625 1406 247.6640625 1406 287.6640625 1435 c 0,22,23
 327.6640625 1463 327.6640625 1463 374.6640625 1463 c 0,24,25
 379.6640625 1463 379.6640625 1463 381.6640625 1463 c 0,26,27
 427.6640625 1463 427.6640625 1463 454.6640625 1440 c 0,28,29
 485.6640625 1413 485.6640625 1413 473.6640625 1358 c 0,30,31
 462.6640625 1308 462.6640625 1308 424.6640625 1163 c 0,32,33
 386.6640625 1019 386.6640625 1019 363.6640625 928 c 1,34,35
 447.6640625 989 447.6640625 989 605.6640625 1104 c 0,36,37
 950.6640625 1377 950.6640625 1377 1013.6640625 1422 c 0,38,39
 1051.6640625 1449 1051.6640625 1449 1083.6640625 1458 c 0,40,41
 1103.6640625 1464 1103.6640625 1464 1118.1640625 1464 c 128,-1,42
 1132.6640625 1464 1132.6640625 1464 1141.6640625 1462 c 0,43,44
 1164.6640625 1456 1164.6640625 1456 1180.6640625 1439 c 1,45,46
 1202.6640625 1415 1202.6640625 1415 1196.6640625 1385 c 0,47,48
 1183.6640625 1329 1183.6640625 1329 1125.6640625 1265 c 0,49,50
 1087.6640625 1227 1087.6640625 1227 868.6640625 1043 c 0,51,52
 645.6640625 870 645.6640625 870 477.6640625 744 c 1,53,54
 532.6640625 671 532.6640625 671 657.6640625 524 c 0,55,56
 784.6640625 387 784.6640625 387 875.6640625 276 c 0,57,58
 923.6640625 208 923.6640625 208 944.6640625 171 c 0,59,60
 966.6640625 124 966.6640625 124 967.6640625 105 c 0,61,62
 968.6640625 78 968.6640625 78 962.6640625 53 c 0,63,64
 958.6640625 36 958.6640625 36 948.6640625 21 c 0,65,66
 928.6640625 -8 928.6640625 -8 893.6640625 -24 c 1,67,68
 843.6640625 -44 843.6640625 -44 831.6640625 -44 c 0,69,70
 830.6640625 -44 830.6640625 -44 829.6640625 -44 c 0,71,72
 778.6640625 -44 778.6640625 -44 744.6640625 9 c 0,73,74
 731.6640625 34 731.6640625 34 632.6640625 150 c 0,75,76
 532.6640625 264 532.6640625 264 417.6640625 402 c 0,77,78
 331.6640625 492 331.6640625 492 280.6640625 555 c 1,79,-1
 181.6640625 52 l 1,80,81
 164.6640625 6 164.6640625 6 114.6640625 -20 c 0,82,83
 71.6640625 -44 71.6640625 -44 26.6640625 -44 c 0,0,1
EndSplineSet
Validated: 524321
EndChar

StartChar: L
Encoding: 76 76 44
Width: 1130
GlyphClass: 2
Flags: W
LayerCount: 2
Fore
SplineSet
378.057617188 427 m 128,-1,1
 332.557617188 280 332.557617188 280 311.557617188 197 c 1,2,3
 319.557617188 221 319.557617188 221 315.557617188 197 c 2,4,5
 478.557617188 197 478.557617188 197 702.557617188 218 c 0,6,7
 922.557617188 239 922.557617188 239 995.557617188 257 c 0,8,9
 1008.55761719 260 1008.55761719 260 1022.55761719 260.5 c 128,-1,10
 1036.55761719 261 1036.55761719 261 1049.55761719 255 c 0,11,12
 1072.55761719 245 1072.55761719 245 1082.55761719 221 c 0,13,14
 1090.55761719 201 1090.55761719 201 1092.55761719 179 c 0,15,16
 1094.55761719 155 1094.55761719 155 1090.55761719 135 c 0,17,18
 1079.55761719 89 1079.55761719 89 1050.05761719 60 c 128,-1,19
 1020.55761719 31 1020.55761719 31 962.557617188 20 c 0,20,21
 823.557617188 -7 823.557617188 -7 534.557617188 -19 c 128,-1,22
 245.557617188 -31 245.557617188 -31 121.557617188 -31 c 0,23,24
 73.5576171875 -31 73.5576171875 -31 50.5576171875 5 c 0,25,26
 29.5576171875 35 29.5576171875 35 40.5576171875 84 c 0,27,28
 42.5576171875 91 42.5576171875 91 46.0576171875 103 c 128,-1,29
 49.5576171875 115 49.5576171875 115 119.557617188 325.5 c 128,-1,30
 189.557617188 536 189.557617188 536 243.557617188 731 c 0,31,32
 260.557617188 791 260.557617188 791 280.557617188 876 c 0,33,34
 298.557617188 953 298.557617188 953 376.557617188 1313 c 1,35,36
 372.557617188 1294 372.557617188 1294 376.557617188 1314 c 1,37,38
 393.557617188 1378 393.557617188 1378 435.057617188 1412 c 128,-1,39
 476.557617188 1446 476.557617188 1446 523.557617188 1446 c 0,40,41
 526.557617188 1446 526.557617188 1446 530.557617188 1446 c 0,42,43
 577.557617188 1446 577.557617188 1446 604.557617188 1417 c 0,44,45
 636.557617188 1385 636.557617188 1385 621.557617188 1321 c 0,46,47
 608.557617188 1264 608.557617188 1264 581.557617188 1165 c 2,48,49
 546.557617188 1032 546.557617188 1032 515.557617188 916 c 1,50,51
 481.557617188 788 481.557617188 788 445.557617188 657 c 2,52,0
 423.557617188 574 423.557617188 574 378.057617188 427 c 128,-1,1
EndSplineSet
Validated: 524325
EndChar

StartChar: M
Encoding: 77 77 45
Width: 1130
GlyphClass: 2
Flags: W
LayerCount: 2
Fore
SplineSet
133.607421875 130 m 2,0,1
 131.607421875 120 131.607421875 120 128.607421875 109 c 1,2,3
 115.607421875 53 115.607421875 53 77.607421875 17 c 0,4,5
 35.607421875 -20 35.607421875 -20 -12.392578125 -20 c 0,6,7
 -13.392578125 -20 -13.392578125 -20 -15.392578125 -20 c 2,8,9
 -12.392578125 -6 -12.392578125 -6 -15.392578125 -20 c 2,10,11
 -36.392578125 -19 -36.392578125 -19 -52.392578125 -12 c 0,12,13
 -74.392578125 1 -74.392578125 1 -81.392578125 32 c 0,14,15
 -86.392578125 68 -86.392578125 68 -72.392578125 131 c 0,16,17
 -66.392578125 158 -66.392578125 158 -46.392578125 220 c 0,18,19
 -27.392578125 280 -27.392578125 280 4.607421875 376 c 0,20,21
 38.607421875 481 38.607421875 481 82.607421875 624 c 0,22,23
 126.607421875 768 126.607421875 768 152.607421875 853 c 0,24,25
 244.607421875 1147 244.607421875 1147 290.607421875 1263 c 0,26,27
 319.607421875 1335 319.607421875 1335 341.607421875 1363 c 0,28,29
 374.607421875 1405 374.607421875 1405 426.607421875 1425 c 0,30,31
 470.607421875 1442 470.607421875 1442 510.607421875 1442 c 0,32,33
 516.607421875 1442 516.607421875 1442 521.607421875 1442 c 0,34,35
 568.607421875 1442 568.607421875 1442 596.607421875 1427 c 0,36,37
 634.607421875 1408 634.607421875 1408 639.607421875 1367 c 0,38,39
 643.607421875 1276 643.607421875 1276 624.607421875 1070 c 0,40,41
 605.607421875 863 605.607421875 863 575.607421875 597 c 0,42,43
 568.607421875 538 568.607421875 538 563.607421875 488 c 1,44,45
 610.607421875 635 610.607421875 635 653.607421875 765 c 0,46,47
 710.607421875 935 710.607421875 935 782.607421875 1104 c 0,48,49
 854.607421875 1275 854.607421875 1275 898.607421875 1367 c 0,50,51
 915.607421875 1398 915.607421875 1398 954.607421875 1417 c 0,52,53
 989.607421875 1435 989.607421875 1435 1024.60742188 1439 c 0,54,55
 1046.60742188 1442 1046.60742188 1442 1061.10742188 1442.5 c 128,-1,56
 1075.60742188 1443 1075.60742188 1443 1083.60742188 1442 c 2,57,-1
 1090.60742188 1442 l 2,58,59
 1108.60742188 1442 1108.60742188 1442 1120.10742188 1441.5 c 128,-1,60
 1131.60742188 1441 1131.60742188 1441 1150.60742188 1436 c 0,61,62
 1170.60742188 1432 1170.60742188 1432 1183.10742188 1423.5 c 128,-1,63
 1195.60742188 1415 1195.60742188 1415 1204.60742188 1398 c 0,64,65
 1213.60742188 1379 1213.60742188 1379 1212.60742188 1356 c 0,66,67
 1205.60742188 1294 1205.60742188 1294 1118.60742188 759 c 0,68,69
 1032.60742188 226 1032.60742188 226 1031.60742188 158 c 0,70,71
 1030.60742188 118 1030.60742188 118 1021.60742188 82 c 0,72,73
 1015.60742188 54 1015.60742188 54 998.607421875 32 c 0,74,75
 975.607421875 4 975.607421875 4 937.607421875 -9 c 0,76,77
 915.607421875 -16 915.607421875 -16 892.607421875 -16 c 128,-1,78
 869.607421875 -16 869.607421875 -16 847.607421875 -5 c 0,79,80
 809.607421875 16 809.607421875 16 802.607421875 79 c 0,81,82
 792.607421875 202 792.607421875 202 953.607421875 1032 c 1,83,84
 892.607421875 874 892.607421875 874 849.607421875 734 c 0,85,86
 776.607421875 501 776.607421875 501 697.607421875 291 c 0,87,88
 617.607421875 82 617.607421875 82 585.607421875 35 c 0,89,90
 545.607421875 -15 545.607421875 -15 437.607421875 -15 c 0,91,92
 432.607421875 -15 432.607421875 -15 427.607421875 -15 c 0,93,94
 386.607421875 -15 386.607421875 -15 360.607421875 -2 c 0,95,96
 327.607421875 13 327.607421875 13 323.607421875 39 c 0,97,98
 321.607421875 138 321.607421875 138 345.607421875 487 c 0,99,100
 362.607421875 726 362.607421875 726 380.607421875 952 c 1,101,102
 367.607421875 912 367.607421875 912 336.607421875 804 c 0,103,-1
 304.607421875 697 l 2,104,-1
 250.607421875 517 l 2,105,106
 226.607421875 433 226.607421875 433 197.607421875 342 c 2,107,108
 175.607421875 272 175.607421875 272 151.607421875 197 c 2,109,110
 138.607421875 153 138.607421875 153 133.607421875 130 c 2,0,1
EndSplineSet
Validated: 524325
EndChar

StartChar: N
Encoding: 78 78 46
Width: 1130
GlyphClass: 2
Flags: W
LayerCount: 2
Fore
SplineSet
334.6875 996 m 1,0,1
 316.6875 903 316.6875 903 301.6875 841 c 0,2,3
 286.6875 775 286.6875 775 258.6875 658 c 0,4,5
 230.6875 542 230.6875 542 185.6875 375 c 0,6,7
 141.6875 206 141.6875 206 131.6875 161 c 0,8,9
 121.6875 117 121.6875 117 119.6875 107 c 0,10,11
 117.6875 96 117.6875 96 115.6875 89 c 0,12,13
 102.6875 34 102.6875 34 64.6875 4 c 0,14,15
 26.6875 -24 26.6875 -24 -19.3125 -24 c 0,16,17
 -77.3125 -24 -77.3125 -24 -90.3125 12 c 0,18,19
 -99.3125 48 -99.3125 48 -84.3125 112 c 0,20,21
 -75.3125 152 -75.3125 152 -5.3125 430 c 0,22,23
 101.6875 857 101.6875 857 138.6875 1016 c 0,24,25
 175.6875 1175 175.6875 1175 201.6875 1307 c 0,26,27
 203.6875 1316 203.6875 1316 205.6875 1325 c 0,28,29
 212.6875 1356 212.6875 1356 229.6875 1379 c 0,30,31
 250.6875 1407 250.6875 1407 279.6875 1421 c 0,32,33
 323.6875 1443 323.6875 1443 370.6875 1443 c 0,34,35
 380.6875 1443 380.6875 1443 391.6875 1442 c 0,36,37
 433.6875 1442 433.6875 1442 460.6875 1427 c 0,38,39
 498.6875 1408 498.6875 1408 504.6875 1367 c 0,40,41
 517.6875 1236 517.6875 1236 630.6875 881 c 0,42,43
 727.6875 583 727.6875 583 802.6875 382 c 1,44,45
 847.6875 559 847.6875 559 909.6875 843 c 0,46,47
 989.6875 1206 989.6875 1206 1003.6875 1322 c 0,48,49
 1005.6875 1334 1005.6875 1334 1007.6875 1346 c 0,50,51
 1016.6875 1383 1016.6875 1383 1046.6875 1410 c 0,52,53
 1084.6875 1444 1084.6875 1444 1134.6875 1444 c 0,54,55
 1180.6875 1444 1180.6875 1444 1204.6875 1427 c 0,56,57
 1217.6875 1419 1217.6875 1419 1221.6875 1403 c 0,58,59
 1223.6875 1387 1223.6875 1387 1223.6875 1374 c 0,60,61
 1223.6875 1360 1223.6875 1360 1220.6875 1332 c 0,62,63
 1217.6875 1297 1217.6875 1297 1150.6875 1003 c 0,64,65
 1140.6875 961 1140.6875 961 1131.6875 917 c 0,66,67
 1072.6875 660 1072.6875 660 1002.6875 389 c 0,68,69
 957.6875 213 957.6875 213 929.6875 127 c 0,70,71
 903.6875 46 903.6875 46 887.6875 22 c 0,72,73
 849.6875 -28 849.6875 -28 749.6875 -28 c 0,74,75
 745.6875 -28 745.6875 -28 740.6875 -28 c 0,76,77
 703.6875 -28 703.6875 -28 679.6875 -15 c 0,78,79
 649.6875 1 649.6875 1 642.6875 27 c 0,80,81
 632.6875 68 632.6875 68 585.6875 207 c 2,82,83
 535.6875 352 535.6875 352 483.6875 485 c 2,84,85
 431.6875 636 431.6875 636 380.6875 822 c 0,86,87
 352.6875 917 352.6875 917 334.6875 996 c 1,0,1
EndSplineSet
Validated: 524321
EndChar

StartChar: O
Encoding: 79 79 47
Width: 1130
GlyphClass: 2
Flags: W
LayerCount: 2
Fore
SplineSet
1134.65039062 983 m 2,0,1
 1132.65039062 974 1132.65039062 974 1134.65039062 983 c 1,2,3
 1099.65039062 755 1099.65039062 755 1033.65039062 537 c 0,4,5
 997.650390625 417 997.650390625 417 965.650390625 350 c 0,6,7
 918.650390625 254 918.650390625 254 864.650390625 184 c 128,-1,8
 810.650390625 114 810.650390625 114 753.650390625 69 c 128,-1,9
 696.650390625 24 696.650390625 24 623.650390625 -3 c 0,10,11
 550.650390625 -30 550.650390625 -30 479.650390625 -40 c 128,-1,12
 408.650390625 -50 408.650390625 -50 321.650390625 -50 c 2,13,-1
 321.650390625 -50 l 1,14,15
 186.650390625 -48 186.650390625 -48 99.650390625 29 c 0,16,17
 18.650390625 106 18.650390625 106 -4.349609375 234 c 0,18,19
 -26.349609375 356 -26.349609375 356 6.650390625 500 c 0,20,21
 7.650390625 505 7.650390625 505 8.650390625 511 c 2,22,23
 13.650390625 534 13.650390625 534 16.650390625 544 c 2,24,25
 37.650390625 633 37.650390625 633 51.650390625 687.5 c 128,-1,26
 65.650390625 742 65.650390625 742 92.650390625 832 c 0,27,28
 145.650390625 1009 145.650390625 1009 233.650390625 1160 c 1,29,30
 230.650390625 1146 230.650390625 1146 233.650390625 1160 c 2,31,32
 316.650390625 1297 316.650390625 1297 464.650390625 1384 c 0,33,34
 621.650390625 1470 621.650390625 1470 794.650390625 1470 c 0,35,36
 882.650390625 1470 882.650390625 1470 955.650390625 1437 c 0,37,38
 1027.65039062 1405 1027.65039062 1405 1072.65039062 1344 c 128,-1,39
 1117.65039062 1283 1117.65039062 1283 1134.65039062 1190 c 128,-1,40
 1151.65039062 1097 1151.65039062 1097 1134.65039062 983 c 2,0,1
300.150390625 193 m 128,-1,42
 329.650390625 173 329.650390625 173 373.650390625 173 c 0,43,44
 481.650390625 173 481.650390625 173 577.650390625 223 c 0,45,46
 626.650390625 248 626.650390625 248 671.650390625 292 c 128,-1,47
 716.650390625 336 716.650390625 336 748.650390625 394 c 0,48,49
 761.650390625 417 761.650390625 417 791.650390625 507.5 c 128,-1,50
 821.650390625 598 821.650390625 598 854.650390625 725 c 0,51,52
 864.650390625 762 864.650390625 762 872.650390625 798 c 0,53,54
 893.650390625 887 893.650390625 887 905.650390625 974 c 0,55,56
 922.650390625 1096 922.650390625 1096 869.650390625 1176 c 0,57,58
 818.650390625 1254 818.650390625 1254 718.650390625 1254 c 128,-1,59
 618.650390625 1254 618.650390625 1254 535.650390625 1184 c 0,60,61
 448.650390625 1111 448.650390625 1111 384.650390625 979 c 0,62,63
 313.650390625 832 313.650390625 832 269.650390625 640 c 0,64,65
 241.650390625 520 241.650390625 520 234.650390625 432 c 0,66,67
 229.650390625 381 229.650390625 381 234.650390625 330.5 c 128,-1,68
 239.650390625 280 239.650390625 280 255.150390625 246.5 c 128,-1,41
 270.650390625 213 270.650390625 213 300.150390625 193 c 128,-1,42
EndSplineSet
Validated: 524325
EndChar

StartChar: P
Encoding: 80 80 48
Width: 1130
GlyphClass: 2
Flags: W
LayerCount: 2
Fore
SplineSet
240.01171875 223 m 0,0,1
 219.01171875 76 219.01171875 76 217.01171875 66 c 0,2,3
 205.01171875 15 205.01171875 15 152.01171875 -13 c 0,4,5
 109.01171875 -39 109.01171875 -39 64.01171875 -39 c 0,6,7
 10.01171875 -39 10.01171875 -39 -16.98828125 -6 c 0,8,9
 -39.98828125 22 -39.98828125 22 -28.98828125 69 c 0,10,11
 -26.98828125 77 -26.98828125 77 -21.98828125 97 c 0,12,13
 -13.98828125 125 -13.98828125 125 3.01171875 194 c 0,14,15
 30.01171875 309 30.01171875 309 71.01171875 509 c 0,16,17
 142.01171875 849 142.01171875 849 156.01171875 912 c 0,18,19
 191.01171875 1073 191.01171875 1073 238.01171875 1259 c 1,20,21
 233.01171875 1243 233.01171875 1243 235.01171875 1263 c 1,22,23
 230.01171875 1246 230.01171875 1246 234.01171875 1265 c 1,24,25
 224.01171875 1292 224.01171875 1292 230.01171875 1318 c 0,26,27
 232.01171875 1326 232.01171875 1326 234.01171875 1333 c 0,28,29
 247.01171875 1364 247.01171875 1364 273.01171875 1389 c 0,30,31
 300.01171875 1414 300.01171875 1414 328.01171875 1420 c 0,32,33
 402.01171875 1437 402.01171875 1437 543.01171875 1447 c 0,34,35
 692.01171875 1457 692.01171875 1457 752.01171875 1457 c 0,36,37
 900.01171875 1457 900.01171875 1457 1005.01171875 1406 c 0,38,39
 1100.01171875 1355 1100.01171875 1355 1140.01171875 1252 c 128,-1,40
 1180.01171875 1149 1180.01171875 1149 1149.01171875 1007 c 1,41,42
 1146.01171875 993 1146.01171875 993 1149.01171875 1007 c 2,43,44
 1122.01171875 891 1122.01171875 891 1062.51171875 788.5 c 128,-1,45
 1003.01171875 686 1003.01171875 686 922.01171875 610 c 128,-1,46
 841.01171875 534 841.01171875 534 733.01171875 490 c 0,47,48
 622.01171875 446 622.01171875 446 504.01171875 446 c 0,49,50
 364.01171875 446 364.01171875 446 278.01171875 462 c 1,51,52
 257.01171875 345 257.01171875 345 240.01171875 223 c 0,0,1
324.01171875 685 m 1,53,54
 394.01171875 663 394.01171875 663 492.01171875 663 c 0,55,56
 550.01171875 663 550.01171875 663 599.51171875 671 c 128,-1,57
 649.01171875 679 649.01171875 679 685.51171875 692 c 128,-1,58
 722.01171875 705 722.01171875 705 753.51171875 725.5 c 128,-1,59
 785.01171875 746 785.01171875 746 807.01171875 766 c 128,-1,60
 829.01171875 786 829.01171875 786 848.01171875 814 c 128,-1,61
 867.01171875 842 867.01171875 842 879.01171875 864.5 c 128,-1,62
 891.01171875 887 891.01171875 887 901.51171875 918.5 c 128,-1,63
 912.01171875 950 912.01171875 950 918.01171875 970 c 128,-1,64
 924.01171875 990 924.01171875 990 930.01171875 1019 c 0,65,66
 942.01171875 1069 942.01171875 1069 932.01171875 1108 c 0,67,68
 922.01171875 1147 922.01171875 1147 899.01171875 1171 c 128,-1,69
 876.01171875 1195 876.01171875 1195 840.51171875 1211 c 128,-1,70
 805.01171875 1227 805.01171875 1227 770.51171875 1233.5 c 128,-1,71
 736.01171875 1240 736.01171875 1240 702.01171875 1240 c 0,72,73
 635.01171875 1240 635.01171875 1240 459.01171875 1226 c 1,74,75
 395.01171875 980 395.01171875 980 374.01171875 896 c 0,76,77
 346.01171875 783 346.01171875 783 324.01171875 685 c 1,53,54
EndSplineSet
Validated: 524321
EndChar

StartChar: Q
Encoding: 81 81 49
Width: 1130
GlyphClass: 2
Flags: W
LayerCount: 2
Fore
SplineSet
776.814453125 -417 m 0,0,1
 747.814453125 -434 747.814453125 -434 718.814453125 -434 c 0,2,3
 704.814453125 -434 704.814453125 -434 690.814453125 -430 c 0,4,5
 650.814453125 -418 650.814453125 -418 630.814453125 -378 c 0,6,7
 609.814453125 -338 609.814453125 -338 564.814453125 -240.5 c 128,-1,8
 519.814453125 -143 519.814453125 -143 479.814453125 -44 c 1,9,10
 429.814453125 -50 429.814453125 -50 372.814453125 -50 c 0,11,12
 275.814453125 -50 275.814453125 -50 200.814453125 -19 c 0,13,14
 125.814453125 11 125.814453125 11 81.814453125 63 c 0,15,16
 38.814453125 116 38.814453125 116 14.814453125 186 c 0,17,18
 -29.185546875 322 -29.185546875 322 5.814453125 510 c 0,19,20
 15.814453125 562 15.814453125 562 27.814453125 613 c 0,21,22
 101.814453125 934 101.814453125 934 230.814453125 1151 c 1,23,24
 227.814453125 1137 227.814453125 1137 230.814453125 1152 c 1,25,26
 314.814453125 1289 314.814453125 1289 463.814453125 1380 c 0,27,28
 620.814453125 1470 620.814453125 1470 790.814453125 1470 c 0,29,30
 971.814453125 1470 971.814453125 1470 1068.81445312 1355 c 0,31,32
 1114.81445312 1297 1114.81445312 1297 1131.31445312 1201.5 c 128,-1,33
 1147.81445312 1106 1147.81445312 1106 1131.81445312 982 c 0,34,35
 1117.81445312 872 1117.81445312 872 1082.81445312 725 c 0,36,37
 1022.81445312 466 1022.81445312 466 967.814453125 337 c 0,38,39
 879.814453125 128 879.814453125 128 719.814453125 30 c 1,40,41
 759.814453125 -60 759.814453125 -60 820.814453125 -177 c 0,42,43
 856.814453125 -249 856.814453125 -249 856.814453125 -250 c 0,44,45
 866.814453125 -274 866.814453125 -274 859.814453125 -302 c 0,46,47
 857.814453125 -309 857.814453125 -309 855.814453125 -316 c 0,48,49
 843.814453125 -347 843.814453125 -347 821.814453125 -375 c 0,50,51
 798.814453125 -403 798.814453125 -403 776.814453125 -417 c 0,0,1
364.814453125 233 m 0,52,53
 356.814453125 287 356.814453125 287 365.814453125 329 c 0,54,55
 380.814453125 395 380.814453125 395 438.814453125 433 c 0,56,57
 472.814453125 456 472.814453125 456 505.814453125 456 c 0,58,59
 531.814453125 456 531.814453125 456 552.814453125 438 c 0,60,61
 573.814453125 420 573.814453125 420 579.814453125 381 c 0,62,63
 591.814453125 292 591.814453125 292 626.814453125 187 c 1,64,65
 701.814453125 241 701.814453125 241 747.814453125 344 c 0,66,67
 759.814453125 373 759.814453125 373 788.314453125 465 c 128,-1,68
 816.814453125 557 816.814453125 557 850.814453125 696 c 0,69,70
 854.814453125 712 854.814453125 712 858.814453125 729 c 0,71,72
 886.814453125 850 886.814453125 850 898.814453125 960 c 0,73,74
 913.814453125 1098 913.814453125 1098 864.814453125 1177 c 0,75,76
 816.814453125 1254 816.814453125 1254 715.814453125 1254 c 128,-1,77
 614.814453125 1254 614.814453125 1254 529.814453125 1182 c 0,78,79
 441.814453125 1107 441.814453125 1107 377.814453125 970 c 0,80,81
 303.814453125 812 303.814453125 812 264.814453125 640 c 0,82,83
 250.814453125 578 250.814453125 578 239.814453125 514 c 2,84,85
 233.814453125 489 233.814453125 489 239.814453125 514 c 2,86,87
 220.814453125 402 220.814453125 402 236.314453125 312.5 c 128,-1,88
 251.814453125 223 251.814453125 223 298.814453125 172 c 0,89,90
 336.814453125 131 336.814453125 131 390.814453125 124 c 1,91,92
 371.814453125 191 371.814453125 191 364.814453125 233 c 0,52,53
EndSplineSet
Validated: 524325
EndChar

StartChar: R
Encoding: 82 82 50
Width: 1130
GlyphClass: 2
Flags: W
LayerCount: 2
Fore
SplineSet
239.3984375 264 m 0,0,1
 217.3984375 95 217.3984375 95 212.3984375 71 c 0,2,3
 200.3984375 18 200.3984375 18 149.3984375 -13 c 0,4,5
 106.3984375 -39 106.3984375 -39 60.3984375 -39 c 0,6,7
 56.3984375 -39 56.3984375 -39 53.3984375 -39 c 0,8,9
 6.3984375 -38 6.3984375 -38 -19.6015625 -6 c 0,10,11
 -43.6015625 22 -43.6015625 22 -32.6015625 70 c 0,12,13
 -30.6015625 78 -30.6015625 78 -27.6015625 85 c 0,14,15
 3.3984375 187 3.3984375 187 20.3984375 259 c 0,16,17
 24.3984375 277 24.3984375 277 38.8984375 339.5 c 128,-1,18
 53.3984375 402 53.3984375 402 77.8984375 512 c 128,-1,19
 102.3984375 622 102.3984375 622 108.3984375 648.5 c 128,-1,20
 114.3984375 675 114.3984375 675 136.3984375 759 c 0,21,22
 173.3984375 900 173.3984375 900 195.3984375 1009 c 0,23,24
 209.3984375 1076 209.3984375 1076 227.3984375 1191.5 c 128,-1,25
 245.3984375 1307 245.3984375 1307 251.3984375 1331 c 2,26,27
 248.3984375 1316 248.3984375 1316 253.3984375 1341 c 2,28,29
 254.3984375 1345 254.3984375 1345 255.3984375 1349 c 0,30,31
 263.3984375 1385 263.3984375 1385 303.8984375 1424 c 128,-1,32
 344.3984375 1463 344.3984375 1463 398.3984375 1463 c 0,33,34
 438.3984375 1463 438.3984375 1463 461.3984375 1446 c 1,35,36
 625.3984375 1438 625.3984375 1438 760.3984375 1402 c 128,-1,37
 895.3984375 1366 895.3984375 1366 979.3984375 1314 c 0,38,39
 1060.3984375 1262 1060.3984375 1262 1105.8984375 1193.5 c 128,-1,40
 1151.3984375 1125 1151.3984375 1125 1161.8984375 1055 c 128,-1,41
 1172.3984375 985 1172.3984375 985 1156.3984375 913 c 0,42,43
 1119.3984375 754 1119.3984375 754 983.3984375 674 c 0,44,45
 939.3984375 648 939.3984375 648 892.3984375 632 c 0,46,47
 842.3984375 615 842.3984375 615 777.3984375 602 c 128,-1,48
 712.3984375 589 712.3984375 589 667.3984375 583.5 c 128,-1,49
 622.3984375 578 622.3984375 578 593.3984375 575 c 1,50,51
 740.3984375 484 740.3984375 484 844.3984375 369 c 0,52,53
 962.3984375 229 962.3984375 229 987.3984375 126 c 1,54,55
 989.3984375 103 989.3984375 103 984.8984375 82 c 128,-1,56
 980.3984375 61 980.3984375 61 968.3984375 42 c 0,57,58
 946.3984375 5 946.3984375 5 911.3984375 -16 c 0,59,60
 880.3984375 -37 880.3984375 -37 849.3984375 -36 c 0,61,62
 792.3984375 -36 792.3984375 -36 763.3984375 25 c 0,63,64
 742.3984375 67 742.3984375 67 696.8984375 128.5 c 128,-1,65
 651.3984375 190 651.3984375 190 583.3984375 265.5 c 128,-1,66
 515.3984375 341 515.3984375 341 424.3984375 415 c 0,67,68
 350.3984375 475 350.3984375 475 277.3984375 515 c 1,69,70
 259.3984375 412 259.3984375 412 239.3984375 264 c 0,0,1
388.3984375 920 m 0,71,72
 372.3984375 868 372.3984375 868 336.3984375 758 c 1,73,74
 351.3984375 757 351.3984375 757 375.8984375 756.5 c 128,-1,75
 400.3984375 756 400.3984375 756 437.3984375 759 c 2,76,-1
 437.3984375 759 l 1,77,78
 522.3984375 763 522.3984375 763 581.3984375 768 c 0,79,80
 729.3984375 780 729.3984375 780 798.3984375 801 c 0,81,82
 836.3984375 813 836.3984375 813 866.3984375 829 c 128,-1,83
 896.3984375 845 896.3984375 845 911.8984375 864.5 c 128,-1,84
 927.3984375 884 927.3984375 884 933.3984375 911 c 0,85,86
 944.3984375 959 944.3984375 959 916.8984375 1008 c 128,-1,87
 889.3984375 1057 889.3984375 1057 835.3984375 1096 c 128,-1,88
 781.3984375 1135 781.3984375 1135 707.8984375 1167.5 c 128,-1,89
 634.3984375 1200 634.3984375 1200 572.8984375 1218.5 c 128,-1,90
 511.3984375 1237 511.3984375 1237 460.3984375 1247 c 1,91,92
 434.3984375 1117 434.3984375 1117 416.3984375 1020 c 1,93,-1
 416.3984375 1019 l 2,94,95
 407.3984375 980 407.3984375 980 388.3984375 920 c 0,71,72
EndSplineSet
Validated: 524321
EndChar

StartChar: S
Encoding: 83 83 51
Width: 1130
GlyphClass: 2
Flags: W
LayerCount: 2
Fore
SplineSet
-73.8681640625 150 m 2,0,1
 -83.8681640625 196 -83.8681640625 196 -74.8681640625 233 c 0,2,3
 -71.8681640625 246 -71.8681640625 246 -66.8681640625 257 c 0,4,5
 -44.8681640625 304 -44.8681640625 304 2.1318359375 326 c 0,6,7
 29.1318359375 338 29.1318359375 338 44.1318359375 341.5 c 128,-1,8
 59.1318359375 345 59.1318359375 345 68.6318359375 345 c 128,-1,9
 78.1318359375 345 78.1318359375 345 85.1318359375 344 c 0,10,11
 108.131835938 341 108.131835938 341 123.131835938 323.5 c 128,-1,12
 138.131835938 306 138.131835938 306 151.131835938 276 c 1,13,14
 171.131835938 225 171.131835938 225 223.631835938 194.5 c 128,-1,15
 276.131835938 164 276.131835938 164 354.131835938 164 c 0,16,17
 400.131835938 164 400.131835938 164 454.131835938 176.5 c 128,-1,18
 508.131835938 189 508.131835938 189 562.631835938 214 c 128,-1,19
 617.131835938 239 617.131835938 239 662.631835938 272 c 128,-1,20
 708.131835938 305 708.131835938 305 740.631835938 348.5 c 128,-1,21
 773.131835938 392 773.131835938 392 784.131835938 439 c 0,22,23
 790.131835938 466 790.131835938 466 792.131835938 488 c 128,-1,24
 794.131835938 510 794.131835938 510 789.131835938 535 c 128,-1,25
 784.131835938 560 784.131835938 560 771.131835938 580 c 128,-1,26
 758.131835938 600 758.131835938 600 731.131835938 621 c 128,-1,27
 704.131835938 642 704.131835938 642 662.631835938 658.5 c 128,-1,28
 621.131835938 675 621.131835938 675 557.631835938 689.5 c 128,-1,29
 494.131835938 704 494.131835938 704 415.131835938 712.5 c 128,-1,30
 336.131835938 721 336.131835938 721 279.131835938 753 c 0,31,32
 226.131835938 784 226.131835938 784 198.631835938 829 c 128,-1,33
 171.131835938 874 171.131835938 874 162.631835938 925.5 c 128,-1,34
 154.131835938 977 154.131835938 977 165.131835938 1028 c 0,35,36
 181.131835938 1099 181.131835938 1099 220.631835938 1165.5 c 128,-1,37
 260.131835938 1232 260.131835938 1232 322.131835938 1290 c 128,-1,38
 384.131835938 1348 384.131835938 1348 465.131835938 1390 c 0,39,40
 548.131835938 1433 548.131835938 1433 654.131835938 1458 c 0,41,42
 761.131835938 1483 761.131835938 1483 878.131835938 1483 c 0,43,44
 935.131835938 1483 935.131835938 1483 1031.13183594 1473 c 0,45,46
 1120.13183594 1463 1120.13183594 1463 1153.13183594 1448 c 0,47,48
 1193.13183594 1431 1193.13183594 1431 1205.13183594 1392 c 0,49,50
 1213.13183594 1362 1213.13183594 1362 1205.13183594 1330 c 0,51,52
 1194.13183594 1285 1194.13183594 1285 1166.13183594 1259 c 0,53,54
 1143.13183594 1239 1143.13183594 1239 1115.13183594 1235 c 0,55,56
 1102.13183594 1233 1102.13183594 1233 1092.63183594 1233 c 128,-1,57
 1083.13183594 1233 1083.13183594 1233 1071.13183594 1234 c 0,58,59
 1050.13183594 1236 1050.13183594 1236 1029.13183594 1245 c 0,60,61
 999.131835938 1254 999.131835938 1254 981.131835938 1258 c 0,62,63
 961.131835938 1262 961.131835938 1262 916.131835938 1266.5 c 128,-1,64
 871.131835938 1271 871.131835938 1271 812.131835938 1271 c 0,65,66
 721.131835938 1271 721.131835938 1271 636.131835938 1246 c 128,-1,67
 551.131835938 1221 551.131835938 1221 491.631835938 1173.5 c 128,-1,68
 432.131835938 1126 432.131835938 1126 419.131835938 1070 c 0,69,70
 404.131835938 1005 404.131835938 1005 454.131835938 959 c 0,71,72
 507.131835938 911 507.131835938 911 625.131835938 906 c 0,73,74
 742.131835938 900 742.131835938 900 828.131835938 871 c 0,75,76
 912.131835938 842 912.131835938 842 955.631835938 799 c 128,-1,77
 999.131835938 756 999.131835938 756 1020.63183594 698 c 128,-1,78
 1042.13183594 640 1042.13183594 640 1041.63183594 583.5 c 128,-1,79
 1041.13183594 527 1041.13183594 527 1027.13183594 466 c 0,80,81
 1005.13183594 371 1005.13183594 371 954.631835938 287 c 128,-1,82
 904.131835938 203 904.131835938 203 834.131835938 140 c 128,-1,83
 764.131835938 77 764.131835938 77 679.131835938 32 c 0,84,85
 589.131835938 -13 589.131835938 -13 491.131835938 -36 c 0,86,87
 392.131835938 -59 392.131835938 -59 295.131835938 -59 c 0,88,89
 144.131835938 -59 144.131835938 -59 43.1318359375 1 c 0,90,91
 -51.8681640625 61 -51.8681640625 61 -73.8681640625 150 c 1,92,93
 -67.8681640625 175 -67.8681640625 175 -73.8681640625 150 c 2,0,1
EndSplineSet
Validated: 524321
EndChar

StartChar: T
Encoding: 84 84 52
Width: 1130
GlyphClass: 2
Flags: W
LayerCount: 2
Fore
SplineSet
362.286132812 3 m 0,0,1
 315.286132812 -26 315.286132812 -26 267.286132812 -26 c 0,2,3
 264.286132812 -26 264.286132812 -26 260.286132812 -26 c 0,4,5
 208.286132812 -26 208.286132812 -26 182.286132812 9 c 0,6,7
 159.286132812 38 159.286132812 38 169.286132812 86 c 0,8,9
 171.286132812 94 171.286132812 94 177.286132812 112 c 128,-1,10
 183.286132812 130 183.286132812 130 197.286132812 193 c 0,11,12
 230.286132812 334 230.286132812 334 301.786132812 698 c 128,-1,13
 373.286132812 1062 373.286132812 1062 409.286132812 1217 c 0,14,15
 411.286132812 1224 411.286132812 1224 412.286132812 1229 c 1,16,17
 172.286132812 1241 172.286132812 1241 135.286132812 1247 c 0,18,19
 88.2861328125 1255 88.2861328125 1255 65.2861328125 1273 c 0,20,21
 31.2861328125 1300 31.2861328125 1300 41.2861328125 1348 c 0,22,23
 42.2861328125 1351 42.2861328125 1351 42.2861328125 1354 c 0,24,25
 52.2861328125 1398 52.2861328125 1398 90.2861328125 1432 c 0,26,27
 123.286132812 1463 123.286132812 1463 166.286132812 1463 c 0,28,29
 178.286132812 1463 178.286132812 1463 190.286132812 1461 c 0,30,31
 289.286132812 1442 289.286132812 1442 1001.28613281 1435 c 0,32,33
 1057.28613281 1435 1057.28613281 1435 1076.28613281 1405 c 0,34,35
 1097.28613281 1373 1097.28613281 1373 1088.28613281 1331 c 1,36,37
 1077.28613281 1284 1077.28613281 1284 1040.78613281 1247.5 c 128,-1,38
 1004.28613281 1211 1004.28613281 1211 953.286132812 1211 c 0,39,40
 952.286132812 1211 952.286132812 1211 668.286132812 1221 c 1,41,42
 579.286132812 819 579.286132812 819 433.286132812 89 c 1,43,44
 416.286132812 35 416.286132812 35 362.286132812 3 c 0,0,1
EndSplineSet
Validated: 524321
EndChar

StartChar: U
Encoding: 85 85 53
Width: 1130
GlyphClass: 2
Flags: W
LayerCount: 2
Fore
SplineSet
654.080078125 34 m 0,0,1
 596.080078125 3 596.080078125 3 535.080078125 -18 c 0,2,3
 474.080078125 -40 474.080078125 -40 419.080078125 -49.5 c 128,-1,4
 364.080078125 -59 364.080078125 -59 306.580078125 -59 c 128,-1,5
 249.080078125 -59 249.080078125 -59 188.080078125 -42 c 128,-1,6
 127.080078125 -25 127.080078125 -25 69.080078125 17 c 0,7,8
 15.080078125 58 15.080078125 58 -18.919921875 120 c 128,-1,9
 -52.919921875 182 -52.919921875 182 -62.919921875 279 c 128,-1,10
 -72.919921875 376 -72.919921875 376 -48.919921875 497 c 0,11,12
 27.080078125 868 27.080078125 868 69.080078125 1050.5 c 128,-1,13
 111.080078125 1233 111.080078125 1233 134.080078125 1317 c 0,14,15
 150.080078125 1380 150.080078125 1380 193.580078125 1416.5 c 128,-1,16
 237.080078125 1453 237.080078125 1453 285.080078125 1453 c 0,17,18
 342.080078125 1453 342.080078125 1453 358.080078125 1410 c 0,19,20
 370.080078125 1379 370.080078125 1379 358.080078125 1327 c 0,21,22
 204.080078125 660 204.080078125 660 183.080078125 521 c 0,23,24
 174.080078125 463 174.080078125 463 173.580078125 418.5 c 128,-1,25
 173.080078125 374 173.080078125 374 183.580078125 328 c 128,-1,26
 194.080078125 282 194.080078125 282 216.580078125 249.5 c 128,-1,27
 239.080078125 217 239.080078125 217 281.080078125 197 c 128,-1,28
 323.080078125 177 323.080078125 177 382.080078125 177 c 0,29,30
 519.080078125 177 519.080078125 177 624.080078125 264 c 128,-1,31
 729.080078125 351 729.080078125 351 784.080078125 534 c 0,32,33
 809.080078125 617 809.080078125 617 835.080078125 724 c 0,34,35
 871.080078125 867 871.080078125 867 893.080078125 964 c 0,36,37
 939.080078125 1170 939.080078125 1170 946.080078125 1202.5 c 128,-1,38
 953.080078125 1235 953.080078125 1235 967.080078125 1299 c 0,39,40
 978.080078125 1346 978.080078125 1346 993.580078125 1379.5 c 128,-1,41
 1009.08007812 1413 1009.08007812 1413 1032.08007812 1429 c 0,42,43
 1055.08007812 1446 1055.08007812 1446 1072.58007812 1450.5 c 128,-1,44
 1090.08007812 1455 1090.08007812 1455 1114.08007812 1455 c 0,45,46
 1161.08007812 1455 1161.08007812 1455 1182.08007812 1418 c 128,-1,47
 1203.08007812 1381 1203.08007812 1381 1192.08007812 1322 c 0,48,49
 1164.08007812 1167 1164.08007812 1167 1118.58007812 970.5 c 128,-1,50
 1073.08007812 774 1073.08007812 774 1011.08007812 537 c 0,51,52
 987.080078125 444 987.080078125 444 948.080078125 363.5 c 128,-1,53
 909.080078125 283 909.080078125 283 863.580078125 223 c 128,-1,54
 818.080078125 163 818.080078125 163 764.080078125 114 c 128,-1,55
 710.080078125 65 710.080078125 65 654.080078125 34 c 0,0,1
EndSplineSet
Validated: 524321
EndChar

StartChar: V
Encoding: 86 86 54
Width: 1130
GlyphClass: 2
Flags: W
LayerCount: 2
Fore
SplineSet
261.828125 -25 m 0,0,1
 254.828125 -25 254.828125 -25 246.828125 -24 c 0,2,3
 201.828125 -24 201.828125 -24 172.828125 -9 c 0,4,5
 133.828125 10 133.828125 10 122.828125 50 c 0,6,7
 87.828125 268 87.828125 268 41.828125 724 c 0,8,9
 3.828125 1182 3.828125 1182 6.828125 1282 c 0,10,11
 7.828125 1322 7.828125 1322 15.828125 1358 c 0,12,13
 21.828125 1386 21.828125 1386 38.828125 1408 c 0,14,15
 60.828125 1435 60.828125 1435 98.828125 1448 c 0,16,17
 121.828125 1456 121.828125 1456 144.828125 1456 c 128,-1,18
 167.828125 1456 167.828125 1456 189.828125 1445 c 0,19,20
 227.828125 1424 227.828125 1424 234.828125 1360 c 0,21,22
 236.828125 1314 236.828125 1314 284.828125 744 c 0,23,24
 307.828125 484 307.828125 484 322.828125 349 c 1,25,26
 447.828125 566 447.828125 566 652.828125 932 c 2,27,-1
 892.828125 1360 l 2,28,29
 929.828125 1423 929.828125 1423 980.828125 1445 c 0,30,31
 1008.828125 1456 1008.828125 1456 1032.328125 1456 c 128,-1,32
 1055.828125 1456 1055.828125 1456 1074.828125 1448 c 0,33,34
 1099.828125 1438 1099.828125 1438 1112.828125 1417 c 0,35,36
 1125.828125 1395 1125.828125 1395 1122.828125 1364 c 0,37,38
 1122.828125 1358 1122.828125 1358 1120.828125 1352 c 0,39,40
 1111.828125 1315 1111.828125 1315 1086.828125 1272 c 0,41,42
 1020.828125 1168 1020.828125 1168 757.828125 700 c 0,43,44
 483.828125 227 483.828125 227 399.828125 55 c 0,45,46
 380.828125 20 380.828125 20 351.828125 0 c 0,47,48
 312.828125 -25 312.828125 -25 261.828125 -25 c 0,0,1
EndSplineSet
Validated: 524321
EndChar

StartChar: W
Encoding: 87 87 55
Width: 1130
GlyphClass: 2
Flags: W
LayerCount: 2
Fore
SplineSet
982.91015625 1295 m 1,0,1
 986.91015625 1313 986.91015625 1313 990.91015625 1332 c 1,2,3
 1003.91015625 1389 1003.91015625 1389 1041.91015625 1425 c 0,4,5
 1082.91015625 1461 1082.91015625 1461 1128.91015625 1461 c 0,6,7
 1225.91015625 1461 1225.91015625 1461 1190.91015625 1310 c 0,8,9
 1165.91015625 1202 1165.91015625 1202 1097.91015625 985 c 0,10,11
 1010.91015625 710 1010.91015625 710 1008.91015625 701 c 0,12,13
 980.91015625 614 980.91015625 614 924.91015625 444 c 0,14,15
 868.91015625 274 868.91015625 274 832.91015625 180 c 0,16,17
 796.91015625 91 796.91015625 91 772.91015625 57 c 0,18,19
 739.91015625 14 739.91015625 14 686.91015625 -6 c 0,20,21
 643.91015625 -23 643.91015625 -23 605.91015625 -23 c 0,22,23
 598.91015625 -23 598.91015625 -23 590.91015625 -22 c 0,24,25
 544.91015625 -22 544.91015625 -22 516.91015625 -7 c 0,26,27
 478.91015625 12 478.91015625 12 473.91015625 53 c 1,28,29
 467.91015625 248 467.91015625 248 513.91015625 574 c 2,30,-1
 565.91015625 940 l 1,31,32
 495.91015625 730 495.91015625 730 420.91015625 510 c 0,33,34
 299.91015625 158 299.91015625 158 246.91015625 53 c 0,35,36
 228.91015625 22 228.91015625 22 190.91015625 3 c 0,37,38
 154.91015625 -15 154.91015625 -15 119.91015625 -19 c 0,39,40
 97.91015625 -22 97.91015625 -22 83.41015625 -22.5 c 128,-1,41
 68.91015625 -23 68.91015625 -23 59.91015625 -22 c 2,42,-1
 52.91015625 -22 l 2,43,44
 34.91015625 -22 34.91015625 -22 22.91015625 -21 c 0,45,46
 10.91015625 -20 10.91015625 -20 -9.08984375 -17 c 0,47,48
 -29.08984375 -14 -29.08984375 -14 -41.08984375 -5 c 0,49,50
 -53.08984375 4 -53.08984375 4 -62.08984375 22 c 0,51,52
 -71.08984375 40 -71.08984375 40 -70.08984375 66 c 1,53,54
 -70.08984375 67 -70.08984375 67 -70.08984375 66 c 1,55,56
 -69.08984375 80 -69.08984375 80 -59.08984375 199 c 0,57,58
 -50.08984375 316 -50.08984375 316 -38.08984375 414 c 0,59,60
 -6.08984375 648 -6.08984375 648 88.91015625 1291 c 0,61,62
 91.91015625 1309 91.91015625 1309 95.91015625 1326 c 0,63,64
 117.91015625 1422 117.91015625 1422 194.91015625 1455 c 0,65,66
 213.91015625 1462 213.91015625 1462 233.91015625 1462 c 0,67,68
 238.91015625 1462 238.91015625 1462 244.91015625 1461 c 0,69,70
 267.91015625 1459 267.91015625 1459 285.91015625 1451 c 0,71,72
 307.91015625 1442 307.91015625 1442 316.91015625 1421 c 0,73,74
 324.91015625 1397 324.91015625 1397 317.91015625 1368 c 2,75,76
 315.91015625 1360 315.91015625 1360 313.91015625 1352 c 1,77,78
 282.91015625 1216 282.91015625 1216 180.91015625 493 c 0,79,80
 173.91015625 444 173.91015625 444 164.91015625 368 c 1,81,82
 175.91015625 399 175.91015625 399 203.91015625 478 c 0,83,84
 286.91015625 713 286.91015625 713 311.91015625 782 c 0,85,86
 509.91015625 1337 509.91015625 1337 554.91015625 1407 c 1,87,88
 594.91015625 1457 594.91015625 1457 702.91015625 1457 c 0,89,90
 707.91015625 1457 707.91015625 1457 712.91015625 1457 c 0,91,92
 753.91015625 1457 753.91015625 1457 780.91015625 1444 c 0,93,94
 812.91015625 1429 812.91015625 1429 815.91015625 1402 c 0,95,96
 816.91015625 1366 816.91015625 1366 809.91015625 1280 c 0,97,98
 795.91015625 1122 795.91015625 1122 773.91015625 924 c 0,99,100
 750.91015625 723 750.91015625 723 742.91015625 641 c 0,101,102
 732.91015625 544 732.91015625 544 723.91015625 427 c 1,103,104
 803.91015625 670 803.91015625 670 903.91015625 1010 c 0,105,106
 964.91015625 1216 964.91015625 1216 982.91015625 1295 c 1,0,1
EndSplineSet
Validated: 524321
EndChar

StartChar: X
Encoding: 88 88 56
Width: 1130
GlyphClass: 2
Flags: W
LayerCount: 2
Fore
SplineSet
12.638671875 -44 m 0,0,1
 -7.361328125 -50 -7.361328125 -50 -22.361328125 -50 c 0,2,3
 -60.361328125 -50 -60.361328125 -50 -90.361328125 -20 c 0,4,5
 -120.361328125 9 -120.361328125 9 -110.361328125 49 c 0,6,7
 -99.361328125 98 -99.361328125 98 -58.361328125 155 c 0,8,9
 -37.361328125 182 -37.361328125 182 154.638671875 410 c 0,10,11
 351.638671875 629 351.638671875 629 441.638671875 735 c 1,12,-1
 224.638671875 1238 l 2,13,14
 204.638671875 1303 204.638671875 1303 217.638671875 1357 c 0,15,16
 226.638671875 1394 226.638671875 1394 269.638671875 1420 c 0,17,18
 296.638671875 1437 296.638671875 1437 326.638671875 1444 c 0,19,20
 338.638671875 1446 338.638671875 1446 350.638671875 1446 c 0,21,22
 371.638671875 1446 371.638671875 1446 393.638671875 1438 c 0,23,24
 427.638671875 1426 427.638671875 1426 451.638671875 1391 c 1,25,26
 497.638671875 1310 497.638671875 1310 648.638671875 933 c 1,27,28
 958.638671875 1315 958.638671875 1315 1040.63867188 1398 c 0,29,30
 1072.63867188 1430 1072.63867188 1430 1106.63867188 1443 c 0,31,32
 1133.63867188 1453 1133.63867188 1453 1156.63867188 1453 c 0,33,34
 1163.63867188 1453 1163.63867188 1453 1170.63867188 1452 c 0,35,36
 1197.63867188 1448 1197.63867188 1448 1215.63867188 1434 c 0,37,38
 1250.63867188 1407 1250.63867188 1407 1240.63867188 1364 c 0,39,40
 1229.63867188 1316 1229.63867188 1316 1196.63867188 1269 c 0,41,42
 1176.63867188 1244 1176.63867188 1244 993.638671875 1017 c 0,43,44
 804.638671875 800 804.638671875 800 733.638671875 715 c 1,45,46
 767.638671875 635 767.638671875 635 844.638671875 432 c 0,47,48
 910.638671875 228 910.638671875 228 940.638671875 163 c 0,49,50
 956.638671875 120 956.638671875 120 958.638671875 90 c 0,51,52
 959.638671875 57 959.638671875 57 954.638671875 34 c 0,53,54
 948.638671875 10 948.638671875 10 921.638671875 -11 c 0,55,56
 895.638671875 -32 895.638671875 -32 865.638671875 -41 c 0,57,58
 851.638671875 -45 851.638671875 -45 834.638671875 -44.5 c 128,-1,59
 817.638671875 -44 817.638671875 -44 797.638671875 -38 c 0,60,61
 762.638671875 -26 762.638671875 -26 734.638671875 11 c 0,62,63
 704.638671875 54 704.638671875 54 668.638671875 143 c 0,64,65
 632.638671875 234 632.638671875 234 592.638671875 357 c 0,66,67
 550.638671875 472 550.638671875 472 529.638671875 527 c 1,68,69
 443.638671875 434 443.638671875 434 274.638671875 232 c 0,70,71
 104.638671875 25 104.638671875 25 80.638671875 0 c 0,72,73
 46.638671875 -33 46.638671875 -33 12.638671875 -44 c 0,0,1
EndSplineSet
Validated: 524321
EndChar

StartChar: Y
Encoding: 89 89 57
Width: 1130
GlyphClass: 2
Flags: W
LayerCount: 2
Fore
SplineSet
102.458007812 -75 m 0,0,1
 84.4580078125 -81 84.4580078125 -81 67.4580078125 -81 c 0,2,3
 31.4580078125 -81 31.4580078125 -81 2.4580078125 -56 c 0,4,5
 -37.5419921875 -19 -37.5419921875 -19 -27.5419921875 41 c 0,6,7
 -26.5419921875 45 -26.5419921875 45 -26.5419921875 48 c 0,8,9
 -19.5419921875 78 -19.5419921875 78 4.4580078125 108 c 1,10,11
 156.458007812 320 156.458007812 320 304.458007812 508 c 1,12,13
 282.458007812 577 282.458007812 577 242.458007812 684.5 c 128,-1,14
 202.458007812 792 202.458007812 792 187.458007812 837 c 0,15,16
 174.458007812 882 174.458007812 882 144.458007812 969.5 c 128,-1,17
 114.458007812 1057 114.458007812 1057 96.4580078125 1121.5 c 128,-1,18
 78.4580078125 1186 78.4580078125 1186 70.4580078125 1249 c 0,19,20
 64.4580078125 1290 64.4580078125 1290 72.4580078125 1323 c 0,21,22
 74.4580078125 1332 74.4580078125 1332 77.4580078125 1340 c 0,23,24
 91.4580078125 1379 91.4580078125 1379 113.958007812 1403.5 c 128,-1,25
 136.458007812 1428 136.458007812 1428 167.458007812 1442 c 0,26,27
 195.458007812 1455 195.458007812 1455 223.458007812 1455 c 0,28,29
 243.458007812 1455 243.458007812 1455 262.458007812 1447 c 0,30,31
 286.458007812 1437 286.458007812 1437 302.458007812 1408 c 0,32,33
 318.458007812 1379 318.458007812 1379 321.458007812 1336 c 0,34,35
 324.458007812 1297 324.458007812 1297 331.458007812 1256 c 128,-1,36
 338.458007812 1215 338.458007812 1215 343.458007812 1189.5 c 128,-1,37
 348.458007812 1164 348.458007812 1164 363.458007812 1115.5 c 128,-1,38
 378.458007812 1067 378.458007812 1067 381.958007812 1055.5 c 128,-1,39
 385.458007812 1044 385.458007812 1044 405.958007812 987 c 128,-1,40
 426.458007812 930 426.458007812 930 427.458007812 927 c 0,41,42
 461.458007812 830 461.458007812 830 483.458007812 736 c 1,43,44
 494.458007812 751 494.458007812 751 506.458007812 769 c 0,45,46
 550.458007812 833 550.458007812 833 654.958007812 976 c 128,-1,47
 759.458007812 1119 759.458007812 1119 810.458007812 1198 c 0,48,49
 826.458007812 1224 826.458007812 1224 863.958007812 1274.5 c 128,-1,50
 901.458007812 1325 901.458007812 1325 917.458007812 1351 c 0,51,52
 940.458007812 1390 940.458007812 1390 967.958007812 1417 c 128,-1,53
 995.458007812 1444 995.458007812 1444 1021.45800781 1454.5 c 128,-1,54
 1047.45800781 1465 1047.45800781 1465 1070.45800781 1465 c 128,-1,55
 1093.45800781 1465 1093.45800781 1465 1112.45800781 1455 c 1,56,57
 1147.45800781 1435 1147.45800781 1435 1157.45800781 1389 c 0,58,59
 1162.45800781 1367 1162.45800781 1367 1155.45800781 1336 c 0,60,61
 1146.45800781 1299 1146.45800781 1299 1122.45800781 1260 c 0,62,63
 1106.45800781 1235 1106.45800781 1235 1064.95800781 1178.5 c 128,-1,64
 1023.45800781 1122 1023.45800781 1122 1000.45800781 1087 c 0,65,66
 973.458007812 1043 973.458007812 1043 895.458007812 939 c 128,-1,67
 817.458007812 835 817.458007812 835 768.458007812 765 c 0,68,69
 719.458007812 695 719.458007812 695 646.458007812 596 c 0,70,71
 565.458007812 486 565.458007812 486 504.458007812 404 c 0,72,73
 358.458007812 210 358.458007812 210 358.458007812 210 c 2,74,75
 279.458007812 120 279.458007812 120 191.458007812 -10 c 2,76,77
 156.458007812 -58 156.458007812 -58 102.458007812 -75 c 0,0,1
EndSplineSet
Validated: 524321
EndChar

StartChar: Z
Encoding: 90 90 58
Width: 1130
GlyphClass: 2
Flags: W
LayerCount: 2
Fore
SplineSet
455.413085938 496 m 128,-1,1
 300.913085938 329 300.913085938 329 200.913085938 204 c 1,2,3
 417.913085938 216 417.913085938 216 599.913085938 216 c 0,4,5
 779.913085938 216 779.913085938 216 860.913085938 203 c 1,6,7
 865.913085938 221 865.913085938 221 861.913085938 203 c 1,8,9
 918.913085938 191 918.913085938 191 938.913085938 166 c 128,-1,10
 958.913085938 141 958.913085938 141 952.913085938 101 c 2,11,12
 957.913085938 122 957.913085938 122 951.913085938 100 c 2,13,14
 950.913085938 96 950.913085938 96 950.913085938 93 c 0,15,16
 940.913085938 48 940.913085938 48 906.913085938 17 c 0,17,18
 869.913085938 -18 869.913085938 -18 801.913085938 -18 c 0,19,20
 788.913085938 -18 788.913085938 -18 617.913085938 -13 c 0,21,22
 364.913085938 -7 364.913085938 -7 233.913085938 -7 c 0,23,24
 103.913085938 -7 103.913085938 -7 -15.0869140625 -11 c 0,25,26
 -16.0869140625 -11 -16.0869140625 -11 -17.0869140625 -11 c 0,27,28
 -63.0869140625 -11 -63.0869140625 -11 -82.0869140625 38 c 0,29,30
 -100.086914062 83 -100.086914062 83 -90.0869140625 126 c 0,31,32
 -84.0869140625 152 -84.0869140625 152 -54.0869140625 200.5 c 128,-1,33
 -24.0869140625 249 -24.0869140625 249 39.9130859375 332 c 0,34,35
 127.913085938 445 127.913085938 445 412.913085938 757 c 0,36,37
 704.913085938 1069 704.913085938 1069 857.913085938 1220 c 1,38,39
 754.913085938 1218 754.913085938 1218 555.913085938 1215 c 0,40,41
 359.913085938 1213 359.913085938 1213 292.913085938 1210 c 0,42,43
 288.913085938 1210 288.913085938 1210 285.913085938 1210 c 0,44,45
 236.913085938 1210 236.913085938 1210 219.413085938 1243 c 128,-1,46
 201.913085938 1276 201.913085938 1276 211.913085938 1321 c 0,47,48
 211.913085938 1323 211.913085938 1323 212.913085938 1326 c 0,49,50
 223.913085938 1373 223.913085938 1373 273.413085938 1411.5 c 128,-1,51
 322.913085938 1450 322.913085938 1450 379.913085938 1450 c 0,52,53
 423.913085938 1450 423.913085938 1450 499.913085938 1438 c 0,54,55
 577.913085938 1426 577.913085938 1426 626.913085938 1426 c 2,56,-1
 626.913085938 1426 l 2,57,58
 716.913085938 1425 716.913085938 1425 809.413085938 1428.5 c 128,-1,59
 901.913085938 1432 901.913085938 1432 1018.91308594 1439 c 0,60,61
 1144.91308594 1448 1144.91308594 1448 1147.91308594 1448 c 0,62,63
 1188.91308594 1448 1188.91308594 1448 1209.41308594 1410.5 c 128,-1,64
 1229.91308594 1373 1229.91308594 1373 1220.91308594 1324 c 0,65,66
 1220.91308594 1323 1220.91308594 1323 1219.91308594 1321 c 0,67,68
 1213.91308594 1297 1213.91308594 1297 1179.41308594 1262.5 c 128,-1,69
 1144.91308594 1228 1144.91308594 1228 1102.41308594 1189.5 c 128,-1,70
 1059.91308594 1151 1059.91308594 1151 1042.91308594 1130 c 0,71,72
 960.913085938 1031 960.913085938 1031 785.913085938 847 c 0,73,0
 609.913085938 663 609.913085938 663 455.413085938 496 c 128,-1,1
EndSplineSet
Validated: 524325
EndChar

StartChar: bracketleft
Encoding: 91 91 59
Width: 1130
GlyphClass: 2
Flags: W
LayerCount: 2
Fore
SplineSet
806.887695312 1765 m 2,0,-1
 862.887695312 1764 l 2,1,2
 962.887695312 1764 962.887695312 1764 1048.88769531 1767 c 0,3,4
 1050.88769531 1767 1050.88769531 1767 1052.88769531 1767 c 0,5,6
 1104.88769531 1767 1104.88769531 1767 1124.38769531 1735.5 c 128,-1,7
 1143.88769531 1704 1143.88769531 1704 1135.88769531 1659 c 1,8,-1
 1134.88769531 1658 l 2,9,10
 1129.88769531 1637 1129.88769531 1637 1118.88769531 1615.5 c 128,-1,11
 1107.88769531 1594 1107.88769531 1594 1089.88769531 1573.5 c 128,-1,12
 1071.88769531 1553 1071.88769531 1553 1044.88769531 1541 c 0,13,14
 1025.88769531 1533 1025.88769531 1533 1006.88769531 1534 c 0,15,16
 997.887695312 1534 997.887695312 1534 988.887695312 1535 c 0,17,18
 916.887695312 1546 916.887695312 1546 765.887695312 1547 c 0,19,20
 703.887695312 1547 703.887695312 1547 627.887695312 1545 c 1,21,22
 613.887695312 1488 613.887695312 1488 572.887695312 1328 c 0,23,24
 505.887695312 1071 505.887695312 1071 474.387695312 934.5 c 128,-1,25
 442.887695312 798 442.887695312 798 432.887695312 750 c 0,26,27
 410.887695312 640 410.887695312 640 346.887695312 374 c 128,-1,28
 282.887695312 108 282.887695312 108 271.387695312 59.5 c 128,-1,29
 259.887695312 11 259.887695312 11 258.887695312 5 c 1,30,31
 274.887695312 5 274.887695312 5 290.887695312 5 c 0,32,33
 382.887695312 5 382.887695312 5 511.887695312 10.5 c 128,-1,34
 640.887695312 16 640.887695312 16 655.887695312 16 c 0,35,36
 710.887695312 16 710.887695312 16 728.387695312 -12 c 128,-1,37
 745.887695312 -40 745.887695312 -40 737.887695312 -84 c 1,38,-1
 737.887695312 -85 l 1,39,40
 727.887695312 -130 727.887695312 -130 699.887695312 -164 c 0,41,42
 682.887695312 -186 682.887695312 -186 655.887695312 -195 c 0,43,44
 639.887695312 -201 639.887695312 -201 621.887695312 -201 c 0,45,46
 612.887695312 -201 612.887695312 -201 602.887695312 -200 c 0,47,48
 551.887695312 -193 551.887695312 -193 481.387695312 -192.5 c 128,-1,49
 410.887695312 -192 410.887695312 -192 354.887695312 -196 c 0,50,51
 159.887695312 -207 159.887695312 -207 92.8876953125 -207 c 0,52,53
 36.8876953125 -207 36.8876953125 -207 11.8876953125 -182 c 0,54,55
 -16.1123046875 -154 -16.1123046875 -154 -5.1123046875 -107 c 0,56,57
 -0.1123046875 -86 -0.1123046875 -86 9.8876953125 -64 c 1,58,-1
 13.8876953125 -48 l 1,59,-1
 13.8876953125 -47 l 1,60,61
 46.8876953125 58 46.8876953125 58 115.887695312 334.5 c 128,-1,62
 184.887695312 611 184.887695312 611 242.887695312 886 c 0,63,64
 265.887695312 1007 265.887695312 1007 322.887695312 1243 c 0,65,66
 362.887695312 1410 362.887695312 1410 384.887695312 1495 c 128,-1,67
 406.887695312 1580 406.887695312 1580 409.887695312 1593 c 2,68,-1
 410.887695312 1600 l 1,69,70
 406.887695312 1621 406.887695312 1621 413.887695312 1650 c 0,71,72
 423.887695312 1693 423.887695312 1693 462.387695312 1726 c 128,-1,73
 500.887695312 1759 500.887695312 1759 557.887695312 1760 c 0,74,75
 694.887695312 1765 694.887695312 1765 806.887695312 1765 c 2,0,-1
EndSplineSet
Validated: 524321
EndChar

StartChar: backslash
Encoding: 92 92 60
Width: 1130
GlyphClass: 2
Flags: W
LayerCount: 2
Fore
SplineSet
234.982421875 1451 m 0,0,1
 238.982421875 1467 238.982421875 1467 244.982421875 1481 c 0,2,3
 267.982421875 1529 267.982421875 1529 317.982421875 1554 c 1,4,5
 352.982421875 1568 352.982421875 1568 383.982421875 1568 c 128,-1,6
 414.982421875 1568 414.982421875 1568 440.982421875 1547 c 128,-1,7
 466.982421875 1526 466.982421875 1526 475.982421875 1488 c 0,8,9
 545.982421875 1191 545.982421875 1191 615.982421875 956 c 1,10,-1
 615.982421875 956 l 1,11,12
 725.982421875 574 725.982421875 574 890.982421875 83 c 1,13,14
 905.982421875 35 905.982421875 35 892.982421875 -20 c 0,15,16
 890.982421875 -30 890.982421875 -30 886.982421875 -41 c 0,17,18
 863.982421875 -112 863.982421875 -112 818.982421875 -136 c 0,19,20
 766.982421875 -167 766.982421875 -167 715.982421875 -138 c 0,21,22
 667.982421875 -112 667.982421875 -112 649.982421875 -47 c 0,23,24
 639.982421875 -13 639.982421875 -13 605.982421875 138 c 128,-1,25
 571.982421875 289 571.982421875 289 554.982421875 352 c 0,26,27
 529.982421875 450 529.982421875 450 394.982421875 859 c 128,-1,28
 259.982421875 1268 259.982421875 1268 234.982421875 1374 c 1,29,30
 226.982421875 1416 226.982421875 1416 234.982421875 1451 c 0,0,1
EndSplineSet
Validated: 524321
EndChar

StartChar: bracketright
Encoding: 93 93 61
Width: 1130
GlyphClass: 2
Flags: W
LayerCount: 2
Fore
SplineSet
1128.25390625 1650 m 0,0,1
 1121.25390625 1621 1121.25390625 1621 1108.25390625 1600 c 1,2,-1
 1106.25390625 1594 l 1,3,4
 1103.25390625 1577 1103.25390625 1577 1087.25390625 1503 c 0,5,6
 1056.25390625 1358 1056.25390625 1358 1048.25390625 1319.5 c 128,-1,7
 1040.25390625 1281 1040.25390625 1281 1026.25390625 1217 c 0,8,9
 990.25390625 1052 990.25390625 1052 947.25390625 886 c 0,10,11
 877.25390625 611 877.25390625 611 818.75390625 334.5 c 128,-1,12
 760.25390625 58 760.25390625 58 744.25390625 -47 c 1,13,-1
 744.25390625 -48 l 1,14,-1
 740.25390625 -64 l 1,15,16
 741.25390625 -86 741.25390625 -86 736.25390625 -107 c 0,17,18
 725.25390625 -154 725.25390625 -154 685.25390625 -182 c 0,19,20
 649.25390625 -207 649.25390625 -207 592.25390625 -207 c 0,21,22
 524.25390625 -207 524.25390625 -207 331.25390625 -195 c 0,23,24
 281.25390625 -192 281.25390625 -192 247.25390625 -192 c 128,-1,25
 213.25390625 -192 213.25390625 -192 205.25390625 -192 c 0,26,27
 137.25390625 -192 137.25390625 -192 85.25390625 -200 c 0,28,29
 55.25390625 -205 55.25390625 -205 33.75390625 -195 c 128,-1,30
 12.25390625 -185 12.25390625 -185 4.25390625 -164 c 0,31,32
 -1.74609375 -146 -1.74609375 -146 -1.24609375 -126.5 c 128,-1,33
 -0.74609375 -107 -0.74609375 -107 4.25390625 -85 c 2,34,-1
 4.25390625 -84 l 1,35,36
 17.25390625 -40 17.25390625 -40 47.25390625 -12 c 128,-1,37
 77.25390625 16 77.25390625 16 132.25390625 16 c 0,38,39
 146.25390625 16 146.25390625 16 273.25390625 10.5 c 128,-1,40
 400.25390625 5 400.25390625 5 492.25390625 5 c 0,41,42
 508.25390625 5 508.25390625 5 524.25390625 5 c 1,43,44
 526.25390625 12 526.25390625 12 537.25390625 60 c 128,-1,45
 548.25390625 108 548.25390625 108 589.25390625 296 c 0,46,47
 666.25390625 645 666.25390625 645 698.25390625 768 c 0,48,49
 743.25390625 956 743.25390625 956 766.25390625 1062 c 0,50,51
 785.25390625 1150 785.25390625 1150 812.25390625 1283 c 128,-1,52
 839.25390625 1416 839.25390625 1416 850.75390625 1471 c 128,-1,53
 862.25390625 1526 862.25390625 1526 866.25390625 1545 c 1,54,55
 791.25390625 1547 791.25390625 1547 728.25390625 1547 c 0,56,57
 577.25390625 1547 577.25390625 1547 501.25390625 1535 c 0,58,59
 487.25390625 1533 487.25390625 1533 484.75390625 1533.5 c 128,-1,60
 482.25390625 1534 482.25390625 1534 482.25390625 1534 c 0,61,62
 462.25390625 1534 462.25390625 1534 447.25390625 1541 c 0,63,64
 425.25390625 1552 425.25390625 1552 416.25390625 1573 c 0,65,66
 400.25390625 1613 400.25390625 1613 410.25390625 1658 c 2,67,-1
 411.25390625 1659 l 1,68,69
 424.25390625 1704 424.25390625 1704 457.25390625 1735.5 c 128,-1,70
 490.25390625 1767 490.25390625 1767 543.25390625 1767 c 0,71,72
 545.25390625 1767 545.25390625 1767 547.25390625 1767 c 0,73,74
 631.25390625 1764 631.25390625 1764 733.25390625 1764 c 2,75,-1
 789.25390625 1765 l 2,76,77
 902.25390625 1765 902.25390625 1765 1034.25390625 1760 c 0,78,79
 1092.25390625 1759 1092.25390625 1759 1115.25390625 1726 c 128,-1,80
 1138.25390625 1693 1138.25390625 1693 1128.25390625 1650 c 0,0,1
EndSplineSet
Validated: 524321
EndChar

StartChar: asciicircum
Encoding: 94 94 62
Width: 1130
GlyphClass: 2
Flags: W
LayerCount: 2
Fore
SplineSet
164.424804688 1207 m 0,0,1
 144.424804688 1194 144.424804688 1194 126.424804688 1194 c 0,2,3
 88.4248046875 1194 88.4248046875 1194 62.4248046875 1230 c 0,4,5
 50.4248046875 1247 50.4248046875 1247 43.9248046875 1271 c 128,-1,6
 37.4248046875 1295 37.4248046875 1295 43.4248046875 1322 c 0,7,8
 53.4248046875 1367 53.4248046875 1367 93.4248046875 1408 c 0,9,10
 143.424804688 1462 143.424804688 1462 223.924804688 1537.5 c 128,-1,11
 304.424804688 1613 304.424804688 1613 401.424804688 1708 c 128,-1,12
 498.424804688 1803 498.424804688 1803 598.424804688 1912 c 0,13,14
 628.424804688 1945 628.424804688 1945 672.424804688 1956 c 0,15,16
 691.424804688 1961 691.424804688 1961 710.424804688 1960.5 c 128,-1,17
 729.424804688 1960 729.424804688 1960 748.424804688 1954 c 0,18,19
 785.424804688 1941 785.424804688 1941 796.424804688 1909 c 0,20,21
 843.424804688 1805 843.424804688 1805 879.924804688 1734.5 c 128,-1,22
 916.424804688 1664 916.424804688 1664 936.424804688 1631.5 c 128,-1,23
 956.424804688 1599 956.424804688 1599 998.424804688 1537 c 0,24,25
 1044.42480469 1468 1044.42480469 1468 1073.42480469 1421 c 0,26,27
 1096.42480469 1382 1096.42480469 1382 1086.42480469 1338 c 0,28,29
 1079.42480469 1309 1079.42480469 1309 1059.42480469 1285 c 128,-1,30
 1039.42480469 1261 1039.42480469 1261 1016.42480469 1243 c 128,-1,31
 993.424804688 1225 993.424804688 1225 971.424804688 1215 c 0,32,33
 952.424804688 1205 952.424804688 1205 933.424804688 1205.5 c 128,-1,34
 914.424804688 1206 914.424804688 1206 899.424804688 1218 c 0,35,36
 877.424804688 1236 877.424804688 1236 838.424804688 1294 c 0,37,38
 828.424804688 1308 828.424804688 1308 823.424804688 1317 c 0,39,40
 739.424804688 1439 739.424804688 1439 710.424804688 1490 c 128,-1,41
 681.424804688 1541 681.424804688 1541 638.424804688 1636 c 1,42,43
 584.424804688 1578 584.424804688 1578 536.424804688 1531.5 c 128,-1,44
 488.424804688 1485 488.424804688 1485 458.424804688 1460.5 c 128,-1,45
 428.424804688 1436 428.424804688 1436 377.924804688 1394 c 128,-1,46
 327.424804688 1352 327.424804688 1352 275.424804688 1302 c 0,47,48
 266.424804688 1294 266.424804688 1294 251.424804688 1279 c 0,49,50
 191.424804688 1224 191.424804688 1224 164.424804688 1207 c 0,0,1
EndSplineSet
Validated: 524321
EndChar

StartChar: underscore
Encoding: 95 95 63
Width: 1130
GlyphClass: 2
Flags: W
LayerCount: 2
Fore
SplineSet
190.633789062 -6 m 0,0,1
 193.633789062 -6 193.633789062 -6 282.633789062 -7 c 0,2,3
 497.633789062 -10 497.633789062 -10 797.633789062 -6 c 0,4,5
 948.633789062 -3 948.633789062 -3 982.633789062 -3 c 0,6,7
 1037.63378906 -3 1037.63378906 -3 1055.63378906 -34 c 0,8,9
 1071.63378906 -63 1071.63378906 -63 1063.63378906 -109 c 1,10,-1
 1063.63378906 -110 l 1,11,12
 1052.63378906 -158 1052.63378906 -158 1024.63378906 -187 c 0,13,14
 988.633789062 -224 988.633789062 -224 931.633789062 -224 c 0,15,16
 931.633789062 -224 931.633789062 -224 602.133789062 -226.5 c 128,-1,17
 272.633789062 -229 272.633789062 -229 146.633789062 -229 c 0,18,19
 45.6337890625 -229 45.6337890625 -229 67.6337890625 -117 c 0,20,21
 68.6337890625 -113 68.6337890625 -113 69.6337890625 -109 c 0,22,23
 82.6337890625 -54 82.6337890625 -54 120.633789062 -26 c 0,24,25
 149.633789062 -6 149.633789062 -6 190.633789062 -6 c 0,0,1
EndSplineSet
Validated: 524321
EndChar

StartChar: grave
Encoding: 96 96 64
Width: 1130
GlyphClass: 2
Flags: W
LayerCount: 2
Fore
SplineSet
362.875 1627 m 1,0,-1
 364.875 1629 l 2,1,2
 398.875 1668 398.875 1668 452.875 1680 c 0,3,4
 466.875 1683 466.875 1683 479.875 1683 c 0,5,6
 516.875 1683 516.875 1683 544.875 1659 c 1,7,8
 551.875 1650 551.875 1650 640.875 1556 c 0,9,10
 655.875 1540 655.875 1540 686.375 1513.5 c 128,-1,11
 716.875 1487 716.875 1487 739.875 1472 c 0,12,13
 782.875 1443 782.875 1443 792.875 1394 c 0,14,15
 798.875 1367 798.875 1367 793.375 1343 c 128,-1,16
 787.875 1319 787.875 1319 771.875 1301 c 0,17,18
 740.875 1262 740.875 1262 689.875 1254 c 0,19,20
 680.875 1253 680.875 1253 671.875 1253 c 0,21,22
 633.875 1253 633.875 1253 594.875 1277 c 1,23,24
 498.875 1343 498.875 1343 477.875 1358.5 c 128,-1,25
 456.875 1374 456.875 1374 421.875 1402 c 0,26,27
 385.875 1432 385.875 1432 364.375 1454 c 128,-1,28
 342.875 1476 342.875 1476 336.875 1508.5 c 128,-1,29
 330.875 1541 330.875 1541 337.375 1570 c 128,-1,30
 343.875 1599 343.875 1599 362.875 1627 c 1,0,-1
EndSplineSet
Validated: 524289
EndChar

StartChar: a
Encoding: 97 97 65
Width: 1126
GlyphClass: 2
Flags: W
LayerCount: 2
Fore
SplineSet
991 -29 m 1025,0,-1
682 1024 m 0,1,2
 763 1044 763 1044 859 1044 c 0,3,4
 870 1044 870 1044 882 1043 c 0,5,6
 1089 1039 1089 1039 1130 941 c 0,7,8
 1187 799 1187 799 1126 534 c 0,9,10
 1111 469 1111 469 1089.5 382.5 c 128,-1,11
 1068 296 1068 296 1068 294 c 0,12,13
 1058 250 1058 250 1043 112 c 0,14,15
 1039 67 1039 67 1030 29 c 0,16,17
 1012 -49 1012 -49 969 -70 c 0,18,19
 955 -78 955 -78 939 -78 c 0,20,21
 844 -78 844 -78 843 -17 c 2,22,23
 848 70 848 70 842 106 c 1,24,25
 767 26 767 26 691 -14 c 0,26,27
 610 -57 610 -57 454 -57 c 0,28,29
 382 -57 382 -57 310 -20 c 0,30,31
 243 15 243 15 205 87.5 c 128,-1,32
 167 160 167 160 158 239 c 1,33,34
 160 250 160 250 159 243 c 2,35,36
 172 297 172 297 198 356 c 0,37,38
 229 425 229 425 287 473 c 0,39,40
 363 537 363 537 395 552 c 0,41,42
 510 605 510 605 535 611 c 0,43,44
 712 653 712 653 716 653 c 0,45,46
 825 664 825 664 851 669 c 0,47,48
 859 671 859 671 943 696 c 1,49,50
 949 713 949 713 951 733 c 0,51,52
 951 740 951 740 942 755 c 0,53,54
 927 780 927 780 902.5 793.5 c 128,-1,55
 878 807 878 807 814 811 c 0,56,57
 805 812 805 812 795 811 c 0,58,59
 752 811 752 811 701 797.5 c 128,-1,60
 650 784 650 784 610 762 c 0,61,62
 542 725 542 725 511 700 c 0,63,64
 435 620 435 620 375 620 c 0,65,66
 343 620 343 620 318 642 c 0,67,68
 275 680 275 680 288 737 c 0,69,70
 299 783 299 783 347 837 c 0,71,72
 384 879 384 879 431 915 c 0,73,74
 517 983 517 983 682 1024 c 0,1,2
451 184.5 m 128,-1,76
 489 153 489 153 547 153 c 0,77,78
 617 153 617 153 691 200 c 0,79,80
 732 226 732 226 768 263.5 c 128,-1,81
 804 301 804 301 838 360 c 0,82,83
 865 407 865 407 883 461 c 1,84,85
 516 426 516 426 389 294 c 1,86,75
 413 216 413 216 451 184.5 c 128,-1,76
EndSplineSet
Validated: 33
EndChar

StartChar: b
Encoding: 98 98 66
Width: 1130
GlyphClass: 2
Flags: W
LayerCount: 2
Fore
SplineSet
1075.75 778 m 0,0,1
 1095.75 675 1095.75 675 1065.75 545 c 0,2,3
 1064.75 540 1064.75 540 1063.25 533.5 c 128,-1,4
 1061.75 527 1061.75 527 1059.75 519 c 0,5,6
 1037.75 422 1037.75 422 996.75 334.5 c 128,-1,7
 955.75 247 955.75 247 901.25 181 c 128,-1,8
 846.75 115 846.75 115 782.75 67 c 0,9,10
 717.75 19 717.75 19 646.75 -4 c 0,11,12
 575.75 -28 575.75 -28 506.75 -28 c 0,13,14
 344.75 -28 344.75 -28 245.75 51 c 1,15,16
 230.75 22 230.75 22 208.75 5 c 0,17,18
 175.75 -20 175.75 -20 135.75 -22 c 2,19,20
 141.75 3 141.75 3 134.75 -22 c 2,21,22
 131.75 -22 131.75 -22 128.75 -22 c 0,23,24
 69.75 -22 69.75 -22 52.75 24 c 0,25,26
 39.75 57 39.75 57 52.75 112 c 0,27,28
 106.75 356 106.75 356 213.25 810.5 c 128,-1,29
 319.75 1265 319.75 1265 364.75 1434 c 0,30,31
 381.75 1507 381.75 1507 415.75 1538.5 c 128,-1,32
 449.75 1570 449.75 1570 494.75 1573 c 0,33,34
 500.75 1574 500.75 1574 506.75 1574 c 0,35,36
 549.75 1574 549.75 1574 572.75 1543 c 0,37,38
 599.75 1507 599.75 1507 580.75 1426 c 0,39,40
 489.75 1045 489.75 1045 466.75 942 c 1,41,42
 603.75 1014 603.75 1014 758.75 1014 c 2,43,-1
 758.75 1014 l 1,44,45
 893.75 1012 893.75 1012 976.75 950 c 0,46,47
 1054.75 886 1054.75 886 1075.75 778 c 0,0,1
781.75 754 m 0,48,49
 733.75 795 733.75 795 651.75 796 c 0,50,51
 537.75 796 537.75 796 411.75 715 c 1,52,53
 361.75 499 361.75 499 303.75 259 c 1,54,55
 332.75 227 332.75 227 379.75 212 c 128,-1,56
 426.75 197 426.75 197 501.75 197 c 0,57,58
 627.75 197 627.75 197 715.75 281.5 c 128,-1,59
 803.75 366 803.75 366 836.75 510 c 0,60,61
 854.75 589 854.75 589 840.75 655 c 0,62,63
 826.75 715 826.75 715 781.75 754 c 0,48,49
EndSplineSet
Validated: 524321
EndChar

StartChar: c
Encoding: 99 99 67
Width: 1130
GlyphClass: 2
Flags: W
LayerCount: 2
Fore
SplineSet
632.578125 1052 m 0,0,1
 721.578125 1080 721.578125 1080 811.578125 1080 c 0,2,3
 924.578125 1080 924.578125 1080 985.578125 994 c 0,4,5
 1043.578125 912 1043.578125 912 1044.578125 796 c 0,6,7
 1044.578125 764 1044.578125 764 1038.578125 736 c 0,8,9
 1027.578125 687 1027.578125 687 995.578125 653 c 0,10,11
 969.578125 625 969.578125 625 934.578125 610 c 0,12,13
 907.578125 599 907.578125 599 887.578125 599.5 c 128,-1,14
 867.578125 600 867.578125 600 851.578125 606 c 0,15,16
 830.578125 614 830.578125 614 817.578125 638 c 0,17,18
 803.578125 663 803.578125 663 801.578125 700 c 0,19,20
 798.578125 755 798.578125 755 797.578125 765 c 0,21,22
 793.578125 802 793.578125 802 786.578125 813 c 0,23,24
 772.578125 834 772.578125 834 751.578125 840 c 0,25,26
 737.578125 844 737.578125 844 716.578125 844 c 0,27,28
 686.578125 844 686.578125 844 651.578125 833.5 c 128,-1,29
 616.578125 823 616.578125 823 573.578125 795 c 128,-1,30
 530.578125 767 530.578125 767 490.578125 725 c 128,-1,31
 450.578125 683 450.578125 683 412.078125 612 c 128,-1,32
 373.578125 541 373.578125 541 347.578125 452 c 0,33,34
 342.578125 434 342.578125 434 338.578125 417 c 0,35,36
 313.578125 309 313.578125 309 339.578125 248 c 0,37,38
 371.578125 175 371.578125 175 481.578125 170 c 0,39,40
 497.578125 170 497.578125 170 503.578125 170 c 0,41,42
 586.578125 170 586.578125 170 649.078125 196 c 128,-1,43
 711.578125 222 711.578125 222 730.578125 252 c 0,44,45
 753.578125 290 753.578125 290 777.578125 315 c 0,46,47
 816.578125 355 816.578125 355 860.578125 354 c 0,48,49
 883.578125 354 883.578125 354 906.078125 341.5 c 128,-1,50
 928.578125 329 928.578125 329 939.578125 308 c 0,51,52
 953.578125 280 953.578125 280 944.578125 242.5 c 128,-1,53
 935.578125 205 935.578125 205 907.078125 161.5 c 128,-1,54
 878.578125 118 878.578125 118 836.578125 80.5 c 128,-1,55
 794.578125 43 794.578125 43 735.578125 8.5 c 128,-1,56
 676.578125 -26 676.578125 -26 590.578125 -45 c 0,57,58
 502.578125 -64 502.578125 -64 408.578125 -64 c 0,59,60
 403.578125 -64 403.578125 -64 399.578125 -64 c 2,61,-1
 398.578125 -64 l 1,62,63
 298.578125 -62 298.578125 -62 225.578125 -22 c 0,64,65
 159.578125 17 159.578125 17 126.578125 80.5 c 128,-1,66
 93.578125 144 93.578125 144 87.078125 221 c 128,-1,67
 80.578125 298 80.578125 298 99.578125 376 c 0,68,69
 100.578125 382 100.578125 382 101.578125 387 c 0,70,71
 134.578125 524 134.578125 524 189.578125 638 c 128,-1,72
 244.578125 752 244.578125 752 312.078125 833 c 128,-1,73
 379.578125 914 379.578125 914 458.578125 970 c 0,74,75
 543.578125 1025 543.578125 1025 632.578125 1052 c 0,0,1
EndSplineSet
Validated: 524321
EndChar

StartChar: d
Encoding: 100 100 68
Width: 1130
GlyphClass: 2
Flags: W
LayerCount: 2
Fore
SplineSet
722.625976562 -18 m 0,0,1
 707.625976562 -21 707.625976562 -21 694.625976562 -21 c 0,2,3
 645.625976562 -21 645.625976562 -21 627.625976562 22 c 0,4,5
 614.625976562 52 614.625976562 52 613.625976562 96 c 1,6,7
 604.625976562 88 604.625976562 88 595.625976562 80 c 0,8,9
 563.625976562 52 563.625976562 52 520.625976562 26 c 128,-1,10
 477.625976562 0 477.625976562 0 424.125976562 -14 c 128,-1,11
 370.625976562 -28 370.625976562 -28 311.625976562 -28 c 0,12,13
 242.625976562 -28 242.625976562 -28 182.625976562 -4 c 0,14,15
 121.625976562 19 121.625976562 19 75.6259765625 68 c 0,16,17
 31.6259765625 117 31.6259765625 117 6.1259765625 185 c 128,-1,18
 -19.3740234375 253 -19.3740234375 253 -19.8740234375 346.5 c 128,-1,19
 -20.3740234375 440 -20.3740234375 440 3.6259765625 542 c 0,20,21
 5.6259765625 550 5.6259765625 550 6.6259765625 556 c 128,-1,22
 7.6259765625 562 7.6259765625 562 8.6259765625 567 c 0,23,24
 38.6259765625 698 38.6259765625 698 111.625976562 804 c 0,25,26
 187.625976562 915 187.625976562 915 296.625976562 980 c 0,27,28
 412.625976562 1045 412.625976562 1045 547.625976562 1047 c 1,29,-1
 547.625976562 1047 l 2,30,31
 703.625976562 1047 703.625976562 1047 804.625976562 979 c 1,32,33
 886.625976562 1321 886.625976562 1321 919.625976562 1425 c 0,34,35
 938.625976562 1488 938.625976562 1488 972.625976562 1525 c 0,36,37
 1015.62597656 1575 1015.62597656 1575 1075.62597656 1575 c 2,38,-1
 1075.62597656 1575 l 1,39,40
 1122.62597656 1572 1122.62597656 1572 1141.62597656 1538 c 0,41,42
 1157.62597656 1508 1157.62597656 1508 1142.62597656 1443 c 0,43,44
 1140.62597656 1433 1140.62597656 1433 1137.62597656 1422 c 0,45,46
 1104.62597656 1305 1104.62597656 1305 1022.62597656 987 c 128,-1,47
 940.625976562 669 940.625976562 669 902.625976562 505 c 0,48,49
 879.625976562 395 879.625976562 395 868.125976562 313.5 c 128,-1,50
 856.625976562 232 856.625976562 232 856.625976562 198.5 c 128,-1,51
 856.625976562 165 856.625976562 165 855.125976562 142 c 128,-1,52
 853.625976562 119 853.625976562 119 850.625976562 107 c 0,53,54
 836.625976562 47 836.625976562 47 790.625976562 13 c 0,55,56
 761.625976562 -10 761.625976562 -10 722.625976562 -18 c 0,0,1
228.125976562 288.5 m 128,-1,58
 270.625976562 203 270.625976562 203 383.625976562 203 c 2,59,60
 390.625976562 228 390.625976562 228 385.625976562 203 c 2,61,62
 415.625976562 203 415.625976562 203 442.625976562 208 c 128,-1,63
 469.625976562 213 469.625976562 213 489.125976562 220 c 128,-1,64
 508.625976562 227 508.625976562 227 529.625976562 241.5 c 128,-1,65
 550.625976562 256 550.625976562 256 564.625976562 266.5 c 128,-1,66
 578.625976562 277 578.625976562 277 597.125976562 296.5 c 128,-1,67
 615.625976562 316 615.625976562 316 625.125976562 327.5 c 128,-1,68
 634.625976562 339 634.625976562 339 644.625976562 351 c 128,-1,69
 654.625976562 363 654.625976562 363 655.625976562 365 c 1,70,71
 670.625976562 433 670.625976562 433 683.625976562 488 c 2,72,73
 691.625976562 521 691.625976562 521 698.625976562 551 c 0,74,75
 703.625976562 573 703.625976562 573 713.625976562 612 c 128,-1,76
 723.625976562 651 723.625976562 651 728.625976562 672 c 1,77,78
 702.625976562 735 702.625976562 735 651.125976562 776.5 c 128,-1,79
 599.625976562 818 599.625976562 818 532.625976562 818 c 0,80,81
 528.625976562 818 528.625976562 818 525.625976562 818 c 0,82,83
 451.625976562 815 451.625976562 815 388.625976562 775.5 c 128,-1,84
 325.625976562 736 325.625976562 736 283.625976562 675 c 0,85,86
 239.625976562 609 239.625976562 609 221.625976562 530 c 0,87,57
 185.625976562 374 185.625976562 374 228.125976562 288.5 c 128,-1,58
EndSplineSet
Validated: 524325
EndChar

